<?xml version="1.0" encoding="utf-8"?>
<svg width="150" height="150" viewBox="0 0 150 150" fill="none" xmlns="http://www.w3.org/2000/svg">
  <path d="M 73.803 20.207 C 73.802 20.207 73.801 20.207 73.8 20.207 C 73.798 20.207 73.797 20.207 73.796 20.207 C 73.795 20.207 73.793 20.207 73.792 20.207 C 73.791 20.207 73.79 20.207 73.788 20.207 C 73.787 20.207 73.786 20.207 73.784 20.207 C 73.783 20.207 73.782 20.207 73.781 20.207 C 73.78 20.207 73.779 20.207 73.778 20.207 C 73.777 20.207 73.775 20.207 73.774 20.207 C 73.773 20.207 73.772 20.207 73.77 20.207 C 73.769 20.207 73.768 20.207 73.767 20.207 C 73.766 20.207 73.764 20.207 73.763 20.207 C 73.762 20.207 73.76 20.207 73.759 20.207 C 73.758 20.207 73.757 20.207 73.755 20.207 C 73.754 20.207 73.753 20.207 73.752 20.207 C 73.75 20.207 73.749 20.207 73.748 20.207 C 73.747 20.207 73.745 20.207 73.744 20.207 L 73.751 20.207 L 73.759 20.207 L 73.766 20.207 L 73.773 20.207 L 73.78 20.207 L 73.788 20.207 L 73.795 20.207 L 73.803 20.207 Z M 74.085 22.231 C 77.727 22.232 80.93 22.734 84.291 23.067 C 87.653 23.4 90.862 23.826 93.894 24.395 C 96.926 24.965 100.248 25.212 102.9 25.924 C 105.552 26.636 107.067 27.707 109.289 28.466 C 111.511 29.226 111.943 29.83 113.685 30.541 C 115.427 31.253 116.144 31.917 117.355 32.486 C 118.566 33.056 120.901 32.44 121.532 32.772 C 122.163 33.104 122.491 33.761 122.491 33.761 L 121.246 40.335 C 111.289 43.18 119.378 47.375 119.378 47.375 C 119.277 47.375 107.032 54.883 120.156 54.883 L 119.534 62.234 L 123.892 69.898 L 123.892 77.405 L 118.444 84.912 L 123.892 92.419 C 123.892 93.504 123.842 94.58 123.742 95.648 C 123.642 96.717 119.756 97.311 119.555 98.366 C 119.354 99.421 118.48 100.159 118.178 101.202 C 117.875 102.246 116.275 102.505 115.869 103.539 C 115.463 104.574 115.94 105.449 115.431 106.476 C 114.921 107.503 116.851 107.904 116.237 108.925 C 115.623 109.947 114.404 110.5 113.685 111.519 C 112.965 112.538 111.856 112.311 111.03 113.328 C 110.433 114.073 109.92 114.348 109.266 115.09 C 108.612 115.833 107.617 118.443 106.901 119.187 C 106.185 119.932 106.994 120.836 106.21 121.589 C 105.427 122.342 104.295 121.7 103.438 122.466 C 102.58 123.233 100.05 124.319 99.113 125.106 C 98.177 125.892 97.278 127.624 96.256 128.435 C 95.235 129.246 93.858 129.604 92.745 130.446 C 91.632 131.287 90.942 133.391 89.732 134.268 L 86.689 134.756 L 85.204 136.8 L 83.007 139 L 82.24 140.733 L 78.103 141.065 L 77.396 142.954 L 74.977 143.442 L 73.803 150 L 71.377 148.267 L 68.951 146.534 L 66.525 144.801 L 64.098 143.068 L 61.672 141.335 L 59.246 139.602 L 56.82 137.869 L 54.393 136.136 C 53.184 135.251 52.026 134.386 50.914 133.539 C 49.803 132.692 48.739 131.863 47.719 131.048 C 46.7 130.233 45.724 129.433 44.79 128.645 C 43.856 127.856 42.963 127.08 42.107 126.313 C 41.252 125.546 42.582 124.156 41.799 123.405 C 41.016 122.654 39.635 121.909 38.918 121.168 C 38.201 120.427 38.652 119.311 37.995 118.574 C 37.337 117.837 34.054 118.113 33.449 117.375 C 32.624 116.358 35.702 113.005 34.983 111.986 C 34.264 110.967 33.482 110.881 32.868 109.859 C 32.254 108.838 31.226 107.191 30.716 106.164 C 30.207 105.137 28.816 105.197 28.41 104.162 C 28.005 103.128 28.118 101.934 27.815 100.89 C 27.512 99.847 27.26 99.421 27.059 98.366 C 26.858 97.311 27.175 96.873 27.075 95.804 C 26.975 94.736 25.68 93.66 25.68 92.575 L 26.302 85.223 C 31.229 85.927 25.761 77.595 25.524 77.561 L 25.68 69.587 L 23.656 62.39 L 26.146 55.506 C 26.155 55.506 27.149 47.842 25.991 47.842 C 26.763 49.386 27.865 40.658 27.859 40.646 L 27.236 36.407 C 27.236 36.407 27.097 33.727 27.728 33.395 C 28.359 33.063 28.826 33.522 30.037 32.952 C 31.249 32.383 33.241 31.564 34.983 30.852 C 36.724 30.141 37.127 31.405 39.349 30.645 C 41.571 29.886 43.242 28.504 45.894 27.792 C 48.546 27.08 50.771 24.965 53.803 24.395 C 56.835 23.826 60.519 22.933 63.881 22.6 C 67.242 22.267 70.444 22.232 74.085 22.231 Z M 30.499 48.23 C 32.085 46.837 33.81 45.498 35.654 44.221 C 37.499 42.944 39.462 41.729 41.525 40.581 C 43.588 39.434 45.751 38.354 47.993 37.348 C 50.235 36.342 52.557 35.41 54.939 34.558 C 57.321 33.706 59.763 32.935 62.245 32.25 C 64.727 31.564 67.25 30.965 69.792 30.459 C 72.335 29.953 74.897 29.539 77.46 29.225 C 80.024 28.91 82.587 28.694 85.131 28.584 C 84.667 28.532 84.374 28.484 84.19 28.438 C 84.005 28.392 83.928 28.348 83.893 28.308 C 83.859 28.268 83.867 28.231 83.852 28.197 C 83.838 28.163 83.802 28.132 83.678 28.105 C 83.555 28.077 83.344 28.052 82.982 28.031 C 82.619 28.01 82.105 27.992 81.373 27.978 C 80.642 27.964 79.693 27.953 78.463 27.946 C 77.233 27.939 75.721 27.935 73.862 27.935 C 72.004 27.935 70.147 27.989 68.292 28.098 C 66.438 28.207 64.586 28.37 62.74 28.588 C 60.894 28.805 59.052 29.077 57.218 29.404 C 55.383 29.73 53.556 30.111 51.738 30.546 C 49.921 30.981 48.112 31.47 46.315 32.014 C 44.517 32.558 42.731 33.156 40.958 33.809 C 39.186 34.462 37.426 35.169 35.682 35.931 C 33.939 36.692 32.21 37.508 30.499 38.378 L 30.499 39.071 L 30.499 39.764 L 30.499 40.457 L 30.499 41.151 L 30.499 41.844 L 30.499 42.537 L 30.499 43.23 L 30.499 43.924 C 30.499 43.916 30.499 43.979 30.499 44.094 C 30.499 44.21 30.499 44.377 30.499 44.58 C 30.499 44.783 30.499 45.021 30.499 45.276 C 30.499 45.531 30.499 45.804 30.499 46.077 C 30.499 46.349 30.499 46.622 30.499 46.878 C 30.499 47.133 30.499 47.371 30.499 47.574 C 30.499 47.777 30.499 47.945 30.499 48.06 C 30.499 48.175 30.499 48.237 30.499 48.23 Z M 85.839 131.416 L 82.425 128.975 L 79.01 126.534 L 75.595 124.093 L 72.181 121.652 L 68.766 119.211 L 65.352 116.77 L 61.937 114.329 L 58.523 111.888 C 56.76 110.605 55.027 109.31 53.341 107.999 C 51.654 106.688 50.014 105.362 48.438 104.016 C 46.861 102.67 45.347 101.305 43.914 99.916 C 42.481 98.528 41.128 97.117 39.873 95.679 C 38.617 94.241 37.459 92.776 36.415 91.281 C 35.37 89.786 34.44 88.26 33.642 86.7 C 32.843 85.14 32.175 83.547 31.656 81.915 C 31.136 80.284 30.765 78.614 30.558 76.903 L 30.558 78.643 L 30.558 80.384 L 30.558 82.124 L 30.558 83.865 L 30.558 85.605 L 30.558 87.345 L 30.558 89.085 L 30.558 90.826 C 30.558 92.721 30.757 94.566 31.135 96.365 C 31.514 98.164 32.071 99.916 32.787 101.628 C 33.503 103.339 34.379 105.009 35.393 106.643 C 36.408 108.276 37.561 109.873 38.833 111.439 C 40.105 113.004 41.496 114.537 42.986 116.044 C 44.476 117.55 46.064 119.029 47.732 120.486 C 49.4 121.943 51.146 123.377 52.952 124.794 C 54.757 126.211 56.62 127.61 58.523 128.997 L 60.44 130.369 L 62.358 131.741 L 64.275 133.113 L 66.193 134.484 L 68.11 135.856 L 70.028 137.228 L 71.945 138.6 L 73.862 139.971 L 75.36 138.902 L 76.857 137.833 L 78.354 136.764 L 79.851 135.694 L 81.348 134.625 L 82.845 133.555 L 84.342 132.486 L 85.839 131.416 Z M 116.753 87.935 C 116.798 87.832 116.838 87.729 116.875 87.626 C 116.912 87.522 116.945 87.419 116.974 87.316 C 117.004 87.213 117.03 87.109 117.052 87.006 C 117.074 86.903 117.093 86.8 117.107 86.697 C 117.122 86.594 117.133 86.49 117.14 86.387 C 117.148 86.284 117.151 86.181 117.151 86.077 C 117.151 85.974 117.148 85.871 117.14 85.768 C 117.133 85.665 117.122 85.562 117.107 85.458 C 117.012 84.824 116.892 84.031 116.755 83.129 C 116.619 82.227 116.466 81.217 116.304 80.146 C 116.143 79.076 115.972 77.946 115.799 76.806 C 115.627 75.667 115.453 74.517 115.285 73.407 C 115.118 72.297 114.956 71.227 114.807 70.246 C 114.659 69.265 114.524 68.373 114.41 67.62 C 114.297 66.867 114.204 66.252 114.139 65.826 C 114.075 65.4 114.039 65.162 114.039 65.162 C 114.224 64.963 114.392 64.762 114.547 64.561 C 114.701 64.36 114.841 64.158 114.968 63.958 C 115.096 63.758 115.21 63.56 115.313 63.364 C 115.415 63.169 115.507 62.976 115.588 62.788 C 115.669 62.6 115.74 62.417 115.802 62.239 C 115.865 62.062 115.918 61.891 115.964 61.728 C 116.01 61.565 116.049 61.41 116.082 61.264 C 116.114 61.118 116.141 60.982 116.163 60.856 C 116.171 60.797 116.176 60.739 116.18 60.682 C 116.183 60.625 116.185 60.568 116.185 60.512 C 116.185 60.457 116.183 60.402 116.18 60.347 C 116.176 60.293 116.171 60.239 116.163 60.185 C 116.156 60.132 116.146 60.079 116.135 60.026 C 116.124 59.973 116.112 59.921 116.097 59.869 C 116.082 59.817 116.065 59.765 116.047 59.713 C 116.028 59.661 116.008 59.61 115.986 59.558 C 115.927 59.425 115.858 59.271 115.779 59.098 C 115.7 58.926 115.612 58.734 115.514 58.526 C 115.417 58.319 115.31 58.094 115.194 57.856 C 115.078 57.618 114.954 57.366 114.821 57.102 C 114.689 56.839 114.548 56.564 114.399 56.279 C 114.25 55.995 114.093 55.702 113.929 55.402 C 113.764 55.102 113.593 54.795 113.415 54.483 C 113.236 54.172 113.051 53.857 112.859 53.54 C 112.424 52.84 112.003 52.172 111.596 51.538 C 111.19 50.903 110.799 50.302 110.423 49.733 C 110.047 49.164 109.687 48.628 109.344 48.124 C 109.002 47.621 108.676 47.15 108.368 46.711 C 108.06 46.272 107.77 45.866 107.499 45.491 C 107.228 45.117 106.976 44.775 106.745 44.464 C 106.513 44.154 106.301 43.875 106.111 43.628 C 105.92 43.38 105.751 43.165 105.603 42.98 C 105.758 42.965 106.033 42.938 106.397 42.896 C 106.762 42.853 107.216 42.794 107.731 42.715 C 108.246 42.637 108.821 42.538 109.426 42.415 C 110.031 42.292 110.667 42.145 111.303 41.97 C 111.939 41.795 112.575 41.591 113.183 41.356 C 113.79 41.121 114.367 40.853 114.886 40.549 C 115.404 40.246 115.864 39.906 116.234 39.525 C 116.605 39.145 116.886 38.725 117.048 38.26 C 116.414 37.936 115.777 37.619 115.137 37.311 C 114.498 37.003 113.855 36.703 113.211 36.411 C 112.567 36.119 111.921 35.834 111.272 35.557 C 110.623 35.281 109.972 35.012 109.319 34.75 C 108.666 34.488 108.012 34.234 107.356 33.986 C 106.7 33.739 106.043 33.499 105.383 33.265 C 104.724 33.032 104.064 32.806 103.402 32.586 C 102.741 32.367 102.078 32.153 101.414 31.947 C 101.392 31.94 101.37 31.932 101.348 31.925 C 101.326 31.918 101.304 31.911 101.281 31.903 C 101.258 31.896 101.235 31.888 101.212 31.881 C 101.189 31.873 101.165 31.866 101.141 31.859 C 101.117 31.852 101.093 31.844 101.068 31.837 C 101.043 31.829 101.017 31.822 100.991 31.814 C 100.965 31.807 100.938 31.8 100.91 31.792 C 100.882 31.785 100.854 31.778 100.824 31.77 C 100.574 31.696 100.322 31.623 100.069 31.552 C 99.817 31.48 99.563 31.409 99.309 31.339 C 99.055 31.269 98.801 31.199 98.545 31.131 C 98.29 31.063 98.035 30.996 97.778 30.929 C 97.522 30.863 97.265 30.797 97.008 30.733 C 96.751 30.668 96.494 30.605 96.236 30.542 C 95.978 30.48 95.721 30.418 95.463 30.357 C 95.205 30.296 94.946 30.236 94.688 30.177 C 94.408 30.118 94.128 30.066 93.847 30.022 C 93.567 29.977 93.286 29.939 93.006 29.908 C 92.725 29.877 92.444 29.852 92.163 29.833 C 91.881 29.814 91.6 29.801 91.318 29.794 C 91.036 29.787 90.753 29.785 90.47 29.788 C 90.187 29.791 89.903 29.799 89.619 29.812 C 89.334 29.825 89.049 29.843 88.764 29.864 C 88.478 29.886 88.191 29.912 87.903 29.941 L 87.792 29.956 L 87.682 29.97 L 87.571 29.985 L 87.461 30 L 87.35 30.015 L 87.24 30.029 L 87.129 30.044 L 87.019 30.059 C 82.409 30.708 78.138 31.506 74.185 32.428 C 70.231 33.351 66.594 34.4 63.254 35.55 C 59.913 36.701 56.868 37.953 54.098 39.285 C 51.328 40.617 48.832 42.029 46.591 43.496 C 44.349 44.964 42.36 46.487 40.604 48.044 C 38.848 49.601 37.324 51.192 36.012 52.792 C 34.699 54.392 33.598 56.002 32.686 57.6 C 31.774 59.197 31.052 60.782 30.499 62.331 C 30.602 64.138 30.887 65.898 31.335 67.617 C 31.783 69.336 32.394 71.013 33.151 72.652 C 33.907 74.291 34.809 75.892 35.837 77.459 C 36.865 79.027 38.02 80.561 39.283 82.065 C 40.546 83.57 41.917 85.045 43.378 86.494 C 44.839 87.944 46.39 89.368 48.013 90.771 C 49.636 92.174 51.331 93.556 53.079 94.921 C 54.827 96.285 56.628 97.633 58.464 98.968 L 62.992 102.206 L 67.52 105.443 L 72.048 108.681 L 76.576 111.918 L 81.104 115.156 L 85.632 118.393 L 90.16 121.631 L 94.688 124.868 C 95.175 124.492 95.658 124.113 96.137 123.732 C 96.615 123.351 97.09 122.967 97.56 122.58 C 98.029 122.194 98.494 121.806 98.954 121.415 C 99.413 121.024 99.867 120.631 100.315 120.237 C 100.763 119.842 101.205 119.445 101.64 119.047 C 102.076 118.65 102.505 118.25 102.927 117.849 C 103.348 117.448 103.763 117.046 104.17 116.642 C 104.577 116.238 104.976 115.833 105.367 115.428 L 103.987 114.439 L 102.608 113.451 L 101.229 112.463 L 99.85 111.475 L 98.471 110.486 L 97.092 109.498 L 95.713 108.51 L 94.334 107.522 C 91.052 105.206 88.181 102.985 85.681 100.857 C 83.18 98.729 81.049 96.694 79.248 94.753 C 77.446 92.811 75.974 90.963 74.789 89.208 C 73.603 87.452 72.706 85.789 72.055 84.218 C 71.404 82.647 71 81.168 70.801 79.782 C 70.602 78.395 70.609 77.1 70.78 75.896 C 70.951 74.692 71.286 73.579 71.745 72.557 C 72.204 71.535 72.785 70.604 73.449 69.764 C 73.213 69.292 73.006 68.81 72.83 68.321 C 72.653 67.832 72.506 67.337 72.39 66.838 C 72.273 66.339 72.187 65.836 72.131 65.333 C 72.075 64.83 72.049 64.327 72.055 63.828 C 72.06 63.328 72.097 62.832 72.165 62.342 C 72.232 61.853 72.331 61.369 72.461 60.896 C 72.591 60.422 72.753 59.959 72.947 59.509 C 73.141 59.058 73.367 58.621 73.626 58.201 C 73.427 58.864 73.277 59.505 73.171 60.122 C 73.064 60.739 73.001 61.332 72.974 61.901 C 72.947 62.47 72.956 63.014 72.994 63.533 C 73.033 64.052 73.1 64.546 73.191 65.015 C 73.281 65.483 73.394 65.925 73.522 66.341 C 73.651 66.757 73.795 67.147 73.949 67.509 C 74.103 67.871 74.266 68.206 74.43 68.514 C 74.595 68.821 74.762 69.1 74.924 69.351 C 75.064 69.542 75.207 69.731 75.353 69.917 C 75.499 70.103 75.647 70.286 75.798 70.465 C 75.949 70.643 76.103 70.818 76.259 70.989 C 76.416 71.16 76.575 71.327 76.738 71.49 C 76.9 71.652 77.065 71.809 77.233 71.962 C 77.401 72.114 77.571 72.262 77.745 72.404 C 77.918 72.546 78.094 72.682 78.273 72.813 C 78.452 72.943 78.633 73.068 78.818 73.186 C 79.157 73.414 79.501 73.634 79.849 73.845 C 80.197 74.055 80.549 74.257 80.906 74.45 C 81.262 74.643 81.623 74.827 81.986 75.004 C 82.35 75.18 82.717 75.348 83.088 75.509 C 83.458 75.669 83.832 75.822 84.209 75.967 C 84.585 76.112 84.965 76.249 85.347 76.38 C 85.729 76.51 86.114 76.634 86.501 76.75 C 86.887 76.867 87.276 76.976 87.667 77.08 C 87.726 77.094 87.784 77.109 87.841 77.124 C 87.899 77.139 87.955 77.153 88.012 77.168 C 88.068 77.183 88.124 77.198 88.179 77.212 C 88.235 77.227 88.29 77.242 88.346 77.257 C 88.401 77.271 88.457 77.286 88.512 77.301 C 88.567 77.316 88.623 77.33 88.679 77.345 C 88.735 77.36 88.792 77.375 88.85 77.389 C 88.907 77.404 88.965 77.419 89.024 77.434 C 89.024 77.434 89.012 77.441 88.988 77.454 C 88.963 77.467 88.927 77.486 88.878 77.51 C 88.829 77.533 88.768 77.56 88.694 77.59 C 88.62 77.619 88.533 77.651 88.434 77.685 C 88.334 77.718 88.222 77.753 88.096 77.786 C 87.971 77.819 87.832 77.852 87.68 77.882 C 87.528 77.912 87.363 77.941 87.184 77.965 C 87.005 77.989 86.812 78.009 86.606 78.024 C 87.056 78.776 87.524 79.51 87.999 80.222 C 88.474 80.934 88.956 81.623 89.433 82.288 C 89.91 82.952 90.382 83.59 90.838 84.2 C 91.294 84.809 91.733 85.389 92.144 85.937 C 92.555 86.484 92.938 86.999 93.281 87.478 C 93.624 87.956 93.928 88.398 94.18 88.801 C 94.432 89.203 94.633 89.566 94.77 89.885 C 94.908 90.204 94.983 90.479 94.983 90.708 C 94.998 90.892 95.009 91.074 95.017 91.253 C 95.025 91.432 95.029 91.608 95.032 91.781 C 95.034 91.954 95.034 92.125 95.032 92.293 C 95.03 92.46 95.025 92.625 95.02 92.788 C 95.014 92.95 95.008 93.109 95 93.266 C 94.992 93.423 94.984 93.577 94.975 93.728 C 94.966 93.879 94.957 94.028 94.949 94.174 C 94.94 94.319 94.931 94.462 94.924 94.602 C 94.917 94.734 94.911 94.87 94.909 95.008 C 94.907 95.147 94.909 95.288 94.92 95.433 C 94.93 95.578 94.949 95.726 94.979 95.877 C 95.009 96.029 95.051 96.184 95.108 96.343 C 95.165 96.501 95.238 96.664 95.329 96.83 C 95.42 96.996 95.53 97.166 95.662 97.34 C 95.794 97.514 95.949 97.693 96.13 97.875 C 96.31 98.058 96.517 98.245 96.753 98.437 C 96.967 98.606 97.183 98.771 97.402 98.931 C 97.622 99.091 97.845 99.246 98.074 99.395 C 98.303 99.543 98.538 99.686 98.781 99.823 C 99.023 99.96 99.273 100.09 99.533 100.214 C 99.793 100.337 100.063 100.454 100.344 100.563 C 100.625 100.673 100.918 100.774 101.225 100.868 C 101.531 100.961 101.852 101.047 102.187 101.124 C 102.523 101.201 102.874 101.269 103.243 101.328 C 103.508 101.365 103.794 101.389 104.094 101.398 C 104.394 101.406 104.709 101.4 105.032 101.376 C 105.355 101.352 105.687 101.31 106.021 101.249 C 106.355 101.188 106.692 101.107 107.026 101.004 C 107.36 100.9 107.69 100.775 108.012 100.625 C 108.333 100.475 108.645 100.301 108.943 100.1 C 109.24 99.899 109.522 99.671 109.784 99.414 C 110.045 99.158 110.285 98.872 110.499 98.555 C 110.565 98.451 110.652 98.367 110.754 98.295 C 110.856 98.224 110.973 98.165 111.101 98.115 C 111.228 98.065 111.365 98.023 111.508 97.983 C 111.65 97.944 111.797 97.907 111.945 97.869 C 112.092 97.83 112.24 97.789 112.382 97.741 C 112.525 97.692 112.662 97.636 112.789 97.568 C 112.916 97.499 113.034 97.418 113.136 97.318 C 113.237 97.219 113.324 97.102 113.39 96.962 C 113.523 96.659 113.661 96.331 113.803 95.984 C 113.945 95.636 114.091 95.269 114.239 94.89 C 114.387 94.51 114.537 94.117 114.688 93.718 C 114.838 93.319 114.989 92.913 115.138 92.508 C 115.288 92.102 115.436 91.696 115.58 91.297 C 115.725 90.898 115.867 90.505 116.004 90.126 C 116.141 89.746 116.273 89.379 116.398 89.031 C 116.524 88.684 116.642 88.355 116.753 88.053 L 116.753 88.038 L 116.753 88.023 L 116.753 88.008 L 116.753 87.994 L 116.753 87.979 L 116.753 87.964 L 116.753 87.949 L 116.753 87.935 Z M 108.847 44.219 C 108.847 44.219 108.882 44.268 108.946 44.358 C 109.011 44.448 109.104 44.58 109.221 44.744 C 109.338 44.908 109.477 45.106 109.634 45.33 C 109.792 45.554 109.966 45.803 110.152 46.07 C 110.339 46.337 110.536 46.623 110.74 46.918 C 110.943 47.214 111.152 47.519 111.361 47.828 C 111.57 48.136 111.779 48.447 111.981 48.752 C 112.184 49.058 112.38 49.358 112.564 49.646 C 112.564 49.646 112.631 49.625 112.747 49.582 C 112.864 49.539 113.031 49.475 113.232 49.39 C 113.434 49.304 113.67 49.197 113.924 49.068 C 114.178 48.938 114.451 48.787 114.725 48.614 C 115 48.44 115.277 48.245 115.54 48.027 C 115.804 47.809 116.053 47.569 116.273 47.307 C 116.493 47.044 116.683 46.759 116.828 46.451 C 116.972 46.143 117.071 45.812 117.107 45.458 C 116.569 45.244 116.036 45.064 115.516 44.913 C 114.996 44.762 114.488 44.64 114 44.542 C 113.512 44.444 113.044 44.37 112.602 44.314 C 112.16 44.258 111.744 44.221 111.362 44.197 C 110.981 44.173 110.633 44.162 110.325 44.16 C 110.018 44.157 109.751 44.163 109.532 44.172 C 109.313 44.18 109.142 44.192 109.025 44.202 C 108.909 44.211 108.847 44.219 108.847 44.219 Z M 74.167 24.05 C 68.65 24.05 63.72 24.088 59.318 24.242 C 54.917 24.395 51.042 24.665 47.634 25.127 C 44.227 25.59 41.286 26.246 38.75 27.173 C 36.215 28.101 34.085 29.299 32.3 30.845 C 30.516 32.391 29.076 34.287 27.919 36.608 C 26.763 38.93 25.891 41.677 25.242 44.929 C 24.593 48.181 44.435 54.665 27.328 56.896 C 23.019 57.458 26.496 66.152 26.496 71.73 C 26.496 77.308 23.809 81.595 24.323 86.042 C 24.838 90.489 25.597 94.473 26.574 98.2 C 27.552 101.928 28.749 105.398 30.14 108.817 C 31.53 112.236 33.458 113.778 37.048 117.989 C 40.638 122.2 40.236 125.231 44.173 127.671 C 48.111 130.111 52.368 132.409 55.397 135.359 C 58.427 138.309 71.076 140.163 73.501 143.029 C 75.925 145.895 68.504 146.993 74.021 146.993 C 79.539 146.993 77.735 140.534 82.123 139.588 C 86.512 138.642 87.861 134.791 91.245 132.97 C 94.63 131.149 100.274 126.808 102.78 124.183 C 105.286 121.558 106.86 121.697 108.614 118.339 C 110.368 114.981 112.441 114.423 113.568 110.403 C 114.695 106.384 119.25 108.038 119.875 103.427 C 120.501 98.817 123.181 94.94 123.431 89.811 C 123.681 84.681 123.775 79.309 123.775 73.731 C 123.775 68.153 121.355 62.551 121.119 58.142 C 120.884 53.734 122.833 50.518 122.231 47.143 C 121.63 43.769 120.814 40.877 119.718 38.402 C 118.621 35.927 117.245 33.868 115.524 32.157 C 113.803 30.447 111.737 29.085 109.262 28.004 C 106.786 26.923 103.901 26.123 100.541 25.537 C 97.181 24.952 93.347 24.58 88.973 24.354 C 84.599 24.129 79.685 24.05 74.167 24.05 Z" style="stroke-width: 1; fill: rgb(107, 29, 69);" clip-path="url(#clip-1)"/>
  <path d="M 73.803 20.207 C 44.659 20.207 23.656 32.36 23.656 32.36 L 23.656 92.419 C 23.656 101.092 26.842 109.233 33.449 117.375 C 38.287 123.275 44.718 129.056 54.393 136.136 L 73.803 150 L 93.154 136.136 C 102.83 129.115 109.319 123.334 114.098 117.375 C 120.706 109.233 123.892 101.092 123.892 92.419 L 123.892 32.36 C 123.892 32.36 102.889 20.207 73.744 20.207 L 73.803 20.207 Z M 30.499 43.747 C 30.499 43.806 30.499 43.865 30.499 43.924 L 30.499 38.378 C 44.187 31.416 58.995 27.935 73.862 27.935 C 88.729 27.935 81.414 28.171 85.131 28.584 C 64.777 29.469 43.184 37.08 30.499 48.23 L 30.499 43.747 Z M 73.862 139.971 L 58.523 128.997 C 43.302 117.906 30.558 105.989 30.558 90.826 L 30.558 76.903 C 32.21 90.59 44.423 101.623 58.523 111.888 L 85.839 131.416 L 73.862 139.971 Z M 116.753 88.053 C 115.868 90.472 114.452 94.543 113.39 96.962 C 112.859 98.083 111.03 97.729 110.499 98.555 C 108.788 101.092 105.367 101.623 103.243 101.328 C 100.293 100.856 98.464 99.794 96.753 98.437 C 94.865 96.903 94.865 95.664 94.924 94.602 C 94.983 93.481 95.101 92.183 94.983 90.708 C 94.983 88.879 90.204 84.042 86.606 78.024 C 88.257 77.906 89.024 77.434 89.024 77.434 C 88.552 77.316 88.139 77.198 87.667 77.08 C 84.541 76.254 81.532 75.015 78.818 73.186 C 77.343 72.242 76.045 70.885 74.924 69.351 C 73.626 67.345 72.033 63.511 73.626 58.201 C 71.561 61.564 71.561 65.989 73.449 69.764 C 68.139 76.49 68.08 88.997 94.334 107.522 L 105.367 115.428 C 102.24 118.673 98.582 121.859 94.688 124.868 L 58.464 98.968 C 43.774 88.289 31.325 76.785 30.499 62.331 C 34.924 49.941 50.145 35.251 87.019 30.059 L 87.903 29.941 C 90.204 29.705 92.446 29.705 94.688 30.177 C 96.753 30.649 98.818 31.18 100.824 31.77 C 101.06 31.829 101.237 31.888 101.414 31.947 C 106.723 33.599 111.974 35.664 117.048 38.26 C 115.75 41.977 106.841 42.862 105.603 42.98 C 106.782 44.455 109.378 47.935 112.859 53.54 C 114.393 56.077 115.514 58.496 115.986 59.558 C 116.163 59.971 116.222 60.384 116.163 60.856 C 115.986 61.859 115.514 63.57 114.039 65.162 C 114.039 65.162 116.34 80.384 117.107 85.458 C 117.225 86.284 117.107 87.109 116.753 87.935 L 116.753 88.053 Z M 117.107 45.458 C 116.812 48.289 112.564 49.646 112.564 49.646 C 111.089 47.345 108.847 44.219 108.847 44.219 C 108.847 44.219 112.8 43.747 117.107 45.458 Z" style="fill: rgb(253, 187, 42); stroke-width: 1;" clip-path="url(#clip0_4487_41)"/>
  <path d="M 98.582 55.133 C 98.228 54.543 97.874 54.012 97.461 53.717 C 95.809 52.537 93.449 50.826 91.384 50.354 C 91.207 51.593 92.151 54.071 92.918 54.897 C 93.685 55.782 97.107 55.782 97.107 55.782 L 100.529 58.142 L 98.641 55.133 L 98.582 55.133 Z" fill="#FDBB2A" clip-path="url(#clip0_4487_41)" style="stroke-width: 1;"/>
  <path d="M 111.03 64.749 C 112.682 62.979 113.154 61.504 113.272 60.678 C 113.272 60.442 113.272 60.206 113.213 59.97 C 112.741 58.731 110.794 54.484 104.127 48.997 C 97.402 43.51 89.732 42.094 89.732 42.094 C 89.732 42.094 100.824 45.221 108.552 59.852 C 108.67 60.088 108.729 60.383 108.67 60.678 C 108.198 62.448 106.841 63.451 106.841 63.451 C 106.841 63.451 105.189 62.153 103.184 61.091 C 107.549 66.519 108.257 69.115 109.083 73.186 L 110.086 79.085 C 110.322 80.442 111.03 80.088 111.207 81.622 C 110.617 81.091 109.673 81.091 109.673 81.091 C 108.552 80.973 106.487 81.209 105.307 83.097 C 104.068 85.162 104.776 87.699 104.776 87.699 C 104.776 87.699 105.012 84.572 107.195 83.451 C 108.729 82.684 110.44 82.979 111.738 83.982 C 113.213 85.103 114.098 85.103 114.098 85.103 L 111.03 64.808 L 111.03 64.749 Z" fill="#FDBB2A" clip-path="url(#clip0_4487_41)" style="stroke-width: 1;"/>
  <path d="M 34.924 15.723 C 34.924 14.189 34.098 13.481 33.154 13.363 C 33.803 12.714 34.629 11.534 34.629 10.118 C 34.629 7.876 33.272 7.109 30.912 7.994 C 28.434 8.938 26.016 10 23.656 11.121 C 23.656 12.773 23.656 14.366 23.656 16.017 C 23.774 14.484 24.423 13.717 25.603 13.186 C 25.721 13.186 29.083 11.652 30.617 11.062 C 31.443 10.767 31.856 10.944 31.856 11.652 C 31.856 12.36 31.384 12.891 30.617 13.245 C 29.024 13.894 27.431 14.602 25.839 15.31 C 24.364 16.017 23.656 17.964 23.656 19.262 C 23.656 20.973 23.656 22.684 23.656 24.395 C 26.134 23.156 28.67 21.976 31.207 20.914 C 33.567 19.911 34.983 18.082 34.983 15.782 L 34.924 15.723 Z M 26.37 20.029 C 26.37 19.262 26.37 18.436 26.37 17.669 C 27.844 16.962 29.378 16.313 30.853 15.723 C 31.62 15.428 32.092 15.723 32.092 16.372 C 32.092 17.08 31.679 17.728 30.853 18.023 C 29.319 18.672 27.844 19.321 26.37 20.029 Z" fill="#FDBB2A" clip-path="url(#clip0_4487_41)" style="stroke-width: 1;"/>
  <path d="M 40.057 17.552 C 40.057 16.136 40.057 14.779 40.057 13.363 C 41.06 13.068 42.063 12.773 43.066 12.478 C 43.833 13.658 44.659 14.838 45.426 16.018 C 46.606 15.723 47.726 15.428 48.906 15.133 C 48.021 13.835 47.137 12.537 46.193 11.298 C 47.726 10.295 48.611 8.761 48.611 6.932 C 48.611 4.277 46.842 3.156 44.128 3.805 C 41.768 4.395 39.408 5.103 37.048 5.87 C 37.048 10.118 37.048 14.366 37.048 18.614 C 38.051 18.26 39.054 17.906 39.998 17.611 L 40.057 17.552 Z M 44.01 6.696 C 45.072 6.401 45.662 6.814 45.662 7.699 C 45.662 8.525 45.072 9.233 44.01 9.528 C 42.712 9.882 41.355 10.236 40.057 10.649 C 40.057 9.705 40.057 8.761 40.057 7.817 C 41.355 7.404 42.712 7.05 44.01 6.696 Z" fill="#FDBB2A" clip-path="url(#clip0_4487_41)" style="stroke-width: 1;"/>
  <path d="M 53.803 14.071 C 53.803 9.941 53.803 5.812 53.803 1.682 C 52.8 1.859 51.738 2.036 50.735 2.213 C 50.735 6.343 50.735 10.472 50.735 14.661 C 51.738 14.425 52.741 14.248 53.803 14.071 Z" fill="#FDBB2A" clip-path="url(#clip0_4487_41)" style="stroke-width: 1;"/>
  <path d="M 62.299 10.295 C 60.706 10.472 58.7 10.177 57.343 8.938 C 56.753 9.882 56.163 10.826 55.514 11.77 C 56.694 12.95 59.644 13.363 62.063 13.068 C 65.602 12.714 68.139 11.239 68.139 8.407 C 68.139 5.575 65.484 5.28 62.889 5.162 C 60.234 5.162 59.408 5.162 59.408 4.454 C 59.408 3.805 60.234 3.333 61.709 3.156 C 63.538 2.979 65.189 3.451 66.133 4.395 C 66.723 3.569 67.372 2.743 67.962 1.976 C 66.782 0.855 64.482 0.147 61.945 0.383 C 58.582 0.737 56.281 2.625 56.281 5.221 C 56.281 7.817 58.523 8.053 61.119 8.053 C 63.951 8.053 64.836 8.112 64.836 8.938 C 64.836 9.646 63.774 10.059 62.24 10.236 L 62.299 10.295 Z" fill="#FDBB2A" clip-path="url(#clip0_4487_41)" style="stroke-width: 1;"/>
  <path d="M 87.313 10.767 C 89.26 11.003 91.266 11.298 93.213 11.652 C 93.567 12.478 93.862 13.304 94.216 14.189 C 95.337 14.425 96.458 14.602 97.579 14.897 C 95.75 10.354 93.921 5.87 92.092 1.504 C 90.912 1.327 89.732 1.15 88.552 1.032 C 86.723 4.926 84.836 8.82 83.007 12.773 C 84.128 12.891 85.189 12.95 86.31 13.068 C 86.664 12.36 87.018 11.593 87.313 10.885 L 87.313 10.767 Z M 90.263 4.454 C 90.853 5.87 91.443 7.286 92.033 8.761 C 90.853 8.584 89.673 8.407 88.493 8.23 C 89.083 6.991 89.673 5.693 90.263 4.454 Z" fill="#FDBB2A" clip-path="url(#clip0_4487_41)" style="stroke-width: 1;"/>
  <path d="M 102.063 7.817 C 104.187 11.062 106.31 14.425 108.434 17.846 C 109.319 18.141 110.204 18.436 111.03 18.731 C 111.03 14.484 111.03 10.236 111.03 5.988 C 110.086 5.693 109.083 5.339 108.139 5.103 C 108.139 7.699 108.139 10.295 108.139 12.891 C 106.133 9.646 104.128 6.519 102.122 3.451 C 101.119 3.215 100.116 2.979 99.113 2.743 C 99.113 6.873 99.113 11.062 99.113 15.192 C 100.116 15.428 101.06 15.664 102.063 15.9 C 102.063 13.186 102.063 10.472 102.063 7.758 L 102.063 7.817 Z" fill="#FDBB2A" clip-path="url(#clip0_4487_41)" style="stroke-width: 1;"/>
  <path d="M 78.287 12.36 C 80.824 12.478 82.24 11.298 82.24 9.115 C 82.24 7.64 81.414 6.637 80.352 6.106 C 81.06 5.811 81.886 4.985 81.886 3.628 C 81.886 1.445 80.47 0.147 77.933 0.088 C 75.337 -0.029 72.682 -0.029 70.086 0.088 C 70.086 4.159 70.086 8.23 70.086 12.36 C 72.8 12.301 75.514 12.301 78.169 12.36 L 78.287 12.36 Z M 77.756 2.802 C 78.582 2.802 79.113 3.215 79.113 3.923 C 79.113 4.631 78.641 4.926 77.756 4.926 C 76.222 4.926 74.747 4.867 73.213 4.867 C 73.213 4.159 73.213 3.451 73.213 2.802 C 74.747 2.802 76.222 2.802 77.756 2.861 L 77.756 2.802 Z M 77.992 7.404 C 78.818 7.404 79.29 7.876 79.29 8.584 C 79.29 9.233 78.818 9.646 77.992 9.646 C 76.399 9.587 74.747 9.587 73.154 9.587 C 73.154 8.82 73.154 8.112 73.154 7.345 C 74.747 7.345 76.399 7.345 77.992 7.404 Z" fill="#FDBB2A" clip-path="url(#clip0_4487_41)" style="stroke-width: 1;"/>
  <path d="M 123.951 21.269 C 121.532 20.03 119.054 18.909 116.517 17.906 C 116.517 17.198 116.517 16.49 116.517 15.782 C 118.759 16.667 120.942 17.67 123.125 18.732 L 123.125 15.782 C 120.942 14.779 118.759 13.776 116.517 12.891 C 116.517 12.242 116.517 11.593 116.517 10.944 C 118.995 11.947 121.473 13.009 123.951 14.189 C 123.951 13.186 123.951 12.183 123.951 11.121 C 120.588 9.528 117.166 8.112 113.685 6.873 C 113.685 11.121 113.685 15.428 113.685 19.676 C 117.166 21.033 120.588 22.567 124.01 24.277 C 124.01 23.275 124.01 22.272 124.01 21.21 L 123.951 21.269 Z" fill="#FDBB2A" clip-path="url(#clip0_4487_41)" style="stroke-width: 1;"/>
  <defs>
    <clipPath id="clip0_4487_41">
      <rect width="150" height="150" fill="white"/>
    </clipPath>
    <clipPath id="clip-1">
      <rect width="150" height="150" fill="white" style="stroke-width: 1;"/>
    </clipPath>
  </defs>
</svg>