<?xml version="1.0" encoding="UTF-8" standalone="no"?>
<!-- Created with Inkscape (http://www.inkscape.org/) -->

<svg
   xmlns:dc="http://purl.org/dc/elements/1.1/"
   xmlns:cc="http://creativecommons.org/ns#"
   xmlns:rdf="http://www.w3.org/1999/02/22-rdf-syntax-ns#"
   xmlns:svg="http://www.w3.org/2000/svg"
   xmlns="http://www.w3.org/2000/svg"
   version="1.1"
   width="118.95138"
   height="171.56557"
   id="svg4711">
  <defs
     id="defs4713">
    <clipPath
       id="clipPath724">
      <path
         d="m 426.884,90.399 61.881,0 0,89.252 -61.881,0 0,-89.252 z"
         id="path726" />
    </clipPath>
  </defs>
  <metadata
     id="metadata4716">
    <rdf:RDF>
      <cc:Work
         rdf:about="">
        <dc:format>image/svg+xml</dc:format>
        <dc:type
           rdf:resource="http://purl.org/dc/dcmitype/StillImage" />
        <dc:title></dc:title>
      </cc:Work>
    </rdf:RDF>
  </metadata>
  <g
     transform="translate(-387.03907,-508.00857)"
     id="layer1">
    <g
       transform="matrix(0.81093331,0,0,0.81093331,73.176196,128.48483)"
       id="g5399">
      <path
         d="m 533.19263,468.00857 -146.15356,0 0,139.77236 c 0,6.8861 1.48389,13.65131 4.409,20.11547 2.83503,6.26978 6.87424,11.90192 12.00148,16.73523 10.03166,9.46749 21.3552,16.99598 34.60827,23.02398 l 4.38529,1.91767 c 6.30061,2.71889 15.82025,6.8221 17.49614,9.33713 l 0.4409,0.66372 0.44564,-0.66372 c 1.6759,-2.51503 11.19317,-6.61824 17.49377,-9.33713 l 4.3853,-1.91767 c 13.25307,-6.028 24.57661,-13.55649 34.60826,-23.02398 5.12724,-4.83331 9.16408,-10.46545 12.00149,-16.73523 2.92748,-6.46416 4.409,-13.22937 4.409,-20.11547 l 0,-139.77236 -0.53098,0 z"
         id="path730"
         style="fill:#e2231b;fill-opacity:1;fill-rule:nonzero;stroke:none" />
      <path
         d="m 532.65668,469.07645 0,138.7033 c 0,6.73439 -1.4507,13.35263 -4.31181,19.6793 -2.78051,6.14416 -6.73676,11.66252 -11.76207,16.39863 -9.94632,9.38216 -21.17505,16.84665 -34.32145,22.82961 l -4.36396,1.90819 c -6.71542,2.8943 -14.96689,6.45231 -17.51747,9.1712 -2.54821,-2.71889 -10.79731,-6.2769 -17.5151,-9.1712 l -4.36396,-1.90819 c -13.1464,-5.98296 -24.37513,-13.44745 -34.31908,-22.82961 -5.02531,-4.73611 -8.98392,-10.25447 -11.7597,-16.39863 -2.86585,-6.32667 -4.31418,-12.94491 -4.31418,-19.6793 l 0,-138.7033 144.54878,0 z"
         id="path734"
         style="fill:#ffffff;fill-opacity:1;fill-rule:nonzero;stroke:none" />
      <path
         d="m 460.38726,645.38969 c 1.27529,-1.91768 4.40663,-3.65757 14.37665,-8.03813 9.6998,-4.2644 19.08433,-10.10277 28.46412,-18.95158 6.54712,-6.1726 10.24499,-14.38613 10.24499,-22.60204 l 0,-85.09604 -106.17627,0 0,85.09604 c 0,8.21591 3.70025,16.42944 10.245,22.60204 9.37979,8.84881 18.76432,14.68718 28.46412,18.95158 9.97239,4.38056 13.09899,6.12045 14.38139,8.03813"
         id="path738"
         style="fill:#e2231b;fill-opacity:1;fill-rule:nonzero;stroke:none" />
      <path
         d="m 474.12627,531.53157 c 0.32001,0.4812 0.53098,1.49337 0.64002,2.66436 1.28003,-1.06432 2.13338,-2.55769 3.09104,-3.99417 0.53334,0.31764 0.90787,0.42194 1.43885,0.42194 l 0,-0.47646 c 0.91024,-0.53335 1.28003,-1.49574 1.33218,-1.9722 0.0522,-0.4812 -0.31764,-0.64238 -0.69217,-0.8012 -0.37216,-0.16119 -1.22551,-0.79884 -2.13338,-1.75649 -1.27767,2.07649 -2.60985,4.58441 -3.67654,5.91422 m -15.34853,2.61221 c 0.63765,0.90551 1.16862,1.17337 1.91531,1.49574 0.42667,-1.86552 1.60004,-3.41578 3.03889,-4.53463 -0.5855,-1.81101 -0.9624,-4.3687 -0.9624,-6.61112 -0.85098,0.69216 -2.18079,1.17336 -3.29963,1.22788 0.4243,3.94439 -0.0545,6.76757 -0.69217,8.42213 m -32.33977,-12.96862 c 0.42431,1.34878 0.63765,2.41547 0.56654,2.76867 -0.0711,0.35793 -0.14223,1.28003 0.5689,1.21129 0.71113,-0.0735 2.56006,-0.71113 3.47979,-0.92684 0.92684,-0.21097 4.62234,-1.06433 6.32667,-1.34878 0.21571,-1.35114 0.35794,-2.69992 0.0735,-3.05785 -0.28445,-0.35319 -0.85336,-0.56653 -1.49337,0 -0.64239,0.5689 -1.56449,0.99558 -2.63118,0.71113 -1.06432,-0.28445 -1.99116,-0.63765 -3.41105,-0.63765 -1.42225,0 -2.84214,0.77987 -3.47979,1.28003 m -2.20687,1.34878 c 0.64239,1.77782 0.92684,2.7734 0.21571,4.97316 1.70671,0.0735 3.90647,-0.28445 5.40221,-0.49542 1.48863,-0.21571 4.90442,-0.71113 7.03544,-0.78461 0.14222,-0.56654 0.28445,-1.34641 0.35319,-1.98879 -2.76866,0.71113 -5.3311,1.42225 -7.38863,1.56448 -2.06464,0.14223 -3.1266,0.21334 -3.83772,-0.14223 -0.71113,-0.35319 -0.64239,-0.49541 -0.35794,-0.99558 0.28445,-0.49542 0.35794,-1.20654 0.28445,-1.70433 -0.0687,-0.49542 -0.21097,-0.99558 -0.42667,-1.28004 -0.49542,0.35794 -0.9221,0.64239 -1.28004,0.85336 m -6.21526,32.19754 c -1.31559,-1.3867 -2.34673,-2.59562 -2.98437,-3.34231 -0.64239,-0.74431 -1.03351,-1.34877 -1.56923,-1.45544 -0.53097,-0.10904 -1.48863,-0.1446 -2.19976,0.21097 -0.71112,0.35793 -1.10462,1.17336 -1.49337,2.23768 -0.39112,1.06907 -1.31558,2.70229 -2.13338,3.91121 0.5689,2.88007 0.46223,4.58441 0.0379,6.96432 0.9932,0.85336 1.20417,1.6356 0.85098,2.73548 0.35319,0.28445 0.67557,0.50016 0.85335,1.17573 0.17779,0.6732 -0.17778,1.45782 -0.5689,2.27324 -0.38875,0.81543 -1.17336,2.34673 -1.66878,3.16216 -0.50016,0.81779 -0.92447,1.42225 -1.70434,1.45781 -0.78461,0.0332 -0.99558,-0.53572 -1.38907,-1.31559 -0.39112,-0.78224 -0.96003,-1.98879 -1.34878,-3.01992 -0.81542,-0.10667 -0.92446,-0.60446 -1.09988,-1.06907 -0.18015,-0.45749 -0.32237,-0.85098 -0.25126,-1.38433 0.0711,-0.53097 0.64002,-1.41989 0.81543,-1.81101 0.17778,-0.38875 -0.2489,-0.92446 -0.56417,-1.17336 -0.58786,-0.45512 -0.96239,-1.13781 -1.17336,-1.70434 -0.21571,-0.5689 -0.21571,-1.84893 -0.14222,-2.91563 0.0687,-1.06432 0.35319,-1.3867 1.2421,-2.59088 0.88891,-1.21128 3.1266,-5.43776 4.40663,-7.89115 1.27766,-2.45103 1.49337,-3.90884 1.6356,-4.7622 0.14222,-0.85335 0.45986,-0.99558 0.85335,-1.10225 0.38875,-0.10904 0.85098,-0.14222 1.45781,-0.39349 0.59972,-0.24652 1.38433,-0.6732 2.23769,-0.63764 1.27766,0.0545 1.52656,0.63764 2.19976,1.06906 0.67794,0.42194 2.34672,1.42226 4.15773,2.52214 1.81575,1.09988 3.23801,1.98879 4.51567,3.26882 0.5689,-0.32238 1.34877,-0.64239 2.20213,-1.03114 0.85335,-0.39112 1.53129,-0.85335 1.98879,-1.42226 0.4646,-0.5689 0.53571,-1.34877 0.74668,-2.98437 0.21571,-1.63559 0.56891,-3.76898 1.21129,-5.22679 0.63765,-1.45308 2.19976,-2.59088 4.44219,-4.6176 2.23768,-2.02435 2.55769,-3.83535 2.73547,-6.0043 -1.45544,-0.0735 -4.86649,0.24653 -5.82888,0.28446 -0.96003,0.0355 -4.5133,0.10429 -5.4354,0.14222 -0.92447,0.0356 -1.67115,0.21097 -1.99353,-0.28445 -0.32001,-0.50016 -0.14222,-1.10225 0.14223,-2.02672 0.28445,-0.92209 0.35793,-1.81101 0.18015,-2.91088 -0.85336,0.49542 -1.35352,0.49542 -2.31117,0.63764 -0.95765,0.14223 -1.38433,-0.21571 -1.77545,-0.63764 -0.39349,-0.43142 -0.70876,-1.31559 -0.85098,-1.92242 -0.14223,-0.60446 0.10429,-0.95766 0.28445,-1.17336 0.28208,0.39112 0.56653,0.53334 0.99321,0.53334 0.42667,0 0.49542,-0.5689 0.60209,-1.06432 0.10904,-0.50016 0.35793,-0.46223 0.82016,-0.46223 0.4575,0 0.49542,-0.39113 0.28446,-0.64239 -0.21571,-0.24653 -0.53572,-0.60209 -1.03114,-0.77987 -0.49542,-0.17778 -0.92684,-0.0356 -1.10225,0.24889 -0.17778,0.28445 -0.56653,0.81543 -0.85098,1.13544 -0.28446,0.32238 -0.64239,0.71113 -0.9624,0.74905 -0.31764,0.0356 -0.96002,-0.35556 -1.42226,-0.49779 -0.45986,-0.14222 -0.77987,-0.10904 -0.92209,-0.10904 -0.14223,0 -0.32001,0.0379 -0.38875,-0.21096 -0.0735,-0.25127 -0.21571,-0.53572 -0.25127,-1.13781 -0.0332,-0.60446 0.0356,-1.56211 0.0711,-2.06227 0.0332,-0.4575 -0.14459,-0.76091 -0.25126,-0.9221 -0.24653,-0.39349 -0.21097,-0.56653 0.0379,-0.92447 0.38638,-0.54994 1.56212,-1.2421 2.91563,-2.06227 1.34641,-0.8178 3.16216,-1.95324 4.29996,-2.73311 1.13544,-0.78461 2.05753,-1.35351 2.73548,-1.70671 0.67557,-0.35793 1.34877,-0.42904 1.63322,-0.46223 0.28445,-0.0356 0.17778,-0.28445 0.28445,-0.78461 0.14934,-0.69928 1.17337,-1.17336 2.34673,-1.63086 1.17099,-0.4646 2.76866,-1.10462 4.29996,-1.90345 0.6969,-0.36505 0.63764,-0.99084 0.60209,-1.26107 -0.0522,-0.42668 -0.0332,-0.86995 0.0735,-1.13781 0.1043,-0.26548 0.49542,-0.64001 0.92447,-0.96002 0.15645,0.15882 0.42668,0.37453 0.84861,0.69454 0.43142,0.31763 0.74669,0.63764 1.22788,1.44122 1.60004,-0.69691 2.18791,-2.08124 2.88008,-3.30675 1.91767,1.81101 1.70433,3.51772 1.64981,4.63656 0.90788,-0.47883 2.02672,-0.85336 2.88008,-0.90788 0.85335,-0.0521 2.23768,0.37453 2.8777,0.37453 -0.21334,0.58787 -0.80121,0.85336 -1.33218,1.22551 1.92004,0.0545 4.05106,0.53572 4.90441,1.54789 0.85336,1.01455 1.81101,1.70671 2.66437,2.0765 0.85335,0.37216 2.08123,0.64239 2.61221,0.85335 0.53335,0.21571 0.85335,0.53335 1.33455,0.96003 0.47646,0.4243 0.79884,1.01217 1.01217,1.27766 0.21097,0.27023 0.63765,0.74668 0.79884,1.38907 -0.21097,-0.26549 -0.79884,-0.53572 -1.22551,-0.37453 0.21334,0.21334 0.31763,0.53098 0.42667,0.90551 -1.33218,-0.64002 -2.34672,-0.5855 -2.7734,-0.53098 -0.42667,0.0498 -0.48119,0.21097 -0.26549,0.37216 0.21097,0.15882 0.79884,0.79646 1.28004,1.38433 0.48119,0.58549 1.06432,1.49337 1.64981,2.13101 0.58787,0.64239 1.17337,0.3769 1.55027,0.32238 0.36978,-0.0521 1.01217,-0.16119 1.54315,-0.32238 -0.32001,0.8581 -1.22789,1.55027 -2.07887,2.40125 l 0.26549,0.42668 -0.21097,0.10667 c -0.21097,-0.21571 -0.42668,-0.37453 -0.79884,-0.74669 -0.37452,-0.37216 -0.64238,-0.16119 -0.64238,0.21334 0,1.13069 0.69216,2.93222 1.65219,3.03652 0.96239,0.10904 2.7734,-1.32981 4.31892,-2.50317 -0.0521,-0.37453 -0.10667,-0.95766 -0.0521,-1.54552 0.63764,-0.37453 1.86553,-1.0667 2.82555,-1.22789 0.95765,-0.16119 1.70434,0.10904 2.18554,0.16119 0.47645,0.0545 0.90313,0 0.90313,-0.37215 0,-0.3769 -0.63764,-0.90788 -1.64982,-1.38433 -1.72804,-0.82017 -2.1879,-1.38908 -3.41105,-3.09579 0.37216,-1.11884 1.27767,-2.76866 2.02198,-3.83772 l 0.58787,0.16119 c 0.9055,-0.69217 0.53571,-1.54552 1.49337,-2.61221 0.70639,-0.78699 1.86552,-1.60004 3.7832,-1.65219 l 0.21571,-1.22789 c -3.57224,0.3769 -3.3589,-2.23768 -3.3589,-3.24985 0,-1.01218 0.58313,-2.77341 2.13339,-2.77341 1.70434,0 2.76866,1.28241 4.31418,1.17337 1.22551,-0.083 2.18791,-0.47646 3.57224,-0.31764 1.3867,0.15645 2.55769,1.06432 3.52009,2.13338 0.95765,1.06433 2.50317,3.29964 4.15773,4.89968 1.64982,1.60004 4.10321,1.60004 5.22205,1.76123 1.11885,0.16119 2.77341,0.16119 3.73106,0.69217 0.96002,0.53334 2.45339,2.08123 3.14556,3.20008 0.69216,1.11884 0.58787,2.23768 0.26549,3.19533 1.81575,0.85336 2.34672,3.03889 2.39887,4.05344 0.0545,1.01217 -0.47882,2.93222 -0.58312,3.14556 -0.10904,0.21334 -1.06907,1.01217 -2.02672,1.70434 -0.9624,0.69216 -1.92005,1.22551 -2.4534,1.33455 -0.53097,0.1043 -1.60003,-0.16119 -2.3965,-0.3769 -0.8012,-0.21097 -1.65456,-0.5855 -2.02672,-0.63765 -0.37452,-0.0545 -0.90787,0.26786 -1.17336,0.10667 -0.26549,-0.16119 -0.69216,-1.06669 -1.01454,-1.97219 -0.11141,-0.31764 -0.36979,-0.64002 -0.53098,-0.74669 -0.15882,-0.10667 -0.37453,-0.26549 -0.37453,-0.47645 0,-0.21571 0.32001,-0.43142 1.0667,-0.43142 0.74668,0 0.90787,-0.31764 1.11884,-0.90314 0.21571,-0.58786 -0.16119,-1.06669 -0.74669,-1.38907 -0.58786,-0.31764 -0.85335,-0.69216 -1.06432,-1.16862 -0.21571,-0.4812 -0.8012,-0.85335 -1.22788,-1.06906 -0.42668,-0.21097 -1.38433,0.0545 -2.39651,-0.26549 -1.01454,-0.32001 -1.65218,-1.06432 -1.81337,-1.92005 -0.15882,-0.85335 0.37215,-1.54552 1.11884,-1.91768 0,-0.69216 -0.32001,-1.11884 -0.63765,-1.22788 -0.32,-0.10667 -1.01217,0.16119 -1.81337,0.16119 -0.79884,0 -1.491,-0.79883 -1.81101,-1.59767 -0.32001,-0.8012 -0.10904,-2.08124 -1.33455,-3.84009 -1.22315,-1.75649 -3.46557,-2.18317 -6.12282,-2.18317 l -0.1043,2.34435 c 3.13845,0.32001 4.47063,2.77104 4.73612,4.95894 0.28445,2.34673 -0.74669,3.5675 -1.75886,4.74086 -0.16119,1.22788 -0.10667,1.92005 0.53097,2.61221 0.64239,0.69454 1.70671,0.4812 2.50792,0.42668 0,0.21571 -0.16119,0.3769 -0.3769,0.53335 0.80357,0.64001 1.39144,1.3867 1.70671,1.75886 0.32001,0.3769 0.21571,0.69216 0,1.01454 1.49337,1.64982 2.82792,3.67654 4.10795,5.96874 0.47646,0.0545 0.90314,0.1043 1.11647,0.42668 0.21334,0.32001 0.96003,1.60004 1.33219,2.3965 0.37452,0.80358 0.15881,1.38907 -0.21097,2.13576 -0.37216,0.74431 -1.22551,1.81101 -1.65456,2.07887 -0.42431,0.26548 -0.69217,-0.0569 -1.01455,-0.26786 -0.79883,1.01454 -2.28746,2.23768 -2.55769,2.50317 -0.26549,0.27023 -0.0498,0.74906 -0.0498,1.06906 0,0.32001 -0.16119,0.53098 -0.42905,0.69217 -0.26548,0.16119 -3.1977,1.92005 -5.1699,3.03889 0,1.44122 -0.90788,2.02672 -1.86553,2.66436 0.69217,2.23769 0.1043,3.03889 -0.58787,4.05344 2.29221,0.32001 4.7456,1.17336 5.86445,1.96982 1.11884,0.79884 1.06669,1.44123 0.95765,2.13339 1.49574,0.85335 2.6691,1.22314 4.10795,1.75886 1.01455,-0.53572 0.74432,-1.41278 0.45513,-2.10968 -0.36742,-0.88417 -1.4673,-1.78257 -2.32065,-2.47473 1.96982,-0.26549 3.62201,0.63764 4.90441,1.28003 1.27529,0.63765 2.60985,1.49337 4.3687,1.81101 1.76123,0.32001 3.78321,-0.21097 5.86445,-1.01217 2.07649,-0.79884 2.2922,-1.22552 2.88007,-1.65219 -0.53572,1.28003 -1.65456,3.09104 -2.50792,4.10321 -2.31353,2.75207 -5.19598,4.7456 -8.20642,5.80992 2.71651,2.72125 5.27657,6.40016 6.18445,9.43905 1.75649,-0.85335 2.66199,-2.02672 3.08867,-2.45339 0.42667,-0.42668 1.491,-1.43885 2.71888,-1.43885 1.22551,0 1.491,0.37215 2.02198,1.491 -1.48863,0.0545 -2.28747,0.42667 -3.46083,1.54789 -1.17336,1.11884 -1.54552,2.92985 -1.60004,4.84752 4.31892,1.17337 7.51426,3.89225 10.23788,7.25115 2.71415,3.3589 3.35653,7.09232 3.35653,9.32764 0,2.24005 -0.42668,4.68871 -0.90787,6.34327 -0.47883,1.65456 -0.79884,2.71888 -0.74432,4.53226 0.0521,1.80863 0.53335,2.982 1.22551,3.99417 -4.1601,-0.6329 -2.34672,-6.76995 -2.02671,-8.68762 0.32,-1.91768 0.74668,-4.42322 0.74668,-5.80756 0,-1.3867 -0.37453,-2.6691 -0.79883,-3.20245 0.21097,1.70671 0.15645,3.57224 -0.15882,5.48992 -0.32001,1.92479 -1.38907,5.81703 -1.70671,8.1045 -0.32001,2.29694 0,5.43776 1.59767,7.51426 1.59767,2.08598 3.14319,1.92479 4.53226,1.86553 -1.60004,2.6691 -4.15773,1.44359 -6.29112,0.32237 0.0522,0.85099 0.53335,2.02435 0.96002,2.92985 -2.2922,-0.9055 -6.50445,-2.982 -7.72997,-6.71305 -1.5384,-4.67923 -1.11884,-9.4912 0.0545,-14.81756 -1.17336,-2.34672 -2.45339,-2.98911 -3.46556,-2.98911 -1.01218,0 -2.45103,0.64239 -2.45103,2.71889 0,2.07649 0.5855,2.71888 0.80121,3.20008 0.21097,0.48119 1.54315,1.70433 2.12627,3.302 0.58787,1.60241 0.3769,2.61696 -0.47645,4.11033 0.21096,0.79409 0.79883,2.33961 1.17336,3.35178 0.37216,1.01455 0.37216,1.39145 0.10667,2.18791 -0.26786,0.80121 -1.11884,4.00129 -1.06907,7.94331 0.0545,3.94439 1.44123,9.16882 1.76123,10.92531 0.32001,1.7636 -0.58786,2.34909 -1.49574,3.30912 0.69691,2.02671 0.21571,2.92985 -0.31526,3.57223 -0.53335,0.63291 -1.49337,1.22315 -2.50792,1.48626 0,0.59024 -0.26549,1.49574 -0.47645,2.08598 -0.21571,0.58313 -0.69691,1.64745 -1.11885,2.71651 -1.06906,0.37453 -2.83029,0.90551 -4.58441,1.06433 -1.76123,0.16119 -2.82792,0 -3.30675,-0.64002 -0.48119,-0.64239 -0.16119,-1.86553 0.58787,-3.62202 0.74194,-1.75648 1.86553,-2.92985 3.03415,-3.36126 0.64239,-1.70434 1.54552,-2.97963 3.52246,-4.79538 -1.17574,-2.88007 -0.26786,-4.85464 0.58549,-6.55898 -0.27023,-3.94439 -0.8012,-8.15665 -1.81575,-11.24769 -1.01217,-3.08867 -1.75885,-3.3589 -2.98437,-3.94202 -0.63764,1.65456 -1.811,2.28746 -2.82318,2.66673 -1.01454,0.37216 -2.39887,0.56179 -3.51771,0.83202 -1.66168,0.39349 -2.31117,0.86758 -3.14319,1.5076 -0.69691,0.54045 -1.06907,1.44359 -1.70671,1.86552 -0.64002,0.43142 -1.17336,0.43142 -1.70908,0.75143 -0.53335,0.32238 -0.40772,0.91736 -0.90314,1.43648 -0.44564,0.46697 -0.74668,0.42905 -1.33455,0.53098 -0.58549,0.10904 -0.53334,0.59023 -0.53334,1.2824 0,0.69453 -0.0521,1.17573 -0.42431,1.49574 -0.3769,0.32001 -1.65456,0.58312 -2.34673,0.69216 -0.26785,0.37216 -0.37215,0.7941 -0.32237,1.49337 0.0545,0.69217 0.48119,1.06433 1.43885,1.75649 -1.96983,0.85336 -2.92985,-0.0498 -3.46083,-0.59023 -0.53572,-0.53098 -0.80121,-1.91768 -0.85335,-3.35179 -1.38671,0.69216 -1.5479,1.64745 -1.70908,2.49843 -0.15645,0.85336 -0.53098,0.80358 -1.54315,0.80358 -1.01455,0 -1.86553,-0.32238 -2.45103,-0.37216 -0.58549,-0.0521 -1.17336,-0.37216 -1.75886,0.21097 -0.7775,0.77276 -0.10904,1.38433 -0.64238,2.02671 -0.53098,0.64002 -1.54552,0.53098 -3.30438,0.64002 -3.29964,0.19675 -5.27658,-1.12121 -5.64873,-1.97457 -0.37216,-0.85335 0.21096,-1.43648 1.22314,-2.28746 1.01454,-0.85336 1.92242,-1.60478 2.6691,-1.81575 0.47646,-1.86553 3.46083,-1.86553 4.8499,-1.65456 1.38433,0.21808 2.23768,0.0593 2.92985,-0.58313 0.69217,-0.64001 0.8012,-1.59529 0.8012,-2.23768 0,-0.64239 0.15645,-0.91025 0.47883,-1.12121 -1.06432,-0.16119 -2.13338,-0.95529 -2.66436,-1.96983 -0.53335,0.0521 -1.11884,0 -2.23769,0.53335 -1.12358,0.53097 -0.85572,1.59529 -0.85572,2.71888 -0.47883,-0.0593 -1.59767,-0.43142 -1.91768,-1.17336 -0.42193,-0.98373 -0.10667,-2.34673 1.06432,-3.52009 1.17337,-1.17573 3.41342,-1.22551 5.3311,-1.11647 0.42668,-0.42905 1.11884,-0.74906 1.9722,-0.74906 2.02671,0 1.65456,0.74906 3.73105,0.74906 2.08124,0 3.36127,-1.23263 4.15774,-2.40599 -1.16863,-0.0498 -2.82319,1.01454 -4.58441,0.85335 -0.79647,-0.064 -1.22552,-0.58312 -1.491,-1.00506 -0.26549,-0.42904 -0.42431,-1.12358 -0.74669,-1.55263 -0.32001,-0.42193 -0.74669,-0.85335 -0.74669,-1.80864 0,-0.96002 0.99559,-2.93696 2.06228,-4.48248 -1.24448,-1.20181 -2.97726,-0.064 -3.71209,0.43142 -0.96003,0.64002 -1.33456,0.4812 -1.81575,0.21097 -0.47646,-0.26312 -0.85336,-0.16119 -1.28003,0.16119 -0.42431,0.32001 -1.38434,0.69216 -1.96983,0.69216 -0.58787,0 -1.60004,-0.16119 -2.23769,-0.32238 -0.64238,-0.15881 -1.01454,0.32238 -1.06906,0.75143 1.74227,1.55974 2.08124,3.03889 2.08124,4.10321 0,1.06433 -0.15882,1.86553 -0.9624,2.92985 -0.21097,-1.06432 -0.63764,-2.18553 -1.27766,-2.8777 -0.63764,-0.69216 -1.32981,-0.90313 -1.86553,-0.95528 -0.53334,-0.0593 -1.33218,-0.16119 -1.3867,0.0521 -0.0498,0.21097 0.42668,0.47883 1.06907,0.74194 0.63764,0.27023 0.53097,0.75143 0.31763,1.4436 2.45103,1.91767 2.07887,3.62201 1.81338,5.64873 -0.74668,-1.06432 -1.60004,-1.91768 -2.08124,-2.39888 -0.47645,-0.48119 -0.79646,-0.53097 -1.01217,-0.64001 -0.21097,-0.10904 -0.58787,-0.32001 -1.32981,-0.58313 -0.74668,-0.27023 -0.69216,0.36979 -0.4812,0.85336 0.21571,0.47171 0.37216,0.74194 0.15882,1.1141 0.96003,1.91768 1.70671,2.39887 2.93222,2.98911 -0.63764,0.32001 -1.65219,0.53098 -2.39887,0.53098 -1.64982,0 -2.61221,-0.90314 -3.51772,-1.86553 l -0.53572,0 c 0.16119,0.42194 0.53572,0.74431 0.90788,1.06432 -0.90788,0.0498 -2.02672,0.21097 -3.24986,-0.37216 -1.22551,-0.58312 -1.76123,-1.75648 -2.13339,-3.302 -0.85098,-0.74906 -0.23941,-2.82793 0.0806,-3.57224 0.32238,-0.74906 1.36063,-2.71651 2.26376,-3.89225 -0.31764,-0.69216 -0.37216,-1.81337 -0.15645,-2.71651 -2.45339,-2.08598 -2.13576,-2.50791 -2.13576,-3.47031 -0.53334,-0.48119 -1.38433,-0.95528 -1.5953,-1.33455 -0.2157,-0.37216 -0.32237,-1.22314 -0.42667,-2.01723 -0.3769,0.0498 -0.74669,0 -1.01455,-0.10904 -0.21333,1.38433 -0.74668,1.9153 -1.54552,2.12627 -0.26785,0.75143 -0.74668,1.55263 -1.65456,2.2448 -1.26818,0.9695 -2.18553,0.85335 -3.30437,0.9055 0.42667,-0.53334 1.76122,-2.12864 2.13101,-2.66199 0.3769,-0.53098 0.21571,-1.12121 -0.1043,-1.60241 -1.76123,1.43648 -3.83772,1.01217 -5.17227,0.69217 0.10667,0.37215 0.21571,0.74431 0.48119,0.96239 -1.86552,0.26312 -2.71888,-0.43142 -3.83772,-1.49574 -0.15882,1.80864 -0.69217,3.14319 -1.13544,3.93017 0.99321,0.91736 0.49542,2.90852 -0.0735,3.97995 0.42668,0.49542 0.5689,1.06432 0.50016,1.98879 0.49542,0.13749 1.06195,0.49542 1.20418,1.13781 0.24178,1.07143 -0.0687,1.55974 -1.27766,3.33756 -1.20655,1.77782 -2.05991,2.48658 -2.62881,2.91563 -0.5689,0.42194 -1.27766,0.42194 -1.56211,0.13749 -0.28919,-0.28209 -0.92684,-2.12865 -1.21129,-3.33757 -0.28445,-1.20892 0.28445,-1.63085 0.71113,-2.13576 0.42667,-0.49542 0.0735,-1.2018 -0.28445,-1.91767 -0.35557,-0.70639 -1.34878,-0.85099 -1.56212,-2.27325 -0.28919,-1.93189 -0.0877,-3.32334 1.24211,-3.9278 -1.17337,-2.77103 0.91498,-4.89019 1.65456,-6.74861 0.74431,-1.88212 0.60209,-3.11237 0.53097,-4.601 -0.35556,0.35082 -1.04773,0.91972 -1.33218,0.85335 -0.28445,-0.0711 -0.74431,-0.51675 -0.74431,-1.44359 0,-2.44154 2.5411,-1.5147 2.5411,-4.89968 0,-1.84893 -0.39349,-2.61458 -1.28003,-3.84957 -0.67795,-0.94343 -2.29221,-1.76834 -2.86111,-1.9082 -0.56891,-0.14222 -2.22347,-0.62342 -2.71889,-0.90787 -0.49779,-0.28445 -1.17336,-0.79884 -2.5245,-0.79884 0.0735,-0.58549 0.86995,-1.33218 1.51233,-1.54552 0.63765,-0.21334 2.00776,-0.10904 3.35653,0.10667 1.35114,0.21097 2.82792,-0.97662 2.82792,-3.24986 0,-2.27798 -1.35351,-3.5912 -1.92005,-3.94676 -0.5689,-0.35557 -1.81337,-1.31559 -2.02671,-2.02672 -0.21097,-0.71113 -1.11885,-1.42226 -2.04568,-2.13101 1.51233,-1.59767 3.55801,-0.92447 4.41137,0.28208 0.85098,1.21129 1.84656,1.53129 3.17637,1.26106 -0.83439,-0.90313 -2.2922,-2.3965 -3.60305,-3.78083"
         id="path742"
         style="fill:#000000;fill-opacity:1;fill-rule:nonzero;stroke:none" />
      <path
         d="m 428.71122,579.02692 c 0.85335,0.32001 1.64982,1.01217 2.0765,1.81575 1.33455,-1.22788 2.6691,-2.18791 4.52989,-2.56244 1.87027,-0.37215 3.73342,-0.2157 5.33109,0.21334 -0.47882,1.01218 -0.63764,2.13339 -0.47882,2.93222 -0.42431,0.36979 -0.74432,1.22315 -0.74432,1.75649 l -0.8012,-0.16119 c -0.26786,-0.90313 -0.53335,-1.5953 -2.39888,-1.38433 -0.95765,-1.06432 -1.86553,-1.59767 -2.82318,-1.491 -0.96002,0.10667 -2.18791,1.22789 -2.82555,1.86316 -1.01218,0.0569 -1.75886,0.10904 -2.39651,0.64002 -0.64238,0.53334 -1.01454,1.12358 -1.76123,1.38433 0.21097,-1.64745 0.32001,-2.49844 2.29221,-5.00635"
         id="path746"
         style="fill:#e2231b;fill-opacity:1;fill-rule:nonzero;stroke:none" />
      <path
         d="m 461.22545,577.16115 c 1.60004,0 3.62676,0.0545 4.58441,0.96002 -0.95765,0.80121 -2.0765,1.27767 -4.58441,0.90551 -0.10667,-0.74669 -0.0522,-1.38433 0,-1.86553"
         id="path750"
         style="fill:#e2231b;fill-opacity:1;fill-rule:nonzero;stroke:none" />
      <path
         d="m 501.57774,585.68901 c -0.85335,-1.38433 -2.92985,-1.5953 -3.67654,-3.68128 -0.74668,-2.07175 -0.0545,-3.35178 0.21097,-3.83298 0.27023,-0.4812 0.80121,-1.11884 2.02672,-1.11884 1.06669,1.91767 1.54552,3.19534 1.43885,8.6331"
         id="path754"
         style="fill:#e2231b;fill-opacity:1;fill-rule:nonzero;stroke:none" />
      <path
         d="m 428.52893,555.61324 c 0.9221,0.81306 0.67794,1.80864 0.89365,3.0863 0.21097,1.28003 1.13544,5.33109 4.76219,8.5288 3.62202,3.19771 7.31752,4.26204 10.58634,5.26236 0.28445,-0.28445 0.71113,-0.78462 0.99558,-1.06907 -7.17529,-1.98879 -9.66424,-7.10654 -10.30662,-10.73093 -0.63765,-3.62439 0.42667,-6.32668 1.35351,-8.24435 0.92447,-1.92005 3.5509,-4.62234 4.90442,-5.82652 1.34877,-1.21129 1.67589,-2.60984 1.46018,-3.4632 -0.85098,1.13781 -2.45576,2.25191 -3.66468,2.82081 -1.20655,0.56891 -2.62881,1.21129 -3.6955,2.06228 -1.06432,0.85335 -1.34877,1.70671 -1.99116,2.41784 -0.64002,0.70875 -1.98879,2.19975 -4.11981,2.55769 -2.13338,0.35319 -2.7734,-1.21129 -3.48453,-2.69992 -0.5689,1.13544 -0.35319,2.05753 0.0735,2.76866 0.4243,0.71113 0.70875,1.49337 0.35319,2.98437 -0.35319,1.49337 -2.48658,2.42021 -4.05343,2.7734 -1.55975,0.35794 -2.19976,0.28446 -3.1266,-0.0687 -0.9221,-0.35793 -1.45307,-1.38433 -2.10968,-1.8513 -0.54994,-0.39112 -1.70908,-0.60209 -2.35384,0.0213 0.2726,0.27971 0.72772,0.71113 0.96477,0.97662 0.48119,0.53334 0.44564,1.06432 1.08328,1.63322 0.64002,0.56891 1.20892,0.92684 1.98879,1.70434 1.56449,1.56449 1.6356,3.05786 1.35352,4.83331 -0.25364,1.56448 -1.31559,2.34435 -2.13339,2.59562 -0.92447,0.28208 -2.2045,0.0759 -3.05785,-0.0664 -0.85099,-0.14223 -1.68775,0.0142 -1.87501,0.61868 0.63764,0 1.37959,0.76328 2.01723,1.04773 0.64239,0.28208 2.06228,0.56653 3.6955,1.27766 1.6356,0.71113 2.48895,2.34672 2.91563,3.55327 0.42668,1.21129 0.28445,3.20008 0.0687,3.83773 -0.21097,0.64001 -0.63764,0.92446 -1.491,1.70434 -0.85098,0.77987 -0.56653,1.2824 -0.35556,1.77782 0.28445,-0.13749 0.71113,-0.42905 0.99795,-0.85099 0.56416,1.06433 1.20655,-0.21096 1.77545,-0.85335 0.5689,-0.64239 2.2045,-2.13102 3.90884,-2.48658 1.70671,-0.35557 2.77103,0.21334 4.12217,1.55974 0.77988,-0.77987 2.20213,-1.41989 3.62202,-1.91531 1.42226,-0.49779 4.05343,-0.5689 6.54239,-0.28445 0.14222,-0.28445 0.42667,-0.64238 0.5689,-0.92446 -2.55769,-0.77988 -6.38594,-1.43174 -8.59992,-1.70671 -2.45339,-0.30105 -4.69108,-0.5855 -6.48786,-0.90314 -2.12154,-0.37927 -3.4632,-0.96239 -4.10322,-1.22788 -0.62342,-0.25838 -1.4507,-0.89365 -1.87738,-1.1781 -0.42667,-0.28445 -1.19469,-0.48831 -1.60715,-0.67083 -0.63764,-0.28446 0.5689,-0.13038 1.28003,0.15407 0.7135,0.28446 1.92005,1.34167 4.12455,1.97931 1.83708,0.53572 4.69108,0.92447 7.24877,1.20892 2.5577,0.28445 6.53765,0.9221 10.30663,1.99116 0.21097,-0.21571 0.44327,-0.50016 0.86995,-0.71113 -0.0687,-0.42667 -0.0687,-0.8652 0.0735,-1.29188 -2.66673,-0.59972 -5.13909,-1.33929 -7.80345,-2.40362 -3.23564,-1.29899 -5.25761,-2.16894 -8.91993,-4.83567 -2.50317,-1.82286 -4.48011,-4.2644 -4.97553,-4.90205 -0.49779,-0.64239 -1.20892,-1.56448 -1.13543,-1.77782 0.0687,-0.21097 0.77987,0.92447 2.69991,2.91563 1.92005,1.98879 5.94741,5.21257 10.02218,7.03543 4.68871,2.09546 8.8014,3.13845 10.47019,3.49164 0.24652,-0.32001 0.64712,-0.67083 1.0738,-0.95528 -1.35114,-0.35319 -3.58646,-1.04536 -5.64399,-1.9722 -2.06228,-0.91972 -4.19566,-2.41072 -5.75777,-3.90647 -1.56449,-1.49337 -2.84452,-4.05106 -3.41105,-5.54206 -0.50016,-1.30848 -0.78461,-2.84214 -0.85336,-3.62676 -0.0735,-0.77987 0.007,-1.53366 -0.20859,-2.17368 -0.0237,-0.045 -0.007,-0.0924 0.0261,-0.0593"
         id="path758"
         style="fill:#ffffff;fill-opacity:1;fill-rule:nonzero;stroke:none" />
      <path
         d="m 457.31874,544.59264 c -0.42668,1.28003 -1.03114,2.34435 -2.34673,3.05311 -0.1683,0.0924 -0.0948,0.15408 0,0.21571 0.50017,0.32001 0.78225,1.23263 0.85336,1.62612 0.95765,-0.0996 1.98879,-0.1683 2.84214,-0.13512 0.32001,-0.88654 0.66372,-1.72804 1.01929,-2.37043 -0.91025,-0.045 -1.76597,-0.43616 -1.87264,-1.10936 -0.10667,-0.67794 -0.24652,-1.17336 -0.28445,-1.35351 -0.0356,-0.17542 -0.15645,-0.0972 -0.21097,0.0735"
         id="path762"
         style="fill:#ffffff;fill-opacity:1;fill-rule:nonzero;stroke:none" />
      <path
         d="m 457.91277,550.12143 c -0.91499,-0.34371 -1.83945,-0.34371 -2.69281,0.0498 -0.85335,0.39112 -1.42226,0.88891 -1.77545,1.52893 -0.35793,0.64001 -0.88891,1.59767 -1.70434,1.77782 -0.82017,0.17541 -1.21129,-0.18015 -1.45781,-0.32001 -0.60683,0.32001 -0.78461,0.46223 -1.95324,0.56653 -1.17336,0.10667 -3.48453,1.99116 -3.16452,3.34231 0.5689,-0.10904 1.24211,-0.28445 1.7399,-0.1446 0.49779,0.1446 1.49337,0.88891 1.56685,1.17336 0.0687,0.28446 0.21097,0.78225 0.17304,1.31559 -0.0308,0.53098 -0.0687,0.99321 -0.0687,1.24211 l 0.46223,0.0735 c 0.42668,0.88891 1.13781,2.02435 2.23769,2.27324 -0.17778,-0.95765 -0.49779,-2.16894 -0.28208,-3.41105 l 0.53097,-0.0356 c -0.24889,0.21334 -0.29156,0.53097 -0.29156,0.81543 0.82254,-0.39587 2.35384,-0.81543 3.31149,-0.95766 -0.1043,-0.24889 -0.20623,-0.42667 -0.29867,-0.59735 -0.73247,-0.0403 -1.47204,0.19675 -2.25428,0.4812 -0.0687,-0.60683 -0.0403,-0.80594 0.31526,-1.05721 0.35557,-0.2489 1.10225,-0.35319 1.60004,-0.10667 0.49779,0.2489 0.77988,0.6732 1.06433,1.06906 0.28445,0.38875 0.99558,1.56212 0.96002,1.98879 -0.0332,0.42668 -0.10667,1.31085 -0.24889,1.81101 0.42667,-0.0735 0.74668,-0.46223 1.17336,-1.17336 0.42668,-0.71113 0.67557,-0.99558 0.42668,-1.81101 -0.2489,-0.81543 -0.64239,-1.49574 -0.60446,-2.27324 0.0356,-0.78461 0.53097,-1.63797 1.52655,-2.06464 0.99558,-0.42431 1.24685,-0.28446 1.92005,0.14222 0.67557,0.42668 1.31559,1.03114 1.88449,1.81575 0.5689,0.77987 0.85573,1.83234 1.92005,2.0599 0.49542,0.1043 0.81543,-0.24889 0.96002,-0.5689 -0.68031,-0.63764 -0.99558,-1.03114 -0.85335,-1.74226 0.14222,-0.71113 0.95765,-1.13781 1.84656,-0.99558 -0.17778,-0.53098 -0.81542,-1.24211 -1.42225,-1.81101 -0.60446,-0.56891 -1.27767,-0.85336 -0.99321,-1.38433 0.28445,-0.53572 0.92209,-0.50016 1.34877,-0.53572 -0.10667,-0.74432 -0.4646,-1.34877 0.95765,-2.48658 -0.14222,-0.85099 -0.6732,-1.84657 0.9624,-3.40868 -0.56891,-0.68031 -1.05721,-1.06906 -0.99558,-1.92242 0.0332,-0.49542 0,-0.95765 -0.0356,-1.28003 -0.0356,-0.32001 -0.39112,-0.0711 -0.5689,0.0379 -0.18015,0.10667 -0.74669,0.28445 -1.52656,0.28445 -0.78461,0 -1.49337,-0.28445 -1.81575,-0.21571 -0.32001,0.0735 -0.1043,0.25127 0.0735,0.50016 0.18015,0.24653 0.49542,0.9221 0.46223,1.41989 -0.0356,0.49542 -0.10904,1.77545 -0.49779,2.31117 -0.39112,0.53334 -1.34877,1.491 -2.63118,2.09546 -1.28003,0.60446 -1.84893,0.85335 -2.27561,0.99558 -0.42431,0.14222 -1.13543,0.17778 -1.5953,0.88891 -0.46223,0.71113 -0.45275,1.5953 -1.619,1.82997 -0.17778,0.0356 -0.0356,-0.18015 0.14222,-0.42668 0.18016,-0.24889 0.37216,-0.76565 0.65661,-1.26107 0.28446,-0.50016 0.42668,-0.88891 1.35115,-1.17336 0.9221,-0.28445 1.31559,-0.32001 2.05279,-0.72535"
         id="path766"
         style="fill:#ffffff;fill-opacity:1;fill-rule:nonzero;stroke:none" />
      <path
         d="m 438.37569,554.61458 c 1.06669,-0.10904 2.2045,0.28445 3.01993,1.2421 0.8178,0.96003 0.67557,1.52656 1.60004,2.80659 0.92209,1.28004 1.31558,1.77783 1.95323,2.34673 -0.63765,0.32001 -1.17336,0.21097 -1.56211,0.32001 -0.39112,0.10667 -1.34878,0.53334 -1.34878,1.31321 0,0.78462 0.60446,1.73042 2.40836,1.87975 1.02877,0.0853 3.45609,-1.09513 4.94709,-2.37517 0.18489,0.19675 0.49779,0.53098 0.64001,0.74669 -1.35114,1.03114 -2.55769,1.77545 -3.62676,2.16894 -1.3464,0.49068 -1.89397,0.63765 -2.94644,0.31764 -1.5313,-0.45986 -2.52688,-1.63323 -2.56243,-3.30675 -0.0332,-1.66878 0.0356,-3.01756 -0.0688,-3.90647 -0.10666,-0.88891 -0.30341,-1.47677 -0.71112,-1.88449 -0.10667,-0.1043 -0.12801,0.0285 -0.0379,0.21571 0.24889,0.49542 0.39586,1.27529 0.42668,1.63323 0.0379,0.35556 0.0379,1.41988 0,2.16657 -0.0308,0.74668 -0.28446,2.56006 0.21571,3.48453 -0.42668,0.60209 -0.85336,1.28003 -0.9624,1.70434 -0.59972,-0.92447 -0.99084,-2.09783 -0.99084,-3.44661 0,-1.35114 0.74432,-3.69786 0.6732,-4.83567 -0.0711,-1.13781 -0.70876,-2.0599 -1.06669,-2.59088"
         id="path770"
         style="fill:#ffffff;fill-opacity:1;fill-rule:nonzero;stroke:none" />
      <path
         d="m 449.03907,561.75715 c -0.10904,-0.17778 -0.28445,-0.53572 -0.28445,-0.53572 l -0.15171,-0.0332 c -1.06906,0.92209 -2.18791,1.85604 -2.97963,2.27561 -0.59972,0.32001 -1.06195,0.49542 -1.66878,0.42668 -0.32238,-0.0403 -0.23941,0.1043 0.0379,0.17778 0.38875,0.10193 1.07143,0.0545 1.97456,-0.34371 0.76091,-0.33186 1.35589,-0.69454 1.78257,-1.01692 0.38875,-0.29156 0.97661,-0.68505 1.28951,-0.95054"
         id="path774"
         style="fill:#ffffff;fill-opacity:1;fill-rule:nonzero;stroke:none" />
      <path
         d="m 451.28387,560.95547 c 0,0.34608 0.13511,0.90787 0.18963,1.19944 0.79884,-0.37216 1.78257,-0.93395 3.91358,-1.01455 0.0284,-0.34608 -0.13037,-0.90313 -0.45275,-1.24921 -1.01217,0.0261 -2.60747,0.55705 -3.65046,1.06432"
         id="path778"
         style="fill:#ffffff;fill-opacity:1;fill-rule:nonzero;stroke:none" />
      <path
         d="m 458.21524,556.42606 c 0.42668,-0.4006 1.22077,-0.62579 1.9722,-0.0261 0.4006,0.31763 1.01691,1.01691 1.17573,1.17336 -0.36979,0.4006 -0.91024,0.71824 -1.2824,0.85335 -0.32001,-0.72061 -1.09277,-1.89634 -1.86553,-2.00064"
         id="path782"
         style="fill:#ffffff;fill-opacity:1;fill-rule:nonzero;stroke:none" />
      <path
         d="m 457.41356,559.30471 c 0.0806,0.32001 0.24178,0.79883 0.2963,1.06432 0.42431,-0.23704 1.09277,-0.71824 1.14255,-0.95765 0.0545,-0.24178 -0.45038,-0.29156 -1.43885,-0.10667"
         id="path786"
         style="fill:#ffffff;fill-opacity:1;fill-rule:nonzero;stroke:none" />
      <path
         d="m 450.2743,558.85314 c -0.27023,-0.27023 -0.4006,-0.53572 -0.21571,-1.2824 0.18726,-0.74432 1.09514,-1.32981 1.51945,-1.491 -0.0782,-0.34608 -0.34609,-0.61157 -0.93158,-0.74669 0.15882,-0.0806 0.34608,-0.18726 0.47645,-0.21097 -0.31763,-0.37689 -0.63764,-0.6969 -0.87706,-0.8818 0.5855,-0.0806 1.38671,-0.0261 1.65456,0.29394 0.26549,0.32001 0.45039,0.58786 0.45039,1.03825 0.39823,0.16119 0.79883,0.42667 0.77276,0.66846 -0.0261,0.23941 -0.21334,0.28919 -0.5855,0.45038 -0.37216,0.16119 -0.98847,0.4812 -1.33455,0.74668 -0.34608,0.26786 -0.85336,0.77276 -0.92921,1.41515"
         id="path790"
         style="fill:#000000;fill-opacity:1;fill-rule:nonzero;stroke:none" />
      <path
         d="m 446.22182,556.24022 c -0.0545,-0.2963 0.0261,-0.4812 0.37216,-0.77276 0.34608,-0.2963 0.69216,-0.37453 1.38907,-0.24178 -0.24178,0.40297 -0.40297,0.85335 -0.43142,1.09513 -0.47646,-0.0806 -0.98373,-0.0806 -1.32981,-0.0806"
         id="path794"
         style="fill:#000000;fill-opacity:1;fill-rule:nonzero;stroke:none" />
      <path
         d="m 453.52155,554.40716 c 0.28682,0.36505 1.12358,0.14934 1.60241,0.28445 l 0.0237,0.23941 c 0.1849,-0.10429 0.55943,-0.26548 0.93632,-0.39586 0.37216,-0.13511 1.17337,-0.50253 1.54552,-0.63764 0.36979,-0.13275 0.9861,-0.24416 1.46493,-0.50964 0.34608,-0.18964 0.34608,-0.31764 0.34608,-0.79884 0,-0.26549 0.1849,-0.61157 0.34608,-0.82728 0.15882,-0.21097 0.46935,-0.27734 0.53572,-0.16119 0.1043,0.18727 0.1849,0.13512 0.29156,0 0.1043,-0.13037 0.29394,-0.45038 0.53098,-0.79646 0.24178,-0.34846 0.74669,-0.77513 1.06906,-0.98847 0.32001,-0.21097 0.90551,-0.50727 1.0667,-0.53335 0.15645,-0.0261 0.15645,-0.1043 0.0261,-0.1043 -0.13511,0 -0.37453,0.0782 -0.66846,0.15882 -0.29393,0.0782 -0.77039,0.34845 -1.09277,0.63765 -0.32,0.2963 -0.68505,0.51201 -1.17336,0.85335 -0.45038,0.32238 -1.25396,0.4006 -1.75649,0.45275 -0.50964,0.0545 -1.35825,0.21334 -1.78493,0.34846 -0.42668,0.13274 -0.7775,0.45275 -0.85336,0.58312 -0.0806,0.13512 -0.27022,0.64239 -0.61631,1.12359 -0.34608,0.47645 -1.23499,0.99558 -1.68537,0.97661 -0.13275,-0.0545 -0.21334,0.0213 -0.15408,0.0948"
         id="path798"
         style="fill:#000000;fill-opacity:1;fill-rule:nonzero;stroke:none" />
      <path
         d="m 456.41134,552.46436 c 0.0356,-0.21571 0.33897,-0.46223 0.61631,-0.34371 0.27971,0.12089 0.57602,0.30815 0.61631,0.66846 0.0403,0.35556 0.11852,0.94343 -0.49542,1.10462 0,-0.39823 0.007,-0.66846 -0.0522,-0.82491 -0.0948,-0.25364 -0.27971,-0.29393 -0.38638,-0.4006 -0.10904,-0.1043 -0.2323,-0.15171 -0.29867,-0.20386"
         id="path802"
         style="fill:#ffffff;fill-opacity:1;fill-rule:nonzero;stroke:none" />
      <path
         d="m 456.30941,553.62706 c -0.0948,-0.12089 -0.21571,-0.50727 -0.22519,-0.59735 -0.0806,0.0498 -0.16119,0.15645 -0.28208,0.26549 -0.11852,0.10667 -0.22519,0.30579 -0.064,0.46697 0.15882,0.15645 0.48119,0.37927 0.70164,0.34609 0.18964,-0.0308 0.25601,-0.0806 0.32238,-0.14934 -0.12089,-0.0664 -0.26786,-0.0924 -0.45275,-0.33186"
         id="path806"
         style="fill:#ffffff;fill-opacity:1;fill-rule:nonzero;stroke:none" />
      <path
         d="m 462.61381,547.45327 c 0.13986,-0.37453 0.5689,-1.38433 0.77987,-1.81338 0.21571,-0.42905 0.4812,-0.77987 0.78461,-1.01454 0.30105,-0.22993 0.54994,-0.27971 0.67321,-0.12326 0.12326,0.15881 0.019,0.55231 -0.0735,0.76564 -0.0877,0.21097 -0.53097,0.8344 -0.88417,1.24211 -0.35793,0.41245 -0.79172,0.93395 -0.96239,1.10462 -0.14223,0.14222 -0.28445,0.29867 -0.3532,0.38875 -0.0735,0.0877 -0.16119,0.0687 -0.12563,-0.0545 0.0521,-0.18252 0.10667,-0.35319 0.16119,-0.49542"
         id="path810"
         style="fill:#000000;fill-opacity:1;fill-rule:nonzero;stroke:none" />
      <path
         d="m 463.76536,547.77423 c 0.13037,-0.17541 0.53572,-0.60446 0.7135,-0.78461 0.17541,-0.17778 0.49542,-0.49779 0.67557,-0.53098 0.17778,-0.0355 0.46224,0.0332 0.46224,0.24653 0,0.21571 -0.28446,0.35793 -0.4812,0.48356 -0.19675,0.12327 -0.73009,0.38875 -0.92684,0.47646 -0.192,0.0901 -0.27971,0.10904 -0.36979,0.15882 -0.0877,0.0569 -0.12326,0.019 -0.0735,-0.0498"
         id="path814"
         style="fill:#000000;fill-opacity:1;fill-rule:nonzero;stroke:none" />
      <path
         d="m 462.31158,551.34552 c 0.42668,0.0332 0.88891,0.0332 1.08329,0.0142 0.19674,-0.0142 0.48119,-0.0142 0.51201,0.19675 0.0379,0.21334 0.0735,0.60446 -0.0498,0.65661 -0.12563,0.0545 -0.19675,0.21571 -0.42668,0 -0.22993,-0.21097 -0.50016,-0.3366 -0.65898,-0.42668 -0.15645,-0.0877 -0.35319,-0.21097 -0.45986,-0.4409"
         id="path818"
         style="fill:#000000;fill-opacity:1;fill-rule:nonzero;stroke:none" />
      <path
         d="m 455.33635,561.75715 c -0.93395,-0.0545 -2.02672,0.42668 -2.50317,0.87943 -0.4812,0.45038 -1.04299,1.43885 -0.93395,2.0765 0.47882,-0.18727 1.03825,-0.47646 1.83708,0.66609 0.42668,-0.39587 1.33455,-1.30374 2.29221,-0.55705 0.37452,-0.5618 0.69216,-1.60004 2.6691,-1.41515 0.26549,-1.01217 0.47646,-2.37043 2.74259,-2.10494 0.0261,-0.69217 0.42667,-1.54552 1.19943,-1.81101 -0.21571,-0.50727 -0.56179,-0.96002 -0.8012,-1.25396 -1.25159,0.69691 -2.02435,1.27766 -2.44866,1.54552 -0.42667,0.27023 -1.12358,0.82728 -1.51944,1.0667 -0.34845,0.85335 -0.5689,1.619 -1.30848,2.2685 -0.21334,0.18489 -0.7372,0.66609 -1.50996,0.36978 0.18726,-0.53097 0.22993,-1.06432 0.28445,-1.73041"
         id="path822"
         style="fill:#ffffff;fill-opacity:1;fill-rule:nonzero;stroke:none" />
      <path
         d="m 456.05056,565.88668 c -0.18252,-0.53098 -0.87469,-0.93395 -1.64745,-0.13037 0.64239,0.0498 1.2184,0.0782 1.64745,0.13037"
         id="path826"
         style="fill:#ffffff;fill-opacity:1;fill-rule:nonzero;stroke:none" />
      <path
         d="m 465.30282,551.41497 c 1.49337,0.0261 5.78385,1.75886 5.78385,6.55661 0,4.84041 -1.7233,7.93382 -4.07951,10.79493 -1.96983,2.39651 -6.81973,4.82383 -6.55424,10.20707 -2.42258,-0.50727 -3.81165,-0.90313 -6.12993,-0.39823 -0.61157,0.13037 -1.64982,0.61157 -2.10731,0.98373 -0.29156,0.23941 -0.36979,0.45512 0.13511,0.10904 0.4812,-0.32949 1.62612,-0.73484 2.88008,-0.85573 0.55705,-0.0498 1.4104,0.083 2.21161,0.16119 0.79883,0.0806 2.55769,0.4812 3.33045,0.61157 0.77276,0.13512 1.86553,0.42905 3.28067,-0.0261 1.41041,-0.45275 2.58377,-0.98373 3.06497,-1.6759 0.47646,-0.6969 0.37216,-0.96239 0.21097,-1.65456 -0.16119,-0.69216 -0.23705,-1.69248 0.0545,-2.18553 0.34608,-0.58787 1.11884,-1.06432 2.52924,-1.06432 1.41515,0 6.34327,-0.0308 9.75432,-0.29631 3.41579,-0.26549 4.48011,-0.34608 7.32937,-1.19944 2.854,-0.85098 6.34801,-2.15235 8.15665,-3.35415 0.96239,-0.64239 2.08123,-1.41515 2.7734,-1.89635 0.69216,-0.47645 1.70434,-1.57159 2.26613,-1.9959 0.55705,-0.42668 1.19944,-0.77276 1.83708,-0.72298 0.64002,0.0545 0.9624,0.3769 1.09277,0.64239 -0.93158,0.18489 -2.18317,0.5049 -3.03889,1.51944 -0.85336,1.01218 -1.43648,1.81101 -1.62612,3.81165 -0.18489,1.9959 -0.0498,3.01045 0.0545,3.51535 0.10667,0.50727 0.26549,0.90787 0.93395,1.25396 0.66609,0.34608 0.69217,0.21096 1.35826,0.21096 0.66846,0 1.49574,0.58787 1.68063,1.12359 -1.54552,0.18489 -3.09341,0.45275 -4.18617,1.46492 -1.0904,1.00981 -1.64508,2.21161 -1.24448,4.17907 0.39823,1.97694 0.97662,2.56006 2.04568,3.17875 1.06669,0.61157 2.4771,1.32507 2.42258,3.35178 -1.19944,-0.90313 -2.82318,-2.07649 -3.75713,-2.04805 -0.93158,0.0213 -2.18317,0.58313 -2.71888,1.30611 -0.53098,0.72061 -0.74432,1.57396 -0.69217,2.60747 0.0545,1.04299 0.63765,1.94612 1.22788,2.93933 0.58313,0.98373 1.59767,2.57903 1.86316,3.2712 0.27023,0.69216 0.69454,1.23262 -0.50727,3.33045 -0.34134,-1.38433 -0.66372,-2.68807 -1.70671,-3.51298 0,-0.53097 -0.17778,-0.99795 -1.06195,-1.9959 -1.44122,-1.63322 -3.83536,-3.49164 -7.54271,-5.49702 -5.49465,-2.9583 -9.17119,-3.86854 -10.39433,-4.45167 -1.22551,-0.59261 -2.39887,-1.48863 -2.63118,-1.96746 -0.18015,-0.36504 -0.31289,-0.18489 -0.19437,0.0498 0.42668,0.82965 0.85335,1.54552 2.82555,2.42732 1.96983,0.8818 5.30265,1.9959 7.00699,2.76866 1.70434,0.77276 4.69345,2.39888 6.53053,3.7121 1.83945,1.30373 3.75713,2.60747 4.31892,3.94202 -1.86552,-0.18963 -3.52008,-0.27023 -4.82619,0.42194 -1.30374,0.69216 -2.53162,1.84419 -3.06497,3.01044 -0.53097,1.17336 -0.69216,2.34673 -0.9055,3.25934 -0.21097,0.90314 -0.29156,1.83471 -1.36063,2.57903 0,-1.03588 -0.39586,-1.54552 -0.39586,-2.04805 0,-0.50964 0.34371,-1.09277 0.42431,-1.62612 0.0806,-0.53097 -0.0284,-2.05516 -0.5855,-3.22852 -0.55942,-1.17336 -1.17336,-1.70434 -2.2922,-2.36806 -1.11884,-0.67083 -2.61222,-1.00743 -3.62676,-1.06432 -0.42668,-0.0285 -2.2922,0.42193 -2.68807,0.61157 0.1849,-1.15203 0.39587,-2.66674 -0.34608,-3.97284 -0.74668,-1.30374 -2.48184,-1.62375 -3.78794,-1.60241 -1.30374,0.0284 -2.42732,0.59023 -3.00808,1.25395 -0.58787,0.67084 -1.01454,1.8442 -1.12358,2.71889 -0.10667,0.8818 0.0545,1.57396 0.32001,2.18553 -0.85336,-0.0806 -1.54552,-0.36978 -1.73042,-1.14491 -0.18726,-0.77276 -0.26549,-2.05517 -0.50727,-2.92748 -0.23941,-0.88417 -0.93158,-2.24717 -1.89397,-2.88008 -0.95766,-0.64238 -1.62612,-0.85335 -2.92985,-0.8012 -1.30611,0.0498 -2.29221,0.58312 -2.63829,1.2824 -0.34608,0.69217 -0.53335,1.38433 -0.37216,2.04805 -0.4812,-0.0806 -1.41515,-0.50253 -1.33455,-1.33455 0.0806,-0.82254 0.58787,-1.62611 0.77276,-1.94612 0.18726,-0.32001 0.32001,-1.30374 -0.23941,-2.39888 -0.55705,-1.09276 -1.83709,-1.86552 -3.09104,-1.75411 0.53097,-0.83202 1.32981,-1.57634 3.14556,-1.54552 1.59292,0.0213 2.95592,0.55231 4.23832,1.96745 0.5049,0.56179 1.43885,1.38433 1.9959,2.00302 0.74669,-1.62375 1.73516,-2.85637 2.79948,-3.48928 1.0667,-0.64238 3.65046,-1.30847 6.53053,-0.54045 -0.79883,-1.03588 -1.38433,-1.81101 -1.11884,-2.42021 0.26549,-0.61394 1.09277,-1.01218 3.19534,-0.45513 -0.10667,-0.95765 -0.23704,-1.94612 0.9624,-2.3728 1.19943,-0.4243 3.89224,-0.0545 7.64937,0.34846 3.75713,0.4006 7.99546,0.48119 9.86099,0.34371 1.86552,-0.13037 3.97284,-0.52386 4.93049,-0.87706 0.50727,-0.18726 0.083,-0.19674 -0.13512,-0.16119 -1.491,0.24179 -4.60811,0.52861 -7.22269,0.55705 -2.61222,0.0285 -5.35717,-0.29156 -7.88879,-0.66135 -2.52925,-0.37452 -5.59422,-0.72298 -6.92877,-0.2963 -1.33455,0.42668 -1.70434,1.19944 -1.78493,2.18791 -1.25396,-0.18727 -2.23057,-0.17542 -2.854,0.64001 -0.42667,0.55705 -0.63764,1.0904 -0.42667,1.99827 -2.21161,0.1043 -3.75713,0.32001 -5.08932,1.01455 -1.33218,0.69453 -2.23768,1.80863 -2.60984,3.14319 -1.28003,-1.38433 -3.03889,-3.70498 -6.10385,-3.62676 -3.06497,0.083 -3.86617,1.70908 -4.21226,2.74496 1.35826,0 2.79711,0.21808 3.33283,1.17336 0.53334,0.96239 0.63764,1.52181 0.58312,1.84419 -0.0498,0.3129 -0.37216,1.14255 -0.55705,1.54315 -0.18489,0.39349 -0.56179,1.43648 0,2.28984 -0.45512,0.48119 -1.41277,1.06432 -1.62611,1.30373 -0.85099,-0.15882 -2.02435,-0.30578 -2.40362,-0.15882 -0.48594,0.18964 -1.22077,1.01218 -1.67352,1.68301 -0.45512,0.66372 -0.42668,1.01217 0.0521,1.11647 0.47882,0.10904 1.01217,-0.0521 1.01217,0.50964 0,0.55231 -0.23704,0.66135 -0.82491,1.06433 1.0904,0 2.23769,0.18963 2.71888,0.4006 0.47883,0.21097 0.69454,0.64002 0.74432,0.82254 0.0545,0.18963 0.16119,0.37216 -0.21097,0.56179 -0.3769,0.18963 -0.8818,0.80121 -0.98847,1.22314 -0.1043,0.43142 -0.1043,1.12359 -0.0498,1.57634 -1.12358,-0.0308 -2.13338,-0.13275 -2.21398,0.50964 -0.0782,0.6329 0.37216,0.95528 0.77276,1.30374 0.39823,0.34371 0.66372,0.64238 0.90551,0.79646 -0.61395,0.26786 -1.07855,0.7135 -1.30611,1.46967 -0.0806,0.26311 -0.32001,0.15407 -0.53098,0.0735 -0.21571,-0.0735 -0.8818,-0.42194 -1.28003,-0.0213 -0.4006,0.4006 -0.21571,1.41277 -0.13511,1.80863 -0.90551,0.21808 -1.83709,0.66846 -2.18317,1.09277 -0.74194,-0.29156 -1.65456,-1.1947 -1.62848,-2.39887 0.0284,-1.1947 0.42667,-2.49844 0.56179,-3.20008 0.13037,-0.69217 0.16119,-1.30374 -0.0285,-1.88686 -0.29156,0.53097 -0.63764,1.22551 -0.74431,1.81574 -0.10904,0.58313 -0.0285,1.86553 -0.0806,2.28747 -0.0545,0.42905 -0.23941,0.85335 -0.29393,1.06432 -0.85335,-0.0213 -1.51944,0 -1.8916,0.67083 -0.45275,-0.56179 -0.82728,-1.07143 -0.29157,-2.24479 0.53098,-1.16626 1.99591,-3.5438 2.79711,-4.63656 -0.4006,-1.09277 -0.66609,-1.62375 -0.13274,-2.68807 -0.29157,-0.8818 -0.50727,-1.30611 0,-2.7497 0.5049,-1.43411 0.53097,-2.20687 0.69216,-2.8777 0.15882,-0.66372 1.26818,-3.06259 2.71889,-5.08694 0.13274,-0.18964 0.0782,-0.29156 -0.0806,-0.59024 -0.16119,-0.29156 -0.24178,-0.85335 0.69217,-1.54552 -1.491,-0.0213 -2.79948,0.21808 -3.65284,0.42905 -0.85098,0.21334 -2.15709,0.34371 -4.1838,1.96746 -0.21334,-0.85099 -0.54283,-2.36806 0.34845,-3.70261 0.47883,-0.72061 1.96983,-1.40804 2.82318,-1.75649 0.85336,-0.34371 2.18554,-0.74432 2.93459,-0.66609 0.74669,0.0806 1.75886,0.54994 2.34199,1.57159 0.10904,0.18964 0.27023,0.72061 0.27023,1.12121 0,0.40061 0.16118,0.40061 0.13037,0 -0.1043,-1.54552 -0.13037,-2.42731 0.0806,-3.52008 0.21571,-1.09277 0.5618,-2.5577 1.19944,-3.54379 0.64239,-0.9861 1.51234,-1.91531 7.46448,-5.44014 2.61222,-1.54315 4.15774,-2.34198 5.67718,-3.59594 1.51945,-1.25159 3.38497,-3.16927 3.38497,-4.60812 0,-0.93394 -0.82728,-1.57633 -1.28003,-1.94849 0.16119,-0.1043 0.34609,-0.29393 0.39823,-0.45038 -0.63764,-0.26549 -1.30373,-0.42668 -1.28003,-1.30848 0.0261,-0.82491 1.17337,-1.25395 1.76123,-0.63764 0.15882,-0.21571 0.15882,-0.80121 0.0261,-1.09277 -0.13275,-0.2963 -0.50728,-0.85336 -1.14492,-1.28003 -0.64239,-0.42668 -0.98847,-0.98847 -0.82728,-1.33455 0.16119,-0.34609 0.5855,-0.37216 0.74668,-0.23942 0.16119,0.13512 0.16119,-0.10667 0.0806,-0.23704 -0.0806,-0.13511 -0.4006,-0.37453 -0.21571,-1.65456"
         id="path830"
         style="fill:#ffffff;fill-opacity:1;fill-rule:nonzero;stroke:none" />
      <path
         d="m 494.11421,595.33926 c 0,0.4812 0.26549,0.74431 0.69217,0.90313 0.42667,0.16119 1.44122,1.01455 1.2824,3.25223 -1.38907,0.0569 -4.42796,-2.39887 -4.74323,-4.21462 0.90313,-0.15171 2.02197,-0.10193 2.76866,0.0593"
         id="path834"
         style="fill:#e2231b;fill-opacity:1;fill-rule:nonzero;stroke:none" />
      <path
         d="m 467.49334,594.02723 c 1.11884,-1.22551 2.36806,-2.36806 2.90141,-2.84926 0.53097,-0.47408 1.33218,-1.17336 1.92004,-1.70671 -1.11884,-0.31289 -3.30438,-0.33423 -4.15773,0.88892 -0.65661,0.94106 -1.06432,2.63828 -0.66372,3.66705"
         id="path838"
         style="fill:#ffffff;fill-opacity:1;fill-rule:nonzero;stroke:none" />
      <path
         d="m 463.81988,590.39692 c 0.78461,1.81575 0.21571,3.16452 1.17336,4.12692 -0.53334,0.0356 -1.70434,0.49542 -2.02671,0.66846 -0.32001,0.18252 -1.03114,0.64238 -1.49338,0.60683 -0.45986,-0.0379 -0.60208,-0.21097 -0.77987,-0.38638 1.13781,-1.03588 2.34673,-2.88007 3.1266,-5.01583"
         id="path842"
         style="fill:#ffffff;fill-opacity:1;fill-rule:nonzero;stroke:none" />
      <path
         d="m 459.73492,587.66381 c 1.09988,0 2.82792,0.18252 3.30675,1.70434 0.17304,0.5689 0.17778,1.5313 -0.1446,2.12864 -0.8178,1.5313 -1.32981,2.18791 -2.73547,3.59357 -0.64239,0.64239 -1.38907,1.48863 -2.88007,1.55975 -0.70876,0.0379 -1.20892,-0.10193 -1.66879,-0.28445 1.63323,-1.74227 2.66437,-2.97963 3.30675,-4.68634 0.63765,-1.70434 0.81543,-3.08867 0.81543,-4.01551"
         id="path846"
         style="fill:#ffffff;fill-opacity:1;fill-rule:nonzero;stroke:none" />
      <path
         d="m 451.68826,595.47722 c 0.88654,0.18252 1.683,0.50253 2.04094,1.35589 1.2421,-0.75143 1.95323,-1.28241 2.62644,-2.1002 0.67794,-0.81543 1.78019,-2.66674 1.99116,-3.30201 0.2157,-0.64002 0.7135,-2.09783 0.67794,-3.66469 -0.78461,0.10904 -1.45782,0.54046 -1.6356,1.28241 -0.18015,0.74431 -0.0711,1.12832 -0.0379,1.37722 0.17778,0.0735 0.35793,0.0806 0.50016,0.11615 -0.42668,0.35082 -0.78462,0.39349 -1.24211,0.39349 -0.4646,0 -0.82017,-0.1446 -0.99558,-0.25364 -1.35351,0.92447 -1.90582,1.34166 -2.16894,1.81338 -0.39349,0.70876 -1.19233,1.95323 -1.75649,2.982"
         id="path850"
         style="fill:#ffffff;fill-opacity:1;fill-rule:nonzero;stroke:none" />
      <path
         d="m 453.2518,592.00834 c -0.50016,-0.10904 -1.48389,-0.32949 -1.98168,-0.10904 -0.49542,0.21097 -1.06195,0.98373 -1.27292,1.30374 -0.21571,0.32 -0.32001,0.67794 0.17778,0.75142 0.49779,0.0735 0.67558,-0.0379 0.8178,0.28445 0.14223,0.32001 0.23704,0.5618 0.23704,0.80832 0.61632,-0.56179 0.96951,-1.27529 1.22077,-1.77071 0.24653,-0.49542 0.51676,-0.80832 0.80121,-1.26818"
         id="path854"
         style="fill:#ffffff;fill-opacity:1;fill-rule:nonzero;stroke:none" />
      <path
         d="m 453.44499,598.00671 c 0.87943,0.6329 1.30137,1.23262 1.68063,2.06938 0.45039,0.99084 0.63765,1.97694 0.23705,3.09816 -0.58787,-1.22552 -1.17337,-1.99591 -1.60004,-2.31828 -0.21097,-0.16119 -0.63765,-0.40772 -0.85336,-0.44564 -0.34608,-0.064 -0.47408,-0.0853 -0.50253,-0.46461 -0.045,-0.61157 0.13038,-1.62611 1.03825,-1.93901"
         id="path858"
         style="fill:#ffffff;fill-opacity:1;fill-rule:nonzero;stroke:none" />
      <path
         d="m 451.76483,603.60424 c -0.4812,0.18252 -1.03825,0.7135 -1.11884,1.32744 1.30373,0.80121 2.18553,1.60241 2.90377,2.45577 0.10667,-1.33456 -0.23941,-2.56007 -1.78493,-3.78321"
         id="path862"
         style="fill:#ffffff;fill-opacity:1;fill-rule:nonzero;stroke:none" />
      <path
         d="m 448.32842,606.9354 c 0.61157,1.30374 1.24922,2.36806 2.34435,3.19297 -1.11884,0.13748 -2.69043,-0.29156 -3.17163,-0.77276 -0.4812,-0.47409 -0.8818,-1.27529 -1.01217,-1.62612 0.4243,-0.4006 1.03824,-0.7135 1.83945,-0.79409"
         id="path866"
         style="fill:#ffffff;fill-opacity:1;fill-rule:nonzero;stroke:none" />
      <path
         d="m 442.03825,607.06578 c -0.21808,-0.36505 -0.21571,-0.69217 0,-1.01217 0.21097,-0.32238 0.50727,-0.51202 1.73041,-0.45276 0.29157,1.35589 0.66846,2.66911 1.41515,3.62202 -0.80121,0.13274 -2.24243,-0.64002 -3.14556,-2.15709"
         id="path870"
         style="fill:#ffffff;fill-opacity:1;fill-rule:nonzero;stroke:none" />
      <path
         d="m 425.48577,587.13165 c 0.0261,1.14492 0.26549,3.33045 2.26376,4.02262 -0.26786,-1.04062 -0.34608,-1.8442 -0.34608,-2.45577 0,-0.61157 0.0284,-1.5147 0.0782,-2.23768 -0.69216,-0.10193 -1.27766,0.0308 -1.9959,0.67083"
         id="path874"
         style="fill:#ffffff;fill-opacity:1;fill-rule:nonzero;stroke:none" />
      <path
         d="m 427.29702,585.92913 c -0.61157,0 -1.35826,0.21097 -1.81101,0.59024 -0.0545,-0.75143 0.0498,-1.86553 1.68064,-2.02672 -0.0806,0.47409 0.0498,1.06432 0.13037,1.43648"
         id="path878"
         style="fill:#ffffff;fill-opacity:1;fill-rule:nonzero;stroke:none" />
      <path
         d="m 428.33219,586.75309 c -0.0213,-0.53335 -0.0474,-0.58313 0.37927,-0.80121 0.43379,-0.22045 1.52656,-0.35793 2.13101,0.53809 -0.53097,0.82491 -0.79646,1.54552 -0.90787,2.34673 -0.1043,0.79409 -0.29156,1.54552 -0.45038,1.54552 -0.16119,0 -0.6898,-0.93158 -0.87469,-1.89398 -0.18963,-0.96239 -0.26549,-1.49574 -0.27734,-1.73515"
         id="path882"
         style="fill:#ffffff;fill-opacity:1;fill-rule:nonzero;stroke:none" />
      <path
         d="m 432.12227,586.65093 c -0.0806,-0.11615 -1.06669,0.0806 -1.38433,1.01217 -0.32238,0.93395 -0.50253,2.14998 -0.58787,2.50081 -0.1043,0.45986 -0.0284,0.48119 0.34609,0.0593 0.13511,-0.16119 0.87468,-0.75143 1.22077,-1.363 0.30578,-0.54046 0.88654,-1.51707 0.40534,-2.20924"
         id="path886"
         style="fill:#ffffff;fill-opacity:1;fill-rule:nonzero;stroke:none" />
      <path
         d="m 432.62859,586.51961 c 0.24178,0.79409 0.18489,1.54552 -0.4006,2.4771 -0.45512,0.72298 -1.12359,1.32744 -1.41752,1.56922 0.61631,0.10904 1.01929,0.0569 2.08361,-0.79409 1.06906,-0.85336 1.36062,-1.33455 1.84182,-2.2685 -0.56179,-0.69217 -0.74905,-1.06432 -2.10731,-0.98373"
         id="path890"
         style="fill:#ffffff;fill-opacity:1;fill-rule:nonzero;stroke:none" />
      <path
         d="m 434.49459,590.40427 c 0.0806,0.54046 -0.16119,1.2824 -0.42668,1.65456 -0.26549,0.37216 -0.82965,1.31322 -1.23262,1.683 0.72298,0 1.31322,-0.0806 1.95086,-0.72061 0.64239,-0.64238 1.20655,-1.34166 1.36537,-2.21635 -0.5049,-0.29156 -0.99084,-0.42193 -1.65693,-0.4006"
         id="path894"
         style="fill:#ffffff;fill-opacity:1;fill-rule:nonzero;stroke:none" />
      <path
         d="m 434.17387,589.77752 c 0,-0.61157 0.0806,-1.37011 0.77276,-1.71382 0.69217,-0.34845 1.11884,-0.32001 1.33455,-0.74906 0.22045,-0.44564 -0.0545,-1.11647 0.0782,-1.41514 0.13274,-0.29157 0.52149,-0.32001 0.61394,-1.03351 0.0545,-0.43142 -0.21571,-0.67083 -0.34609,-0.91261 -0.16118,0.91261 -0.45275,1.89634 -1.46492,3.0697 -0.72298,-0.74431 -1.46967,-1.46492 -2.88007,-1.33455 0.0261,-0.53098 0.42667,-1.17336 0.77276,-1.5953 0.34608,-0.43142 0.65187,-0.60446 0.69216,-1.07143 0.0261,-0.3129 -0.0545,-0.29157 -0.37215,0.0284 -0.21334,0.21097 -1.20892,1.25396 -1.43886,1.57397 -0.26548,0.37215 -0.45512,0.8818 -0.50727,1.11647 -0.69216,-0.45275 -1.25158,-0.61394 -1.81338,-0.61394 -0.55942,0 -1.1781,0.24889 -1.49811,0.45986 -0.33897,-0.23941 -0.58075,-0.93158 -0.25837,-1.49337 0.38875,-0.68505 1.56922,-1.52419 2.82318,-1.54552 0.48119,-0.69216 1.19943,-1.2824 1.76123,-1.52419 0.64712,-0.27497 1.31796,-0.43852 2.10257,-0.0806 0.69453,0.32238 1.27766,0.91262 1.25395,1.20418 0.64002,0.0213 1.70434,0.16119 2.00065,0.4812 0.29156,0.32 0.42667,0.58312 0.45038,1.14254 0.45275,0.0521 0.77276,0.13275 1.14492,0.18253 0,0.48119 0.0545,1.12358 0.2157,1.57633 0.15882,0.45038 0.15882,0.85098 0.15882,1.14255 0,0.29867 -0.13274,0.67083 -0.29393,0.96239 -0.15645,0.29156 -0.37216,0.91025 -0.95765,0.82491 -0.18727,-0.0237 -0.16119,0 -0.13275,-0.61394 0.019,-0.47172 0.0782,-0.74194 -0.21334,-0.74194 -0.29156,0 -0.45275,0.0498 -0.66846,0.42193 -0.21097,0.37927 -0.45038,0.9624 -0.53097,1.41278 -0.0806,0.45275 -0.0806,1.06432 -0.37216,1.36299 -0.0806,0.0806 -0.16119,0.0237 -0.4812,-0.13748 -0.32001,-0.16119 -0.95765,-0.34134 -1.94612,-0.38638"
         id="path898"
         style="fill:#ffffff;fill-opacity:1;fill-rule:nonzero;stroke:none" />
      <path
         d="m 443.28817,594.77794 c 0.10904,-0.85335 0.34608,-1.67589 0.53098,-2.39887 0.18963,-0.72061 0.56179,-2.1571 0.96239,-3.33046 -0.82728,0.21097 -1.30848,0.37216 -1.86553,1.06433 -0.56179,0.69216 -0.9861,1.38433 -0.9861,2.37517 0,0.98609 0.32001,1.7067 1.35826,2.28983"
         id="path902"
         style="fill:#ffffff;fill-opacity:1;fill-rule:nonzero;stroke:none" />
      <path
         d="m 441.37144,591.55606 c 0.34608,-0.93395 0.90313,-1.7636 1.38433,-2.1642 0.52624,-0.42905 1.54552,-1.06432 2.29221,-1.14492 0.61394,-1.09277 1.28003,-2.15709 1.76122,-2.79711 -0.13511,-0.4243 -0.18963,-0.82491 -0.0545,-1.25395 -1.46492,-0.0806 -2.39887,0.0569 -3.70735,0.56653 -1.30373,0.50253 -2.18316,1.48863 -2.63828,2.26139 -0.45276,0.77039 -0.61158,1.57396 -0.47646,2.31591 0.13037,0.75142 0.55705,1.75649 1.43885,2.21635"
         id="path906"
         style="fill:#ffffff;fill-opacity:1;fill-rule:nonzero;stroke:none" />
      <path
         d="m 440.96681,580.86376 c 1.18047,-0.75854 3.64098,-1.93901 5.36191,-1.89397 1.06669,0.0284 1.7873,0.40534 2.29458,0.88417 0.0545,-0.82728 0.36741,-1.89398 0.31763,-2.16183 -0.0545,-0.26549 -0.34608,-1.11648 -1.17336,-1.67827 -0.82728,-0.55705 -2.34672,-0.58312 -3.62676,-0.15645 -1.28003,0.42194 -1.8916,0.90314 -2.21161,1.41041 -0.31763,0.5049 -0.71824,1.41277 -0.82491,1.81101 -0.10903,0.4006 -0.21333,1.31084 -0.13748,1.78493"
         id="path910"
         style="fill:#ffffff;fill-opacity:1;fill-rule:nonzero;stroke:none" />
      <path
         d="m 443.50317,575.4817 c 1.14492,-0.32001 2.74496,-0.61157 3.81165,-0.23941 1.06432,0.37452 1.46493,0.77276 1.94375,1.50759 0.45038,-0.98847 0.96003,-1.98642 1.14729,-2.30643 0.18489,-0.32238 0.4006,-0.50727 0.13511,-1.17336 -0.26548,-0.66846 -0.61631,-1.17336 -1.25395,-1.491 -0.64239,-0.32001 -1.86553,-0.21571 -2.5577,0.0498 -0.6969,0.26786 -1.73515,0.98847 -2.10731,1.41514 -0.37215,0.42668 -1.17336,1.35826 -1.11884,2.23769"
         id="path914"
         style="fill:#ffffff;fill-opacity:1;fill-rule:nonzero;stroke:none" />
      <path
         d="m 446.64826,571.21777 c 0.87706,-0.21097 2.74496,-0.32001 3.62676,0.4006 0.87706,0.71824 1.03824,0.98373 1.08802,1.68064 0.8818,-0.72298 2.08124,-1.73516 3.33283,-2.40125 -0.13275,-0.45275 -0.66372,-1.06432 -1.67827,-1.62611 -1.01217,-0.55705 -2.31591,-0.42668 -3.06496,-0.32001 -0.74669,0.1043 -2.15946,0.53572 -2.53162,0.96239 -0.37453,0.42431 -0.72298,0.82254 -0.77276,1.30374"
         id="path918"
         style="fill:#ffffff;fill-opacity:1;fill-rule:nonzero;stroke:none" />
      <path
         d="m 450.51134,567.91221 c 1.65456,0.0806 4.07714,0.50727 5.30502,2.31828 0.9861,-0.50253 2.45102,-1.32981 2.98674,-1.67589 0.0498,-0.69217 -0.13511,-1.22789 -0.50727,-1.57634 -0.37453,-0.34371 -1.01454,-0.53098 -2.05279,-0.63527 -1.04062,-0.11141 -1.75886,-0.32238 -2.9583,-0.18964 -1.19943,0.13512 -1.60004,0.4812 -1.97219,0.80121 -0.37453,0.32 -0.64002,0.61157 -0.80121,0.95765"
         id="path922"
         style="fill:#ffffff;fill-opacity:1;fill-rule:nonzero;stroke:none" />
      <path
         d="m 456.61544,565.97391 c 1.01217,0.18489 2.29221,0.17778 3.3589,1.77782 0.96002,-0.55705 2.69044,-1.60241 3.43712,-2.26613 -0.13037,-0.72061 -0.69216,-1.4104 -1.64982,-1.83708 -1.28714,-0.57127 -1.65456,-0.61157 -2.1879,-0.69217 -0.15882,0.26549 -0.26549,0.63765 -0.23942,0.85336 -0.90787,0 -1.57159,-0.0261 -2.02671,0.4006 -0.45276,0.42668 -0.6661,0.79884 -0.69217,1.0098 -0.0261,0.21334 0,0.54283 0,0.7538"
         id="path926"
         style="fill:#ffffff;fill-opacity:1;fill-rule:nonzero;stroke:none" />
      <path
         d="m 459.99377,562.45359 c 1.491,0.34608 2.05516,0.54283 2.75918,0.95528 0.45038,0.26549 1.05958,0.93869 1.27055,1.44596 0.42668,-0.13037 0.8818,-0.53808 1.33455,-1.18047 0.45275,-0.63764 1.03825,-1.36063 1.03825,-1.9959 0,-0.64239 -0.13511,-1.06906 -1.17336,-1.65456 -0.50727,0.32001 -1.01218,0.77039 -2.26376,-0.0806 -0.55942,0.23941 -1.01218,0.74668 -0.80121,1.81337 -1.11884,0.0261 -1.95323,0.24653 -2.1642,0.69691"
         id="path930"
         style="fill:#ffffff;fill-opacity:1;fill-rule:nonzero;stroke:none" />
      <path
         d="m 490.9146,569.37358 c -2.10257,-2.45814 -4.72664,-5.13672 -9.91314,-5.13672 -2.63828,0 -7.86271,1.79204 -7.86271,5.64636 0,0.80358 0.10904,1.68064 0.4006,2.13339 0.21571,0.0284 0.66846,0.15882 0.93158,0.13511 -0.32001,-0.71824 -0.69216,-1.44122 -0.0237,-2.7734 -0.21571,-0.0521 -0.4812,-0.0261 -0.61394,0 0.21334,-0.42668 0.53334,-0.58787 0.85335,-0.74431 0.32238,-0.16119 0.82491,-0.40061 1.19944,-0.40061 -0.77276,0.69217 -1.09277,1.41515 -1.25396,1.89161 -0.16119,0.48119 -0.26549,1.46492 0.3769,1.96982 0.31527,0.0308 0.71587,0.0569 1.03588,0.0308 -0.26312,-0.50727 -0.72061,-0.98847 -0.53335,-1.76123 0.18963,-0.77276 0.43616,-1.2824 1.70434,-1.92005 0.58787,-0.29156 0.90787,-0.34608 1.12358,-0.37216 0.21097,-0.0261 0.1849,0.10667 0,0.16119 -0.18726,0.0545 -0.77276,0.45276 -1.17336,0.77276 -0.4006,0.32001 -0.80121,0.90788 -0.93395,1.49337 -0.13511,0.58313 -0.0806,1.0904 0.4006,1.65219 0.53335,0 0.90314,0 1.30611,-0.0569 -0.21571,-0.90313 -0.26786,-1.24921 -0.18726,-1.48863 0.13037,-0.40297 0.37215,-0.61394 0.74668,-0.90787 0.37216,-0.29156 1.5716,-1.14492 1.83708,-1.14492 0.26549,0 0.8818,0.3769 1.09277,0.66609 l -0.0545,0.0782 c -0.29156,-0.23942 -0.66372,-0.37216 -0.82254,-0.34609 -0.16119,0.0285 -0.48119,0.21334 -1.11884,0.66609 -0.64239,0.45276 -1.12121,0.80121 -1.12121,1.25396 0,0.45038 0.0782,0.93158 0.15882,1.22314 0.56179,-0.0237 1.06669,-0.0782 1.46492,-0.13037 0.0545,-0.4812 0.18964,-0.93158 0.56179,-1.09277 0.1849,-0.0806 0.1849,0.0142 0.0806,0.15645 -0.16119,0.21097 -0.21571,0.59024 -0.13275,0.90787 0.84862,0 1.73042,-0.0261 2.45103,-0.18489 -0.32238,-0.47883 -0.79884,-0.87943 -1.44122,-0.93395 0.0545,-0.16119 0.21571,-0.31764 0.69216,-0.26549 0.4812,0.0545 0.98847,0.13512 1.49337,1.01218 0.98847,-0.0806 2.58614,-0.42668 4.69108,-1.22552 -1.30373,-1.54789 -2.53162,-2.66673 -3.81165,-3.38497 -1.28003,-0.72061 -3.73105,-1.54552 -6.156,-1.41277 0.26786,-0.24179 0.61394,-0.34609 0.98847,-0.45276 0.37215,-0.1043 1.62611,-0.29393 2.47946,-0.0545 0.85099,0.23942 2.74259,1.06907 3.51535,1.46493 0.77276,0.4006 2.0765,1.46967 2.69281,2.00064 0.61157,0.53098 1.14492,1.06907 1.43885,1.41515 0.61394,-0.18727 0.98136,-0.32475 1.43648,-0.54046"
         id="path934"
         style="fill:#ffffff;fill-opacity:1;fill-rule:nonzero;stroke:none" />
      <path
         d="m 499.18716,549.17373 c -1.92005,0.95765 -3.47268,1.51233 -6.13704,1.65456 -2.00064,0.1043 -3.99655,-1.09277 -5.06561,-1.62611 -1.06432,-0.53098 -2.66673,-1.41752 -3.94676,-1.52182 0.64238,0.56416 1.46966,1.33692 1.65456,2.02909 0.18489,0.69216 0.34608,1.43885 -0.3532,2.23768 1.14966,0.4006 2.61933,0.75143 3.79506,0.82965 1.16862,0.0806 2.8777,-0.0284 3.46083,-0.083 0.58549,-0.0545 0.63053,-0.0118 0.10904,0.15645 -0.42668,0.13511 -2.08124,0.53571 -3.99892,0.32474 -1.91768,-0.2157 -3.65046,-0.66609 -5.43539,-1.35825 -1.78494,-0.69454 -2.98911,-1.14966 -3.28068,-1.30848 -0.29156,-0.16119 -0.53571,-0.13511 -1.41277,0.17067 -0.42431,0.14934 -2.07887,0.87232 -2.69044,1.77545 -0.61631,0.90551 -0.96239,2.26613 -0.32001,3.52009 0.64002,1.24922 1.54315,1.75649 2.10494,2.02672 0.55942,0.26549 1.91768,0.58075 3.67891,0.53097 -1.38433,-0.50727 -2.55769,-0.93394 -3.22615,-1.73515 -0.6661,-0.79646 -1.19944,-1.5953 -1.0667,-2.58377 0.13275,-0.9861 0.64002,-1.75886 2.93222,-1.60004 2.29221,0.16119 5.07983,1.0904 5.22443,2.71889 0.0782,0.90787 -1.06432,1.49574 -1.73278,1.8916 -0.57602,0.34608 -0.78936,0.37453 -0.26549,0.61631 0.4006,0.18252 1.01217,0.39823 2.42732,0.29156 1.40803,-0.10667 3.27593,-0.61157 5.22205,-1.51944 1.94613,-0.90314 3.89225,-2.36569 5.41169,-3.7761 1.51471,-1.41277 2.28747,-2.35383 2.91089,-3.66231"
         id="path938"
         style="fill:#ffffff;fill-opacity:1;fill-rule:nonzero;stroke:none" />
      <path
         d="m 476.5415,550.98877 c -1.34877,1.03114 -1.98879,2.13102 -2.05753,3.51772 -0.0735,1.3867 1.3227,2.90377 2.06938,3.50823 0.74669,0.60446 1.8039,1.04299 4.18381,1.07381 2.37991,0.0379 6.14652,-0.28208 8.24198,2.06464 2.09546,2.34673 2.31117,4.2644 0.8178,6.25319 -1.28003,-1.28003 -3.16215,-2.52213 -4.69108,-3.09104 -0.35319,-0.71113 -0.88417,-1.31558 -2.66199,-1.56211 -1.78019,-0.25364 -4.90679,-0.60683 -6.86002,-1.95797 -1.95324,-1.34878 -3.44661,-2.76867 -3.44661,-5.47095 0,-2.13102 2.06228,-4.37108 4.40426,-4.33552"
         id="path942"
         style="fill:#ffffff;fill-opacity:1;fill-rule:nonzero;stroke:none" />
      <path
         d="m 462.11436,606.85481 c -1.06432,-0.18252 -2.91563,-0.1446 -3.65757,0.0356 -0.74906,0.17541 -1.99116,1.20417 -2.20687,1.59767 -0.21097,0.39349 -0.56653,1.59529 0.21571,2.41309 0.21097,-0.67083 0.5689,-1.52418 0.99558,-1.88212 0.42667,-0.35556 1.87975,-0.88891 3.30438,-0.81543 0.49542,0.70639 0.96002,1.2753 1.38433,1.45782 0.32237,-0.92684 0.49542,-1.63323 -0.0356,-2.80659"
         id="path946"
         style="fill:#ffffff;fill-opacity:1;fill-rule:nonzero;stroke:none" />
      <path
         d="m 462.64652,609.79983 c 0.28445,-1.06432 0.5689,-2.20213 -0.1043,-3.41105 0.74669,-0.38638 1.84657,-0.32001 2.69755,0.10904 0.85335,0.42194 1.49574,0.81543 2.31117,0.49542 0.8178,-0.32001 2.09546,-0.96239 2.59562,-0.99084 0.49542,-0.0355 0.77987,0.17541 1.77308,-0.14696 1.00032,-0.32001 1.78019,-0.85099 2.28035,-1.17337 0.49542,-0.32 1.52656,-0.74194 2.30643,-0.77987 0.78224,-0.0355 1.35114,-0.17304 1.56211,-0.28445 0.21571,-0.10904 0.28682,-0.35556 -0.17304,-0.24652 -0.4646,0.10192 -0.88891,0.24652 -1.5313,0.24652 -0.63764,0 -1.66878,0.0379 -2.0599,0 -0.38875,-0.0356 -0.99558,-0.45749 -2.13101,-0.42905 -1.13781,0.0356 -2.31117,0.32001 -2.98675,0.50253 -0.67557,0.17542 -2.27561,0.74432 -2.59325,0.45987 -0.32,-0.28445 -0.42667,-0.88891 -0.64238,-1.31322 -0.21097,-0.42905 -0.81543,-1.31796 -1.09988,-1.77782 -0.28445,-0.45987 -0.10667,-0.77987 0.0379,-1.34878 0.13985,-0.5689 0.49542,-1.35588 1.13543,-2.3088 0.63765,-0.96239 1.63323,-2.23768 2.02672,-2.84214 0.39112,-0.60683 1.91531,-2.17368 2.48421,-2.6691 0.5689,-0.49542 1.88449,-1.63323 2.41784,-2.13576 0.78224,0.50253 1.35114,1.24685 1.45781,2.52214 0.1043,1.2824 -0.14223,2.06227 -0.39112,2.5648 0.99558,-0.35556 2.84214,-0.78698 3.6955,-0.74905 0.85335,0.0355 1.84893,0.35556 2.34435,0.74905 -0.53334,1.20418 -0.98372,1.8442 -2.80658,2.982 -0.56891,0.35794 -1.45782,0.7135 -2.02672,0.77987 -0.5689,0.0735 -1.66878,0.18253 -2.34436,0.32001 -0.67794,0.14697 -1.20892,0.35794 -1.41988,0.43142 -0.21571,0.0711 -0.42668,0.32001 0.0332,0.21097 0.46224,-0.10193 0.9624,-0.2489 1.70908,-0.35794 0.74195,-0.10193 1.84657,-0.13748 2.62644,-0.13748 0.78461,0 1.63796,0 2.38465,0.39349 0.74431,0.38638 1.34877,1.06432 2.34198,1.09988 0.99558,0.0355 2.31117,-0.1446 2.5577,0.17541 0.25363,0.32001 0.21571,0.85098 -0.0688,1.34877 0.28446,0.53098 0.32238,0.99795 0.21097,1.60241 -0.1043,0.60446 -0.32001,1.13781 -0.77987,1.59767 0.74432,-0.13985 1.45545,-0.32238 2.24006,-1.24684 0.7775,-0.91973 0.95765,-1.77071 1.09988,-2.52214 0.14222,-0.74431 0.28445,-1.23973 0.49779,-1.45781 0.21096,-0.21097 0.60446,-0.38638 0.81779,-0.0356 0.21571,0.35556 0.88892,1.92242 0.88892,2.8777 0,0.9624 -0.18016,1.74227 -1.28004,2.70466 -1.09988,0.9624 -2.13101,1.20892 -3.6955,1.5313 -1.56211,0.31289 -2.84214,0.53097 -3.69549,1.27529 -0.85099,0.74905 -1.45545,1.60241 -2.02435,2.14998 -0.50016,0.47408 -1.42226,0.55231 -1.78968,0.85809 -0.39112,0.32949 -0.66372,1.15203 -1.02165,1.4673 -0.35319,0.32001 -1.27766,0.29156 -1.56211,0.60446 -0.28445,0.32001 0.0356,0.75143 -0.49542,1.60241 -0.37927,0.60683 -0.8178,0.92684 -1.03351,1.02877 -0.21097,0.10904 -0.38875,0.0735 -0.53098,-0.21097 -0.14222,-0.28445 -0.78224,-0.85336 -1.60004,-0.8178 0.46224,0.67794 0.77987,1.17336 0.85336,1.91768 -0.53098,0.64238 -0.78461,1.20892 -0.74669,1.74226 0.0356,0.53098 0.53572,1.17336 0.81543,1.5953 -0.88417,0 -1.20418,-0.17541 -1.63323,-0.81543 -0.4243,-0.64238 -0.64001,-1.23973 -0.6732,-1.87975 -0.0356,-0.64238 0.14223,-1.17336 0.53335,-1.66878 -0.32238,-1.0738 -0.60683,-1.70671 -0.50016,-2.1002 0.10904,-0.39349 0.85335,-1.06432 1.13543,-1.2824 0.28446,-0.21334 0.78462,-0.49779 0.9624,-0.67083 0.17541,-0.18253 0.42668,-0.67795 0.81543,-1.03588 0.39112,-0.35082 0.7135,-0.42194 1.3867,-0.70639 0.67794,-0.28445 1.88449,-0.7135 2.24242,-0.85335 0.35083,-0.1446 1.0264,-0.85336 1.27767,-1.09988 0.24889,-0.2489 0.82016,-0.66372 1.09987,-0.78699 0.67558,-0.27734 0.28446,-0.38637 -0.13985,-0.27734 -0.42905,0.10193 -0.96002,0.45987 -1.3867,0.77988 -0.42668,0.32 -0.78461,0.74431 -1.74227,1.20891 -0.96002,0.45987 -1.49337,0.63528 -1.98879,0.74432 -0.50016,0.10904 -1.03113,0.13986 -1.38907,0.70639 -0.35319,0.5689 -0.63764,1.07143 -1.34877,1.56685 -0.70876,0.49542 -1.66879,0.9624 -1.56212,2.34673 -0.5689,0 -0.99558,0.10192 -1.42225,0.21334 -0.49779,-0.8178 -0.74669,-1.38671 -0.9624,-1.49575 -0.21097,-0.10192 -0.53097,-0.064 -0.63764,-0.0356 -0.1043,0.0356 -0.0735,0.14459 0.10667,0.32001 0.17778,0.18252 0.32,0.60446 0.24652,0.85335 -0.0687,0.24652 -0.15645,0.34134 -0.38875,0.5689 -0.63765,0.64002 -1.52656,1.92479 -1.74227,2.70466 -0.45749,-0.46697 -0.81542,-1.42225 -0.5689,-2.45813 0.25127,-1.0264 1.06906,-1.87975 1.45782,-2.37517 -0.0356,-0.85336 0.0379,-1.21129 0.39112,-1.60478 0.35556,-0.38638 1.10462,-1.0264 1.49337,-1.13544 0.39112,-0.10193 1.45781,-0.32001 1.95323,-0.42431 0.50016,-0.10904 0.78224,0.0379 1.49574,-0.85098 0.70876,-0.88891 1.41989,-1.10225 2.34436,-1.06432 0.92209,0.0284 1.77545,-0.0379 2.69991,-0.46698 0.92447,-0.42193 1.52893,-0.93158 1.88213,-1.25395 0.26548,-0.23942 0.0356,-0.30579 -0.2489,-0.13038 -0.28445,0.17541 -1.2421,0.64002 -1.98879,0.92447 -0.74668,0.28445 -1.2421,0.35793 -2.20213,0.32238 -0.96239,-0.0379 -1.20892,-0.22045 -1.92005,0.24652 -0.71113,0.45987 -1.28003,1.20892 -1.60004,1.45782 -0.32,0.24889 -1.06432,0.53097 -1.74226,0.63527 -0.6732,0.10904 -1.84657,0.46461 -3.30438,0.32001"
         id="path950"
         style="fill:#ffffff;fill-opacity:1;fill-rule:nonzero;stroke:none" />
      <path
         d="m 415.15805,482.66209 c -0.67083,-0.7372 -1.52656,-1.20181 -2.69755,-1.20181 -1.12121,0 -2.19739,0.69928 -2.19739,1.64982 0,2.46288 7.135,1.43648 7.135,6.34564 0,2.92985 -2.24006,5.00398 -5.9166,5.00398 -2.48184,0 -4.29758,-1.16388 -5.53732,-2.85163 l 2.2685,-1.8039 c 0.47646,1.12596 1.74227,2.13339 3.24749,2.13339 1.427,0 2.31354,-0.98847 2.31354,-2.11442 0,-1.51234 -1.72093,-1.93901 -3.1266,-2.38703 -2.31591,-0.77513 -4.00839,-1.72804 -4.00839,-3.99891 0,-2.42258 2.21872,-4.38292 5.24576,-4.38292 1.60004,0 3.82113,0.64238 4.92101,1.62848 l -1.64745,1.97931 z"
         id="path954"
         style="fill:#e2231b;fill-opacity:1;fill-rule:nonzero;stroke:none" />
      <path
         d="m 424.4544,494.07215 -3.50824,0 0,-12.14608 -3.62675,0 0,-2.48184 10.76175,0 0,2.48184 -3.62676,0 0,12.14608 z"
         id="path958"
         style="fill:#e2231b;fill-opacity:1;fill-rule:nonzero;stroke:none" />
      <path
         d="m 429.99765,492.71295 c 0,0.95054 -0.95528,1.74464 -2.1239,1.74464 -1.171,0 -2.12628,-0.7941 -2.12628,-1.74464 0,-0.95054 0.95528,-1.70671 2.12628,-1.70671 1.16862,0 2.1239,0.75617 2.1239,1.70671"
         id="path962"
         style="fill:#e2231b;fill-opacity:1;fill-rule:nonzero;stroke:none" />
      <path
         d="m 446.13079,486.29169 0,0.36742 c 0,4.13403 -2.60273,7.79871 -8.18509,7.79871 -5.2505,0 -8.56673,-3.60779 -8.56673,-7.64227 0,-4.17195 3.41104,-7.76078 8.78244,-7.76078 3.05311,0 5.72932,1.26107 7.10891,3.49164 l -3.10052,1.35826 c -0.7135,-1.32033 -2.24242,-2.32776 -4.10321,-2.32776 -3.38971,0 -5.06324,2.81133 -5.06324,5.23864 0,2.42495 1.69486,5.12013 5.08457,5.12013 2.19739,0 4.03447,-1.55263 4.10796,-3.31623 l -3.82113,0 0,-2.32776 7.75604,0 z"
         id="path966"
         style="fill:#e2231b;fill-opacity:1;fill-rule:nonzero;stroke:none" />
      <path
         d="m 450.39828,481.92584 0,3.22141 5.58236,0 0,2.48184 -5.58236,0 0,3.95862 5.79807,0 0,2.48421 -9.30868,0 0,-14.62792 9.30868,0 0,2.48184 -5.79807,0 z"
         id="path970"
         style="fill:#e2231b;fill-opacity:1;fill-rule:nonzero;stroke:none" />
      <path
         d="m 460.43467,486.62332 c 0,2.20924 2.28983,5.02294 5.27183,5.02294 2.982,0 5.27421,-2.8137 5.27421,-5.02294 0,-2.36806 -2.19502,-4.75508 -5.27421,-4.75508 -3.07681,0 -5.27183,2.38702 -5.27183,4.75508 m -3.62913,0.11378 c 0,-4.09373 3.65046,-7.68256 8.90096,-7.68256 5.25288,0 8.90334,3.58883 8.90334,7.68256 0,4.19329 -3.65046,7.72049 -8.90334,7.72049 -5.2505,0 -8.90096,-3.5272 -8.90096,-7.72049"
         id="path974"
         style="fill:#e2231b;fill-opacity:1;fill-rule:nonzero;stroke:none" />
      <path
         d="m 478.93658,486.17507 0.45512,0 c 1.9319,0 3.29253,-0.46697 3.29253,-2.24954 0,-1.80626 -1.40804,-2.15235 -3.27119,-2.15235 l -0.47646,0 0,4.40189 z m 8.66629,7.89827 -4.25018,0 -4.3687,-5.89763 -0.0474,0 0,5.89763 -3.50586,0 0,-14.63029 4.74796,0 c 3.55802,0 6.01378,1.28003 6.01378,4.40426 0,1.86079 -1.26343,3.72394 -3.67416,4.0558 l 5.08457,6.17023 z"
         id="path978"
         style="fill:#e2231b;fill-opacity:1;fill-rule:nonzero;stroke:none" />
      <path
         d="m 503.37808,486.29169 0,0.36742 c 0,4.13403 -2.59799,7.79871 -8.18509,7.79871 -5.2505,0 -8.56673,-3.60779 -8.56673,-7.64227 0,-4.17195 3.41341,-7.76078 8.78244,-7.76078 3.05311,0 5.72932,1.26107 7.11366,3.49164 l -3.10527,1.35826 c -0.7135,-1.32033 -2.24005,-2.32776 -4.10321,-2.32776 -3.38971,0 -5.0585,2.81133 -5.0585,5.23864 0,2.42495 1.69486,5.12013 5.08457,5.12013 2.19265,0 4.02973,-1.55263 4.10322,-3.31623 l -3.81876,0 0,-2.32776 7.75367,0 z"
         id="path982"
         style="fill:#e2231b;fill-opacity:1;fill-rule:nonzero;stroke:none" />
      <path
         d="m 507.61285,481.92584 0,3.22141 5.58236,0 0,2.48184 -5.58236,0 0,3.95862 5.79807,0 0,2.48421 -9.30631,0 0,-14.62792 9.30631,0 0,2.48184 -5.79807,0 z"
         id="path986"
         style="fill:#e2231b;fill-opacity:1;fill-rule:nonzero;stroke:none" />
      <path
         d="m 480.24862,652.29926 0.38875,-0.18252 c 1.65456,-0.80121 2.62881,-1.75649 1.89397,-3.28779 -0.74431,-1.54552 -2.09783,-1.26107 -3.69076,-0.49542 l -0.40534,0.19675 1.81338,3.76898 z m 10.67641,3.19297 -3.63623,1.74938 -6.1726,-3.24512 -0.0403,0.0166 2.42969,5.04901 -3.00096,1.45071 -6.03986,-12.52772 4.07003,-1.96035 c 3.04363,-1.46492 5.67955,-1.3867 6.96432,1.28952 0.77039,1.5953 0.45749,3.70972 -1.47204,4.99212 l 6.89795,3.18586 z"
         id="path990"
         style="fill:#e2231b;fill-opacity:1;fill-rule:nonzero;stroke:none" />
      <path
         d="m 491.24978,646.44643 0.36979,-0.21808 c 1.56922,-0.95528 2.44391,-2.00538 1.56448,-3.45609 -0.89128,-1.46492 -2.20687,-1.05721 -3.7192,-0.13748 l -0.38638,0.2323 2.17131,3.57935 z m 10.93716,2.14287 -3.45609,2.1002 -6.45704,-2.63829 -0.0356,0.0213 2.90852,4.79538 -2.85163,1.72805 -7.21796,-11.88771 3.85906,-2.33961 c 2.88955,-1.75649 5.51599,-1.9319 7.05914,0.61157 0.9221,1.50759 0.81306,3.64335 -0.98373,5.10116 l 7.17529,2.50792 z"
         id="path994"
         style="fill:#e2231b;fill-opacity:1;fill-rule:nonzero;stroke:none" />
      <path
         d="m 422.09677,633.09333 2.72125,1.99827 -6.31482,8.57147 3.67416,2.70229 -1.92478,2.61696 -6.39305,-4.70056 8.23724,-11.18843 z"
         id="path998"
         style="fill:#e2231b;fill-opacity:1;fill-rule:nonzero;stroke:none" />
      <path
         d="m 429.85542,638.6553 2.78525,1.9082 -6.03985,8.76821 3.76187,2.58851 -1.84182,2.67385 -6.54002,-4.49671 7.87457,-11.44206 z"
         id="path1002"
         style="fill:#e2231b;fill-opacity:1;fill-rule:nonzero;stroke:none" />
      <path
         d="m 440.06676,654.3108 0.68505,-4.73612 c 0.0403,-0.22045 0.1683,-0.84624 0.37927,-1.88923 -0.65661,0.83202 -1.07617,1.32744 -1.21366,1.49337 l -3.16689,3.58646 3.31623,1.54552 z m -0.0877,-9.64291 4.16959,1.93901 -1.01454,14.57814 -3.93729,-1.56211 0.43379,-2.53399 -4.73612,-2.20924 -1.75886,2.08361 -3.24037,-1.66167 10.0838,-10.63375 z"
         id="path1006"
         style="fill:#e2231b;fill-opacity:1;fill-rule:nonzero;stroke:none" />
      <path
         d="m 454.71672,655.70272 c -0.37927,0.99795 -0.14934,0.54046 -0.69691,1.79441 l -2.48184,5.97586 -3.96335,-1.02877 -1.45071,-15.10912 4.15774,1.71382 0.34134,6.66802 c 0.0782,0.71587 0.11852,1.42226 0.14222,2.11443 0.22282,-0.69928 0.4812,-1.37011 0.73721,-2.00539 l 2.14998,-5.83837 3.66705,0.65661 0.48831,5.97823 c 0.15645,1.27529 0.15645,1.98168 0.16356,2.0836 0.27971,-0.84624 0.79172,-2.23057 1.22077,-3.57223 l 1.63323,-4.63419 4.30944,-0.39349 -5.46621,14.50465 -3.95388,-0.46697 -0.52386,-4.18381"
         id="path1010"
         style="fill:#e2231b;fill-opacity:1;fill-rule:nonzero;stroke:none" />
      <path
         d="m 472.84316,657.26246 -2.27324,-4.21225 c -0.0996,-0.19675 -0.37216,-0.77276 -0.82017,-1.73516 -0.0332,1.05721 -0.0735,1.6996 -0.083,1.92479 l -0.40534,4.76693 3.58172,-0.74431 z m -5.8194,-7.68967 4.50381,-0.92447 7.36493,12.66757 -3.5272,0.8581 -1.22077,-2.41784 -5.11776,1.04773 -0.17778,2.73311 -4.11744,0.7372 2.29221,-14.7014 z"
         id="path1014"
         style="fill:#e2231b;fill-opacity:1;fill-rule:nonzero;stroke:none" />
      <path
         d="m 506.52696,638.46567 -3.96099,-2.68333 c -0.18015,-0.13037 -0.68979,-0.51675 -1.53129,-1.16625 0.46223,0.95529 0.72298,1.54552 0.81305,1.74938 l 1.8442,4.41137 2.83503,-2.31117 z m -8.7137,-4.12692 3.5675,-2.90614 12.38312,7.82715 -2.83503,2.31117 -2.09546,-1.50285 -4.0487,3.30201 1.02877,2.37043 -2.83503,2.3088 -5.16517,-13.71057 z"
         id="path1018"
         style="fill:#e2231b;fill-opacity:1;fill-rule:nonzero;stroke:none" />
      <path
         d="m 417.42466,629.37649 2.63118,2.01961 -8.46481,11.02012 -2.63117,-2.02672 8.4648,-11.01301 z"
         id="path1022"
         style="fill:#e2231b;fill-opacity:1;fill-rule:nonzero;stroke:none" />
    </g>
  </g>
</svg>
