<?xml version="1.0" encoding="UTF-8" standalone="no"?>
<!-- Created with Inkscape (http://www.inkscape.org/) -->

<svg
   xmlns:dc="http://purl.org/dc/elements/1.1/"
   xmlns:cc="http://creativecommons.org/ns#"
   xmlns:rdf="http://www.w3.org/1999/02/22-rdf-syntax-ns#"
   xmlns:svg="http://www.w3.org/2000/svg"
   xmlns="http://www.w3.org/2000/svg"
   xmlns:sodipodi="http://sodipodi.sourceforge.net/DTD/sodipodi-0.dtd"
   xmlns:inkscape="http://www.inkscape.org/namespaces/inkscape"
   width="77.139954"
   height="91.000107"
   viewBox="0 0 20.409946 24.077112"
   version="1.1"
   id="svg11463"
   inkscape:version="0.92.0 r15299"
   sodipodi:docname="newcastle knights.svg">
  <defs
     id="defs11457" />
  <sodipodi:namedview
     id="base"
     pagecolor="#ffffff"
     bordercolor="#666666"
     borderopacity="1.0"
     inkscape:pageopacity="0.0"
     inkscape:pageshadow="2"
     inkscape:zoom="5.922215"
     inkscape:cx="38.069974"
     inkscape:cy="45.000055"
     inkscape:document-units="mm"
     inkscape:current-layer="layer1"
     showgrid="false"
     fit-margin-top="0"
     fit-margin-left="0"
     fit-margin-right="0"
     fit-margin-bottom="0"
     units="px"
     inkscape:window-width="1280"
     inkscape:window-height="744"
     inkscape:window-x="-4"
     inkscape:window-y="-4"
     inkscape:window-maximized="1" />
  <metadata
     id="metadata11460">
    <rdf:RDF>
      <cc:Work
         rdf:about="">
        <dc:format>image/svg+xml</dc:format>
        <dc:type
           rdf:resource="http://purl.org/dc/dcmitype/StillImage" />
        <dc:title></dc:title>
      </cc:Work>
    </rdf:RDF>
  </metadata>
  <g
     inkscape:label="Layer 1"
     inkscape:groupmode="layer"
     id="layer1"
     transform="translate(-119.19518,-175.972)">
    <g
       transform="translate(-981.71677,-961.89008)"
       id="g11442">
      <path
         style="clip-rule:evenodd;fill:#0054a6;fill-rule:nonzero;stroke-width:0.26458332;stroke-linejoin:round;stroke-miterlimit:2"
         inkscape:connector-curvature="0"
         d="m 1120.6794,1159.2766 c -0.095,-0.075 -0.1913,-0.131 -0.2868,-0.1672 -0.095,-0.036 -0.1878,-0.054 -0.2775,-0.054 -0.1135,0 -0.2059,0.026 -0.2776,0.078 -0.071,0.052 -0.1077,0.1204 -0.1077,0.2043 0,0.058 0.018,0.1061 0.054,0.1434 0.036,0.038 0.083,0.071 0.1413,0.098 0.058,0.028 0.1238,0.052 0.1966,0.072 0.073,0.02 0.1458,0.042 0.2175,0.065 0.2863,0.093 0.4958,0.217 0.6289,0.3718 0.1331,0.1547 0.1995,0.3571 0.1995,0.6064 0,0.168 -0.029,0.3201 -0.088,0.4564 -0.058,0.1362 -0.1431,0.2529 -0.2548,0.35 -0.1122,0.097 -0.2495,0.1725 -0.4122,0.2262 -0.1627,0.054 -0.3471,0.08 -0.553,0.08 -0.427,0 -0.8226,-0.123 -1.1866,-0.3693 l 0.3759,-0.6869 c 0.1315,0.113 0.2614,0.1968 0.39,0.2521 0.1281,0.055 0.2551,0.083 0.3805,0.083 0.1431,0 0.2498,-0.032 0.3199,-0.095 0.07,-0.064 0.1053,-0.1363 0.1053,-0.2175 0,-0.049 -0.01,-0.092 -0.027,-0.1283 -0.018,-0.036 -0.048,-0.07 -0.09,-0.1 -0.042,-0.03 -0.096,-0.059 -0.1635,-0.085 -0.067,-0.026 -0.1485,-0.055 -0.244,-0.087 -0.1135,-0.035 -0.2246,-0.073 -0.3336,-0.1153 -0.109,-0.042 -0.2059,-0.098 -0.2911,-0.1672 -0.085,-0.07 -0.1537,-0.1569 -0.2061,-0.263 -0.052,-0.1056 -0.078,-0.2397 -0.078,-0.4022 0,-0.1622 0.028,-0.3093 0.083,-0.4411 0.055,-0.1317 0.1325,-0.2452 0.2328,-0.3391 0.1,-0.094 0.2223,-0.1675 0.3673,-0.2197 0.1444,-0.052 0.3063,-0.078 0.4857,-0.078 0.1673,0 0.3419,0.022 0.5239,0.067 0.182,0.045 0.3567,0.1109 0.5239,0.1982 z m -8.237,0.612 v 1.6367 c -0.2384,0.1728 -0.7614,0.2566 -1.157,0.2566 -1.0168,0 -1.8251,-0.667 -1.8251,-1.7348 0,-1.0679 0.8083,-1.7164 1.8251,-1.7164 0,0 0,3e-4 0,3e-4 0.017,-8e-4 0.034,0 0.052,0 0.1315,0 0.2677,0.014 0.4085,0.042 0.039,0.01 0.077,0.016 0.1146,0.025 v 8e-4 c 0.024,0.01 0.048,0.013 0.071,0.02 0.1555,0.044 0.3061,0.1019 0.4505,0.1773 l -0.3492,0.6651 c -0.1323,-0.097 -0.2736,-0.1423 -0.3929,-0.1635 -0.063,-0.01 -0.126,-0.015 -0.1881,-0.015 -0.5361,0 -0.9615,0.3686 -0.9615,0.9702 0,0.5967 0.3532,0.97 0.8636,0.97 0.038,0 0.1145,0 0.1574,-0.01 v -0.4617 h -0.4212 v -0.6622 z m -10.1486,1.7954 h -0.9615 v -2.4484 c 0,-0.3545 -0.051,-0.6112 -0.2849,-0.6903 v -0.1212 h 1.2464 v 1.2965 l 0.7824,-1.2965 h 1.0977 l -1.021,1.469 1.1102,1.7909 h -1.1869 l -0.7824,-1.4083 z m 6.8776,0 h -0.9615 v -2.4484 c 0,-0.3545 -0.051,-0.6112 -0.285,-0.6903 v -0.1212 h 1.2465 z m 9.4594,-2.4299 h -0.8123 v 2.4299 h -0.9573 v -2.4299 h -0.8125 v -0.83 h 2.5821 z m -4.7808,2.4299 h -0.9612 v -2.4484 c 0,-0.3545 -0.051,-0.6112 -0.2852,-0.6903 v -0.1212 h 1.2464 v 1.2592 h 0.9528 v -1.2592 h 0.957 v 3.2599 h -0.957 v -1.2594 h -0.9528 z m -8.3365,0 h -0.8892 v -2.4484 c 0,-0.3545 -0.051,-0.6064 -0.285,-0.6855 v -0.126 h 1.1316 l 1.3314,1.637 v -1.637 h 0.8848 v 3.2599 h -0.7657 l -1.4079,-1.7118 z"
         id="path11404" />
      <path
         style="clip-rule:evenodd;fill:#e92d2b;fill-rule:nonzero;stroke-width:0.26458332;stroke-linejoin:round;stroke-miterlimit:2"
         inkscape:connector-curvature="0"
         d="m 1104.1509,1147.1227 c 1.4317,0.1389 1.659,-1.2475 -0.4664,-2.5162 -2.1257,-1.2702 -2.7012,-2.3275 -2.6353,-3.6433 0.068,-1.3158 1.1356,-2.6442 3.1414,-2.8953 2.0058,-0.2501 3.0848,0.1505 5.143,1.0086 2.059,0.8585 5.6885,-0.069 7.1715,-0.2681 1.4825,-0.1995 2.4466,0.041 3.2057,0.6861 1.1631,0.9882 1.029,3.5893 -0.7927,4.2378 -1.7208,0.6123 -4.8667,-0.6064 -6.1606,-0.9162 -0.7575,-0.1815 -0.6664,0.3558 -0.2121,0.5143 l -0.5639,0.1887 c -0.9797,-0.395 -1.1792,-0.8594 -0.9639,-1.2743 l -0.2973,0.04 c -1.3232,0.1227 -1.7439,-0.031 -2.8266,-0.2321 -1.8701,-0.3474 -1.7288,1.1703 -0.2119,1.0504 1.5197,-0.1193 2.1828,0.2837 2.6088,0.9388 -2.5133,2.1936 -2.7827,5.4213 -2.7827,5.4213 -4.6468,2.5678 -6.6497,-1.8823 -5.0916,-4.4561 0.015,0.1653 0.303,1.9759 1.7346,2.1153 z"
         id="path11406" />
      <path
         style="clip-rule:evenodd;fill:#ffffff;fill-rule:nonzero;stroke-width:0.26458332;stroke-linejoin:round;stroke-miterlimit:2"
         inkscape:connector-curvature="0"
         d="m 1116.1561,1156.8848 v 0.3921 c -2.5262,-1.3647 -5.5139,-3.311 -9.6856,-2.0071 l 0.078,-0.1165 0.8816,-1.2313 c -0.5773,-3.4224 -1.188,-7.8851 4.1725,-10.6696 1.9354,0.6715 4.4815,1.3425 7.0255,5.167 l 2.41,-0.101 c -1.4261,1.6777 -2.4439,3.1541 -2.9866,4.8982 l -0.7808,-0.3358 c -0.4751,1.3751 -0.8138,1.9124 -1.0522,3.4563 z m -10.8492,-18.4232 c -1.3438,-0.057 -3.3261,1.0035 -3.3068,2.7932 0.022,2.0669 4.1511,2.7516 4.1511,5.1165 0,0.8316 -0.6152,1.3136 -1.4232,1.2705 0,0 1.0718,-0.1018 1.0718,-1.1679 0,-2.3055 -4.1749,-2.754 -4.1749,-5.2197 0,-2.4452 2.6393,-2.886 3.682,-2.7926 z m 14.5394,3.4398 c -0.035,1.741 -2.7919,1.5817 -3.9251,1.2531 1.3094,0.055 3.7266,-0.048 3.9251,-1.2531 z"
         id="path11408" />
      <path
         style="clip-rule:evenodd;fill:#231f20;fill-rule:nonzero;stroke-width:0.26458332;stroke-linejoin:round;stroke-miterlimit:2"
         inkscape:connector-curvature="0"
         d="m 1118.7205,1148.3279 c -2.6099,-3.9696 -5.2179,-4.6665 -7.2001,-5.3629 -4.893,2.5739 -4.9433,6.4479 -4.476,9.7912 0.07,0.6011 -0.1418,1.2306 -0.4509,1.805 -0.1473,0.2754 -0.3508,0.5384 -0.5169,0.7329 l -0.1831,0.2 -0.2683,0.2209 c 3.3567,-1.5105 6.9707,-0.2063 9.4922,1.2018 l 1.0803,0.653 h 1.1271 8e-4 l -1.1229,-0.6885 c 0.245,-1.5795 0.6429,-2.5034 1.1255,-3.9208 l 0.8009,0.3482 c 0.5559,-1.8103 1.5989,-3.3428 3.0605,-5.0845 z m 0.227,1.1948 -0.2315,0.3959 c -0.034,0.061 -0.069,0.1254 -0.1045,0.1905 l -0.2088,0.3942 c -0.033,0.062 -0.065,0.1259 -0.097,0.1902 l -0.1929,0.3956 c -0.1783,0.3767 -0.3653,0.7921 -0.5667,1.2615 -0.8998,-0.3125 -3.9709,-0.9893 -5.8187,-1.2189 -0.082,-0.3689 -0.2291,-0.9689 -0.4538,-1.6793 -0.1656,0.091 -0.3558,0.1428 -0.558,0.1428 -0.066,0 -0.1309,-0.01 -0.1944,-0.016 0.3751,1.1747 0.5373,2.0717 0.5397,2.0841 h 0.01 c 6e-4,0 0,0.01 0,0.01 2.3299,0.3495 3.5475,1.2198 4.591,1.986 l -1.3237,2.1664 c -0.8911,-0.4556 -1.77,-0.8416 -2.5813,-1.1639 -1.9293,-1.6409 -4.3931,-4.9194 -0.7501,-10.1513 l 0.1247,-0.1704 c -2.8345,2.5649 -3.5052,5.5941 -2.1987,9.3308 -0.3077,-0.095 -0.5644,-0.1711 -0.7578,-0.2294 -1.6044,-5.3792 0.5077,-8.4092 3.4864,-10.021 4.8173,1.8761 6.1844,5.0381 6.1844,5.0381 l -0.6001,-0.017 -0.418,-0.5919 -4.236,-0.5636 0.6898,1.1049 c -0.2109,0 -0.7575,-0.031 -1.4089,-0.09 0.01,0.044 0.01,0.089 0.01,0.1341 0,0.1482 -0.028,0.2897 -0.078,0.4197 2.101,0.1227 6.2682,0.2656 7.4853,0.1719 0,0 -0.2431,0.3445 -0.3381,0.499 z m -1.1385,0 c -0.3601,0.7183 -0.8234,1.6449 -1.0713,2.1481 0.1936,0.05 0.3717,0.097 0.5289,0.141 0.2664,-0.5376 0.7427,-1.4901 1.1438,-2.2897 -0.1027,0 -0.2096,0 -0.3236,0 -0.09,0 -0.1836,-5e-4 -0.2778,-10e-4 z m -1.0097,-0.013 c -0.314,0.626 -0.7083,1.4147 -0.9702,1.9428 0.1863,0.043 0.3656,0.085 0.5371,0.1259 0.2757,-0.5548 0.681,-1.3649 1.0295,-2.0595 -0.1929,0 -0.3924,-0.01 -0.5964,-0.01 z m -1.0046,-0.024 c -0.2783,0.5554 -0.6228,1.2441 -0.8824,1.7661 0.1836,0.039 0.3646,0.078 0.5419,0.1162 0.2706,-0.5432 0.6255,-1.252 0.934,-1.8672 -0.1956,0 -0.3935,-0.01 -0.5935,-0.015 z m -5.0787,-0.2802 c -0.4289,0 -0.7755,-0.3468 -0.7755,-0.7755 0,-0.4278 0.3466,-0.7755 0.7755,-0.7755 0.4265,0 0.7755,0.3477 0.7755,0.7755 0,0.4287 -0.349,0.7755 -0.7755,0.7755 z"
         id="path11410" />
    </g>
  </g>
</svg>
