<?xml version="1.0" encoding="UTF-8" standalone="no"?>
<!-- Created with Inkscape (http://www.inkscape.org/) -->

<svg
   xmlns:dc="http://purl.org/dc/elements/1.1/"
   xmlns:cc="http://creativecommons.org/ns#"
   xmlns:rdf="http://www.w3.org/1999/02/22-rdf-syntax-ns#"
   xmlns:svg="http://www.w3.org/2000/svg"
   xmlns="http://www.w3.org/2000/svg"
   version="1.1"
   width="299.53146"
   height="300"
   viewBox="0 0 299.53146 300"
   id="svg25107">
  <defs
     id="defs25109" />
  <metadata
     id="metadata25112">
    <rdf:RDF>
      <cc:Work
         rdf:about="">
        <dc:format>image/svg+xml</dc:format>
        <dc:type
           rdf:resource="http://purl.org/dc/dcmitype/StillImage" />
        <dc:title></dc:title>
      </cc:Work>
    </rdf:RDF>
  </metadata>
  <g
     transform="translate(-777.36645,-502.20847)"
     id="layer1">
    <g
       transform="matrix(9.951989,0,0,9.951989,-4220.2605,-5516.0279)"
       id="g24986">
      <path
         d="m 507.07083,607.44667 c 3.3425,-1.78375 7.32125,-2.7725 10.91625,-2.7175 6.86375,0.105 10.67625,2.44375 10.79,2.52 -0.007,0.02 -1.2,2.7425 -1.2,2.7425 l 0.0125,0.004 c 0.87625,0.4325 1.71125,0.92625 2.48,1.465 0,0 0.34625,0.245 0.34875,0.2475 l 0,0.003 c 0,0.0163 0.008,0.0688 0.008,0.0688 l 0.0475,0.3425 c 0.1825,1.28375 0.2725,2.59875 0.2725,3.91125 0,1.76 -0.295,3.56 -0.87375,5.3475 l -0.37625,1.05625 0.015,0.001 0.21,0.0525 c 0.21,-0.0688 0.40625,-0.11375 0.60875,-0.1375 l 0.19875,-0.0213 c 0.045,-0.003 0.45625,-0.009 0.77375,0.0925 0.39125,0.11375 0.39125,0.11375 0.39375,0.11375 l 0.385,0.11 c 0,0 0.15625,0.045 0.19,0.0538 -0.008,0.025 -0.0763,0.185 -0.0763,0.185 l -0.9525,2.2775 c 0.0125,0.0975 0.0225,0.19875 0.0225,0.30375 0,0.2525 -0.045,0.51875 -0.1325,0.79625 -0.1525,0.47625 -0.42875,0.98 -0.7975,1.455 -0.4675,0.61625 -0.99875,1.05 -1.57625,1.28875 l -0.0163,0.007 0.0125,0.0125 c 0.2375,0.27 0.44625,0.70125 0.5625,1.155 0,0 0.0738,0.28 0.0962,0.36 -0.0412,-0.01 -1.3325,-0.33125 -1.3325,-0.33125 -0.22125,-0.0625 -0.7675,-0.1325 -0.83,-0.1425 -0.70125,-0.11 -1.47,-0.075 -2.64875,0.12375 -0.31625,0.345 -0.625,0.6725 -0.93625,0.98125 -1.70625,1.70625 -4.19875,3.6975 -5.62125,3.6975 -0.9925,0 -2.46125,-1.0125 -3.52,-1.85875 -1.9975,0.26875 -3.685,0.11625 -4.7575,-0.43125 -0.245,-0.125 -0.45125,-0.295 -0.61875,-0.50625 -0.54875,0.015 -6.4525,0.74 -6.975,0.805 0.2725,-0.2525 2.51,-2.305 2.78375,-2.5925 0.175,-0.31375 2.08875,-4.715 2.50375,-5.69 l 0.002,-0.0125 c 0,0 -3.065,-1.57375 -3.13875,-1.61375 0.0825,-0.008 2.39875,-0.25 2.39875,-0.25 l -0.006,-0.0175 c -0.91375,-2.235 -1.375,-4.47875 -1.375,-6.67125 0,-1.315 0.09,-2.62875 0.27125,-3.91125 0,0 0.0625,-0.42125 0.0625,-0.42375 0.001,0.003 0.0612,-0.0375 0.0612,-0.0375 l 0.2825,-0.2 c 0.6225,-0.43625 1.30125,-0.84875 2.01875,-1.2275 l 0.01,-0.005 -0.005,-0.009 c -0.39125,-0.91875 -0.7675,-1.845 -1.0525,-2.55125 0,0 -0.0463,-0.11875 -0.0575,-0.14625 0.0163,-0.007 0.1375,-0.075 0.1375,-0.075"
         id="path11247"
         style="fill:#ffffff;fill-opacity:1;fill-rule:nonzero;stroke:none" />
      <path
         d="m 532.05657,622.81192 -0.78,-0.22375 c -0.55875,-0.18 -1.33125,0.0137 -1.5275,0.0838 -0.1075,-0.0362 -0.29125,-0.0862 -0.48875,-0.09 0.0925,-0.23375 0.185,-0.47125 0.27125,-0.70875 l 0.0275,-0.0838 c 0.62125,-1.76375 1.025,-3.7 1.025,-5.75625 0,-1.30625 -0.0925,-2.61375 -0.27125,-3.88625 l -0.05,-0.34375 -0.2825,-0.1975 c -0.82,-0.57625 -1.6975,-1.0875 -2.6175,-1.52875 0.36625,-0.86625 0.74625,-1.77375 1.15875,-2.725 0,0 -3.77,-2.3575 -10.5225,-2.4475 -3.68,-0.05 -7.65875,1.00625 -10.83,2.6975 0.3625,0.9025 0.73125,1.80875 1.12,2.70625 -0.7525,0.38625 -1.4725,0.81875 -2.155,1.2975 l -0.2825,0.1975 -0.0475,0.34375 c -0.18125,1.2725 -0.27125,2.58 -0.27125,3.88625 0,2.4825 0.59125,4.78875 1.455,6.83375 -1.125,0.11875 -2,0.20875 -2,0.20875 l 2.725,1.425 c -0.1375,0.3375 -2.47,5.7225 -2.59125,5.89 -0.83375,0.89625 -2.33625,2.2275 -2.33625,2.2275 0,0 6.2725,-0.79 6.4725,-0.725 0.0987,0.14 0.29125,0.36375 0.61125,0.525 1.07,0.5475 2.75375,0.70125 4.7275,0.41375 1.32375,1.065 2.64375,1.8625 3.46,1.8625 1.28125,0 3.685,-1.83125 5.4975,-3.6425 0.2775,-0.28125 0.61125,-0.62625 0.97,-1.025 1.23375,-0.2125 2.02625,-0.245 2.775,-0.13625 0.7675,0.10875 1.85375,0.3775 1.85375,0.3775 -0.008,-0.003 -0.2275,-1.0525 -0.74625,-1.32125 0.66875,-0.1875 1.2775,-0.635 1.80875,-1.34 0.3575,-0.46 0.62375,-0.945 0.77125,-1.4025 0.12875,-0.39625 0.1575,-0.7625 0.0925,-1.065 l 0.9775,-2.3275 z"
         id="path11251"
         style="fill:#00305e;fill-opacity:1;fill-rule:nonzero;stroke:none" />
      <path
         d="m 518.05607,633.89479 c -0.43125,0 -1.3075,-0.44375 -2.4025,-1.255 -0.1275,0.0275 -0.25375,0.0525 -0.38125,0.0775 1.18625,0.90625 2.2175,1.4675 2.78375,1.4675 0.95375,0 3.1125,-1.47 5.13875,-3.495 0.1375,-0.1375 0.2875,-0.2925 0.44875,-0.4625 -0.18625,0.05 -0.37125,0.105 -0.56125,0.1625 -2.18,2.2025 -4.24,3.505 -5.02625,3.505"
         id="path11255"
         style="fill:#ffffff;fill-opacity:1;fill-rule:nonzero;stroke:none" />
      <path
         d="m 521.12582,609.02079 c 3.17875,0.45375 6.06125,1.6 8.395,3.23875 0.1725,1.215 0.265,2.4775 0.265,3.77375 0,2.25375 -0.51375,4.41125 -1.3275,6.39875 l 0.40875,-0.24125 c 0.72625,-1.86375 1.20875,-3.94 1.20875,-6.1575 0,-1.285 -0.0913,-2.56875 -0.26625,-3.81375 -0.0125,-0.0813 -0.055,-0.1525 -0.12125,-0.1975 -2.3925,-1.67875 -5.28375,-2.79625 -8.365,-3.2625 -0.07,0.0875 -0.135,0.17625 -0.1975,0.26125"
         id="path11259"
         style="fill:#ffffff;fill-opacity:1;fill-rule:nonzero;stroke:none" />
      <path
         d="m 507.81745,622.77867 c -0.90625,-2.08 -1.48625,-4.35875 -1.48625,-6.74625 0,-1.295 0.0913,-2.55875 0.26375,-3.77375 3.065,-2.15125 7.075,-3.455 11.46125,-3.455 0.29,0 0.5775,0.007 0.8625,0.0175 0.17,-0.0925 0.34,-0.1775 0.51375,-0.2625 -0.45625,-0.03 -0.9125,-0.045 -1.37625,-0.045 -4.27625,0 -8.405,1.2475 -11.63,3.5075 -0.0637,0.045 -0.10875,0.1175 -0.12125,0.1975 -0.17375,1.25125 -0.26625,2.5325 -0.26625,3.81375 0,2.46375 0.60625,4.75625 1.47875,6.77875 0.1,-0.01 0.2,-0.02 0.3,-0.0325"
         id="path11263"
         style="fill:#ffffff;fill-opacity:1;fill-rule:nonzero;stroke:none" />
      <path
         d="m 524.6712,623.18767 c 0.3375,-0.1375 0.86625,-0.3 1.48625,-0.235 0,0 0.60125,0.095 0.93875,0.0662 0.9925,-2.10375 1.65125,-4.46625 1.65125,-6.98625 0,-1.03875 -0.0625,-2.08 -0.18625,-3.1 -3.46375,0.9025 -4.6675,3.77875 -4.6675,3.77875 1.10375,2.3775 1.12875,4.42625 1.08625,4.92875 -0.0475,0.58 -0.15625,1.09375 -0.30875,1.5475"
         id="path11267"
         style="fill:#ffffff;fill-opacity:1;fill-rule:nonzero;stroke:none" />
      <path
         d="m 527.61008,612.28317 c -0.88875,-0.50625 -1.83625,-0.93875 -2.825,-1.2925 -0.88875,0.34625 -1.48125,0.9025 -1.48125,0.9025 1.66,-0.39 3.255,-0.008 4.30625,0.39"
         id="path11271"
         style="fill:#ffffff;fill-opacity:1;fill-rule:nonzero;stroke:none" />
      <path
         d="m 520.57433,610.00054 c -0.1925,0.44875 -0.2475,0.75375 -0.2475,0.75375 0.78625,-0.275 1.63375,-0.36875 2.40875,-0.36875 -0.70625,-0.16625 -1.42875,-0.2975 -2.16125,-0.385"
         id="path11275"
         style="fill:#ffffff;fill-opacity:1;fill-rule:nonzero;stroke:none" />
      <path
         d="m 520.6432,631.21504 c -0.79875,0.27375 -2.10625,0.69375 -3.64,1.09875 0.48,0.31375 0.84875,0.4975 1.06,0.54 0.4,-0.065 1.375,-0.6425 2.58,-1.63875"
         id="path11279"
         style="fill:#ffffff;fill-opacity:1;fill-rule:nonzero;stroke:none" />
      <path
         d="m 517.4117,609.85304 c -1.67125,0.0525 -3.31,0.30625 -4.865,0.74625 2.31625,0.13625 3.67375,0.75625 3.67375,0.75625 0.27375,-0.57 0.695,-1.0675 1.19125,-1.5025"
         id="path11283"
         style="fill:#ffffff;fill-opacity:1;fill-rule:nonzero;stroke:none" />
      <path
         d="m 507.56307,612.85854 c -0.1275,1.04125 -0.1925,2.10875 -0.1925,3.17375 0,2.36625 0.60375,4.60875 1.53125,6.635 0.485,-0.0525 0.96125,-0.1025 1.38125,-0.14625 1.37125,-1.3375 2.54125,-1.94625 2.54125,-1.94625 0.225,-0.26625 0.46625,-0.71125 0.46625,-0.71125 -0.08,-0.20875 -0.16125,-0.55625 -0.16125,-0.55625 2.195,-0.32375 2.71125,-1.43625 2.71125,-1.43625 -0.27,-0.285 -0.60375,-0.4825 -0.975,-0.5325 -0.37125,-0.0475 -0.90375,0.0575 -1.325,0.05 -0.41875,-0.01 -0.99875,-0.3 -1.3225,-0.22625 -0.3225,0.0712 -0.77375,0.31875 -1.1225,0.64375 -0.265,-3.46125 3.075,-3.45125 3.075,-3.45125 -0.785,-1.56125 -2.31875,-2.60625 -3.3525,-3.1725 -1.1575,0.45125 -2.2525,1.01 -3.255,1.67625"
         id="path11287"
         style="fill:#ffffff;fill-opacity:1;fill-rule:nonzero;stroke:none" />
      <path
         d="m 511.56957,622.38867 c 2.58,-1.95625 4.9475,-2.75125 4.9475,-2.75125 -0.0875,-0.305 -0.13,-0.57125 -0.15,-0.76375 -0.66875,0.33375 -3.55875,1.80625 -5.46125,3.405 0,0 0.265,-0.0925 0.44,-0.075 0,0 -0.12625,0.08 -0.3375,0.245 0.22375,-0.025 0.41375,-0.0425 0.56125,-0.06"
         id="path11291"
         style="fill:#ffffff;fill-opacity:1;fill-rule:nonzero;stroke:none" />
      <path
         d="m 524.28595,620.14892 c 0.0175,-1.2625 -0.60625,-2.79625 -0.80375,-3.41 -0.0188,-0.0575 -0.0375,-0.12 -0.06,-0.1925 -0.37875,-0.9875 -0.8,-1.85375 -1.17125,-2.2825 -0.1575,-0.18 -0.405,-0.3975 -0.55,-0.49375 -1.14375,-0.77625 -2.0175,-0.77375 -2.0175,-0.77375 0.14875,-0.39875 0.43375,-0.52375 0.43375,-0.52375 -0.57375,0.0925 -0.99375,0.53375 -0.99375,0.53375 0.095,-0.40875 0.485,-0.80625 0.485,-0.80625 -0.73125,0.2775 -1.1775,0.86875 -1.1775,0.86875 0.0375,-0.46 0.27375,-0.78125 0.27375,-0.78125 -0.59125,0.3325 -1,0.9875 -1,0.9875 -0.0225,-0.41875 0.20125,-0.76125 0.20125,-0.76125 -1.0075,0.6975 -1.25125,1.77 -1.25125,1.77 2.5875,-1.31125 4.3575,0.32 4.3575,0.32 -1.60875,0.30625 -2.0325,1.21 -2.0325,1.21 1.145,0.8075 1.88375,2.47625 1.82125,3.62625 -0.1075,1.98875 -1.58875,2.6325 -1.63125,3.17125 -0.02,0.27625 0.25875,0.46125 0.52625,0.55875 -2.49,0.67625 -3.2975,0.1225 -3.2975,0.1225 -0.89625,-0.04 -1.77125,0.0325 -2.575,0.16625 0.0175,0.14 0.02,0.2925 0.005,0.45125 1.84,-0.29875 4.03125,-0.40375 6.515,-0.15375 0.1575,-0.0475 0.31625,-0.0813 0.4875,-0.1 0,0 0.37125,-0.0525 0.79875,0.0375 0.17625,-0.135 0.33375,-0.285 0.47625,-0.45125 0.10125,-0.115 0.19125,-0.2275 0.27875,-0.34 0.42,-0.8625 0.4125,-2.085 -0.1325,-3.12 0,0 0.71875,0.43125 0.87875,1.53125 0,0 0.3325,-0.98 -0.60625,-2.3375 0,0 0.8725,0.4 1.245,1.87375 0,0 0.26625,-1.1725 -0.94375,-2.69125 0,0 1.0725,0.65875 1.46,1.99"
         id="path11295"
         style="fill:#ffffff;fill-opacity:1;fill-rule:nonzero;stroke:none" />
      <path
         d="m 513.62882,622.87617 c 0.98,-0.27375 1.67875,-0.36625 1.67875,-0.36625 -0.26375,-0.2225 -0.44625,-0.4825 -0.44625,-0.4825 -0.57625,0.1 -1.1375,0.2575 -1.67,0.45 0.1825,0.0925 0.33,0.2275 0.4375,0.39875"
         id="path11299"
         style="fill:#ffffff;fill-opacity:1;fill-rule:nonzero;stroke:none" />
      <path
         d="m 510.0882,608.35742 c 0.42125,-0.0738 0.68875,-0.15 0.74625,0.025 0.0387,0.1075 -0.03,0.20125 -0.165,0.25125 -0.18875,0.0662 -0.24625,0.006 -0.29375,-0.13625 l -0.035,-0.1075 -1.05375,0.38125 0.1775,0.535 c 0.33375,0.0238 0.81125,-0.0575 1.3725,-0.26 0.8725,-0.3175 1.2225,-0.66625 1.08,-1.0875 -0.1425,-0.42625 -0.45375,-0.415 -1.15125,-0.28125 -0.4425,0.0838 -0.6325,0.12875 -0.68,-0.0113 -0.03,-0.0912 0.03,-0.1625 0.17375,-0.2175 0.1425,-0.0488 0.2425,-0.0113 0.285,0.1125 l 0.0312,0.09 1.02,-0.37125 -0.1625,-0.485 c -0.4325,-0.004 -0.88625,0.0812 -1.3775,0.26 -0.86875,0.31375 -1.185,0.65125 -1.045,1.0725 0.12125,0.3625 0.4475,0.34 1.0775,0.23"
         id="path11303"
         style="fill:#ffffff;fill-opacity:1;fill-rule:nonzero;stroke:none" />
      <path
         d="m 511.92632,606.94029 0.86125,0.62625 0.0488,0.24875 c 0.02,0.1 0,0.16 -0.1275,0.22125 l 0.0713,0.35875 1.45625,-0.315 -0.07,-0.36 c -0.1475,-0.002 -0.18375,-0.05 -0.2025,-0.1475 l -0.05,-0.25 0.55625,-0.93625 c 0.0312,-0.0475 0.0688,-0.09 0.12375,-0.12375 l -0.0713,-0.355 -1.1225,0.24625 0.05,0.25125 c 0.0225,0.0975 0.0125,0.1875 -0.0263,0.27125 l -0.10625,0.21875 -0.18375,-0.1525 c -0.085,-0.0712 -0.105,-0.16125 -0.1225,-0.26125 l -0.045,-0.235 -1.27,0.275 0.07,0.35125 c 0.07,0.0175 0.125,0.04 0.16,0.0675"
         id="path11307"
         style="fill:#ffffff;fill-opacity:1;fill-rule:nonzero;stroke:none" />
      <path
         d="m 514.9532,606.40992 0.0738,0.95375 c 0.004,0.0987 -0.009,0.15875 -0.12125,0.19875 l 0.025,0.36625 1.40625,-0.11125 c 1.1225,-0.09 1.4475,-0.2675 1.405,-0.83625 l -0.045,-0.61875 c -0.0425,-0.57375 -0.38875,-0.69375 -1.51125,-0.60375 l -1.40625,0.1125 0.0288,0.35875 c 0.1175,0.025 0.1375,0.08 0.145,0.18"
         id="path11311"
         style="fill:#ffffff;fill-opacity:1;fill-rule:nonzero;stroke:none" />
      <path
         d="m 516.2277,606.20554 c 0.25875,-0.02 0.31125,0.0225 0.32125,0.16875 l 0.055,0.75375 c 0.0112,0.16 -0.0363,0.21875 -0.29125,0.24 l -0.1325,0.01 -0.085,-1.16 0.1325,-0.0125 z"
         id="path11315"
         style="fill:#00305e;fill-opacity:1;fill-rule:nonzero;stroke:none" />
      <path
         d="m 519.2237,607.39679 c -0.12125,-0.03 -0.1325,-0.0875 -0.12625,-0.195 l 0.0238,-0.42875 0.65625,1.025 1.12,0.07 0.085,-1.5125 c 0.005,-0.0987 0.025,-0.15375 0.145,-0.18125 l 0.02,-0.35875 -1.19875,-0.0738 -0.0188,0.36 c 0.14,0.04 0.1525,0.0925 0.1475,0.19875 l -0.0287,0.4925 -0.64,-1.085 -1.2675,-0.0775 -0.02,0.36125 c 0.11375,0.04 0.135,0.0975 0.1275,0.1975 l -0.0525,0.955 c -0.007,0.1 -0.0325,0.155 -0.15,0.18125 l -0.02,0.36625 1.1775,0.0713 0.02,-0.36625 z"
         id="path11319"
         style="fill:#ffffff;fill-opacity:1;fill-rule:nonzero;stroke:none" />
      <path
         d="m 523.90082,608.45729 0.14,-0.73875 -1.03625,-0.2125 c 0,0.0288 -0.005,0.055 -0.01,0.0762 -0.0312,0.16625 -0.12125,0.21375 -0.36375,0.16625 -0.0275,-0.005 -0.0638,-0.015 -0.0975,-0.0238 l 0.02,-0.0925 0.03,-0.16375 0.0263,-0.15125 0.715,0.14375 0.0775,-0.3925 -0.71625,-0.145 0.0675,-0.35875 0.0962,0.0187 c 0.2525,0.0525 0.3075,0.11 0.28,0.25 l -0.009,0.0575 1.0375,0.21125 0.125,-0.67125 -2.7075,-0.55125 -0.065,0.3575 c 0.105,0.0537 0.12,0.11125 0.1,0.21125 l -0.175,0.94125 c -0.02,0.0975 -0.0525,0.1475 -0.1725,0.1575 l -0.0562,0.29875 -0.0125,0.06 0.7925,0.16125 1.91375,0.39 z"
         id="path11323"
         style="fill:#ffffff;fill-opacity:1;fill-rule:nonzero;stroke:none" />
      <path
         d="m 525.00408,607.97704 -0.0775,0.2425 c -0.0325,0.0975 -0.0775,0.1375 -0.22,0.12375 l -0.11125,0.3475 1.4125,0.49125 0.11125,-0.34625 c -0.12625,-0.0812 -0.135,-0.1375 -0.1025,-0.235 l 0.0788,-0.24375 0.935,-0.5125 c 0.05,-0.03 0.10125,-0.0438 0.16625,-0.045 l 0.11,-0.34125 -1.0875,-0.38 -0.0775,0.245 c -0.0325,0.095 -0.0825,0.16875 -0.155,0.21875 l -0.2,0.1325 -0.0838,-0.22625 c -0.04,-0.105 -0.0125,-0.195 0.02,-0.28875 l 0.0725,-0.22875 -1.22625,-0.4275 -0.11125,0.34375 c 0.0525,0.0475 0.09,0.0925 0.10625,0.13875 l 0.44,0.99125 z"
         id="path11327"
         style="fill:#ffffff;fill-opacity:1;fill-rule:nonzero;stroke:none" />
      <path
         d="m 529.77382,624.48592 c 0.01,-0.0175 0.0675,-0.0525 0.13,-0.0625 0,0 0.24625,-0.0587 0.41125,0.1775 0.1225,0.1725 0.3075,0.515 0.3075,0.515 l 0.80125,-1.91875 -0.3875,-0.11125 c -0.56375,-0.19375 -1.27,0.0525 -1.5,0.1675 l 0.0263,-0.065 c 0,0 -0.27625,-0.11 -0.515,-0.0962 -0.0225,0.002 -0.0462,0.002 -0.0675,0.007 -0.155,0.0288 -0.30875,0.0688 -0.46375,0.1475 l 0.1825,-0.4425 -0.1075,0.0625 -0.4225,0.24375 -0.0575,0.0338 c -0.36875,0.21125 -0.725,0.33375 -1.055,0.37875 -0.065,0.006 -0.13875,0.0113 -0.21375,0.0113 -0.365,0.002 -0.81875,-0.0688 -0.81875,-0.0688 l 0.1825,0.29 c -0.1725,-0.15875 -0.40375,-0.22625 -0.63375,-0.2425 -0.1075,-0.008 -0.2075,-0.005 -0.31625,0.008 -0.2775,0.0375 -0.55375,0.1325 -0.83375,0.28125 -0.12,0.0625 -0.24125,0.14 -0.365,0.225 l 0.0737,-0.175 -0.73,0.0825 0.81375,-1.96625 -0.87,0.1025 c 0,0 -0.1675,0.52375 -0.92875,1.4575 -0.235,0.28125 -0.50625,0.50875 -0.8025,0.7125 0,0 -0.2875,-0.09 -0.86875,-0.0788 -0.40125,0.01 -0.88,0.22875 -1.27375,0.5875 -0.115,0.105 -0.235,0.23 -0.3325,0.3425 -0.0888,0.0975 -0.1625,0.1825 -0.195,0.22875 -0.0125,-0.0838 -0.0325,-0.16375 -0.0575,-0.23875 -0.0312,-0.0975 -0.0737,-0.1825 -0.12625,-0.26125 -0.2175,-0.3125 -0.595,-0.45125 -1.09375,-0.3925 -0.0863,0.01 -0.16375,0.03 -0.24375,0.0475 -0.50625,0.125 -0.93375,0.395 -1.2675,0.67125 -0.45625,0.38 -0.72125,0.7675 -0.73125,0.78 -0.0125,-0.27875 -0.0762,-0.50875 -0.2,-0.69 -0.004,-0.005 -0.006,-0.01 -0.0113,-0.015 -0.2175,-0.30375 -0.59,-0.4325 -1.0825,-0.3775 -0.4475,0.0475 -0.92625,0.285 -1.2475,0.51125 0.14625,-0.25625 0.26125,-0.51125 0.34125,-0.76 0.07,-0.215 0.11,-0.41375 0.125,-0.60125 0.0112,-0.1625 0.004,-0.315 -0.0275,-0.4475 -0.045,-0.205 -0.1375,-0.37375 -0.275,-0.495 -0.0625,-0.0525 -0.13375,-0.095 -0.21125,-0.12875 -0.1625,-0.0612 -0.2925,-0.0838 -0.5375,-0.0812 -0.13375,0 -0.30125,0.01 -0.52875,0.025 -0.0238,0 -5.04625,0.52125 -5.04625,0.52125 0,0 1.2475,0.61625 1.39,0.68875 0.05,0.0237 0.08,0.04 0.0825,0.04 0,0 0.0663,0.0425 0.0412,0.195 -0.01,0.0462 -0.025,0.0987 -0.05,0.16375 0,0 -0.0738,0.17 -0.19625,0.45625 -0.4175,0.9875 -1.42125,3.35625 -2.10625,4.94875 -0.1375,0.31625 -0.25375,0.5325 -0.43875,0.78 -0.37625,0.50875 -1.3275,1.31 -1.3275,1.31 l 4.085,-0.45375 -0.17875,-0.41875 c -0.0163,-0.0388 -0.16125,-0.39 -0.0113,-0.8575 0.045,-0.14375 0.29,-0.71625 0.42875,-1.04 l 0.03,0.62125 c 0.0225,0.64375 0.20875,1.105 0.56625,1.34 0.2725,0.17875 0.225,0.1575 0.58375,0.27375 0,0 0.1575,0.3125 0.5475,0.51125 0.90125,0.45875 2.27125,0.60375 3.8925,0.44 0.225,-0.0213 0.455,-0.05 0.69,-0.0825 0.12875,-0.02 0.25625,-0.04 0.385,-0.0625 0.3075,-0.0525 0.6175,-0.115 0.93375,-0.185 0.1425,-0.0338 0.27875,-0.0675 0.41625,-0.1025 1.97125,-0.49375 3.44375,-0.9975 4.63875,-1.40625 0.1525,-0.0525 0.305,-0.1025 0.45875,-0.155 0.72375,-0.24875 1.45125,-0.49375 2.1425,-0.67875 0.17,-0.0425 0.33625,-0.0825 0.5,-0.11875 0.0863,-0.0213 0.17125,-0.0412 0.25625,-0.0575 0.19125,-0.0325 0.37125,-0.0612 0.54375,-0.085 1.125,-0.17 1.83875,-0.17 2.4725,-0.07 l 0.7275,0.1175 c 0,0 -0.66875,-0.55375 -1.9025,-0.735 -0.215,-0.0312 -0.4525,-0.0538 -0.68375,-0.0613 -0.0925,-0.005 -0.1825,-0.005 -0.27,0 l 0.3,-0.0362 1.36625,-0.16125 -0.0987,-0.12125 c 0,0 0.5225,0.13375 0.79375,0.14875 0.11125,0.008 0.23375,0 0.34625,-0.0113 0.67875,-0.0812 1.26375,-0.46 1.79875,-1.15875 0.30625,-0.39875 0.53125,-0.81 0.65625,-1.19 0.17875,-0.55875 0.0825,-0.9925 -0.1925,-1.24 -0.2375,-0.21125 -0.66625,-0.28625 -0.56625,-0.44875"
         id="path11331"
         style="fill:#ffffff;fill-opacity:1;fill-rule:nonzero;stroke:none" />
      <path
         d="m 525.40582,628.99417 c 0.26625,-0.008 0.5325,-0.005 0.79125,0.0125 0.635,0.045 1.11,0.1925 1.01,0.1825 -0.59875,-0.055 -1.0925,-0.0975 -1.96375,0.005 -0.225,0.0238 -0.47625,0.0588 -0.76,0.10625 -0.05,0.01 -0.0975,0.0175 -0.1475,0.0263 -0.1075,0.0213 -0.2125,0.0437 -0.31625,0.065 -0.65625,0.14375 -1.29375,0.3375 -1.97375,0.5625 -1.4925,0.495 -3.2075,1.145 -5.84625,1.78625 -0.0362,0.01 -0.0712,0.0188 -0.11,0.0288 -0.435,0.0975 -0.84875,0.17375 -1.24625,0.23375 -0.1325,0.02 -0.26125,0.0375 -0.39,0.0538 -0.23625,0.0287 -0.47,0.055 -0.69375,0.0712 -1.5075,0.1075 -2.67125,-0.0775 -3.4175,-0.45625 -0.0425,-0.0187 -0.085,-0.0475 -0.12375,-0.0737 0.29125,0.0525 0.5925,0.0875 0.9075,0.1 0.66625,0.0312 1.3325,-0.0312 1.975,-0.17375 0.2,-0.0425 0.3925,-0.0925 0.5825,-0.1525 0.1075,-0.03 0.21125,-0.0662 0.31875,-0.1025 0.37,-0.1275 0.7275,-0.2825 1.0675,-0.45875 0.65375,-0.34375 1.23625,-0.77 1.71,-1.26 0.22375,0.0575 0.5225,0.1425 0.69375,0.18 0.25125,0.06 0.50625,0.1025 0.775,0.1175 0.96375,0.05 2.06375,-0.135 3.07,-0.29 0.4475,-0.0675 0.89625,-0.1475 1.34875,-0.22625 0.19625,-0.0338 0.39625,-0.0688 0.59625,-0.1025 0.34375,-0.0575 0.69,-0.1075 1.0325,-0.15 0.1375,-0.015 0.275,-0.03 0.41375,-0.045 0.235,-0.0175 0.46875,-0.035 0.69625,-0.04"
         id="path11335"
         style="fill:#ffffff;fill-opacity:1;fill-rule:nonzero;stroke:none" />
      <path
         d="m 520.29845,626.12667 c 0.075,0.0425 0.1625,0.09 0.2975,0.195 0.16875,0.12125 0.23875,0.35125 0.20375,0.64375 l 0.65875,-1.585 0.0575,-0.13625 -0.3025,0.0362 -0.0187,0.04 -0.11625,0.285 c -0.0187,-0.0425 -0.0475,-0.0725 -0.0738,-0.1025 -0.13,-0.15625 -0.305,-0.2325 -0.50375,-0.235 0,0 -0.305,0.0237 -0.4475,0.18125 -0.06,0.0688 -0.105,0.1425 -0.12875,0.22375 -0.0275,0.0775 -0.03,0.145 0.01,0.195 0.13125,0.15125 0.36375,0.25875 0.36375,0.25875"
         id="path11339"
         style="fill:#ffffff;fill-opacity:1;fill-rule:nonzero;stroke:none" />
      <path
         d="m 521.96295,627.78629 c 0.0238,0.005 0.12125,-0.015 0.12125,-0.015 0.0213,-0.24 0.0812,-0.51625 0.17875,-0.82625 0.1325,-0.41875 0.34875,-0.865 0.635,-1.30375 0.11125,-0.17 0.23,-0.3375 0.3625,-0.50375 -0.0325,-0.04 -0.0775,-0.0575 -0.1775,-0.06 l -0.44625,0.0362 -0.23625,0.575 -0.6875,1.6625 c -0.10625,0.34 -0.0425,0.435 0.25,0.435"
         id="path11343"
         style="fill:#ffffff;fill-opacity:1;fill-rule:nonzero;stroke:none" />
      <path
         d="m 508.9017,622.66692 c -0.9275,-2.02625 -1.53125,-4.26875 -1.53125,-6.63375 0,-1.065 0.0637,-2.1325 0.1925,-3.175 1.00375,-0.66625 2.0975,-1.225 3.255,-1.67625 -0.61375,-0.335 -1.0525,-0.49875 -1.0525,-0.49875 1.03625,-0.11875 1.9675,-0.13125 2.78125,-0.0838 1.555,-0.43875 3.19375,-0.69375 4.865,-0.74625 0.45375,-0.395 0.9725,-0.7375 1.50875,-1.0325 -0.28625,-0.009 -0.57375,-0.0162 -0.86375,-0.0162 -4.3875,0 -8.39625,1.30375 -11.4625,3.455 -0.1725,1.215 -0.2625,2.4775 -0.2625,3.77375 0,2.3875 0.58,4.665 1.485,6.74625 0.3575,-0.0375 0.72375,-0.075 1.085,-0.1125"
         id="path11347"
         style="fill:#e82c2e;fill-opacity:1;fill-rule:nonzero;stroke:none" />
      <path
         d="m 520.6432,631.21504 c -1.205,0.99625 -2.18,1.57375 -2.58,1.63875 -0.21125,-0.0425 -0.58,-0.22625 -1.06,-0.54 -0.31375,0.0812 -0.63625,0.16125 -0.965,0.2425 -0.13,0.0288 -0.2575,0.0562 -0.38375,0.0838 1.09375,0.81 1.97125,1.255 2.40125,1.255 0.7875,0 2.84625,-1.3025 5.0275,-3.505 -0.52875,0.16125 -1.0725,0.34625 -1.6075,0.53 0,0 -0.30625,0.115 -0.8325,0.295"
         id="path11351"
         style="fill:#e82c2e;fill-opacity:1;fill-rule:nonzero;stroke:none" />
      <path
         d="m 522.7357,610.38567 c 1.56625,0 2.85875,0.37875 2.85875,0.37875 -0.28875,0.0475 -0.56125,0.13 -0.80875,0.225 0.98875,0.355 1.935,0.7875 2.825,1.29375 0.765,0.285 1.2425,0.5775 1.2425,0.5775 -0.1,0.0225 -0.1975,0.045 -0.2925,0.0712 0.125,1.02125 0.185,2.06125 0.185,3.10125 0,2.52 -0.65875,4.88125 -1.64875,6.98625 0.0137,0 0.03,-0.002 0.045,-0.002 0.25875,-0.0338 0.54125,-0.13375 0.84,-0.3075 l 0.47625,-0.2775 c 0.81375,-1.9875 1.3275,-4.145 1.3275,-6.39875 0,-1.29625 -0.0925,-2.55875 -0.26375,-3.77375 -2.335,-1.63875 -5.2175,-2.785 -8.39625,-3.23875 -0.25125,0.3575 -0.4275,0.69625 -0.55125,0.98 0.7325,0.0875 1.455,0.21875 2.16125,0.385"
         id="path11355"
         style="fill:#e82c2e;fill-opacity:1;fill-rule:nonzero;stroke:none" />
      <path
         d="m 516.44657,612.09292 c 0,0 -1.97875,-0.925 -4.7775,-0.8775 0,0 2.2,1.15125 3.13125,3.38875 0.0362,0.085 0.0725,0.17625 0.105,0.26625 0.62375,-0.11875 1.315,0.18875 1.83875,0.72 0.54375,0.54625 0.91,1.3325 0.8475,2.135 0,0 -0.28875,0.545 -0.71625,0.32625 -0.0937,-0.0487 -0.18875,-0.12625 -0.29375,-0.25375 0,0 -0.07,0.045 -0.1475,0.1825 0,0 -0.015,-0.0975 -0.07,-0.205 -0.79,1.515 -2.76125,1.6625 -2.82625,1.7575 0,0 0.0575,0.195 0.0912,0.27875 0,0 -0.21375,0.34625 -0.6,0.93875 l 0.45625,-0.285 c 0,0 0.3175,-0.4525 0.42875,-0.69875 0,0 0.88375,0.0375 2.435,-1.2175 0,0 -0.005,0.1225 0.02,0.325 0.0175,0.19375 0.06,0.45875 0.14875,0.76375 0,0 -2.36875,0.795 -4.94875,2.75125 0.1975,-0.02 0.3175,-0.0338 0.32625,-0.0338 0,0 0.88375,-0.0412 1.215,0.0838 0.0287,0.0113 0.055,0.0238 0.0812,0.0375 0.5325,-0.1925 1.09375,-0.35 1.66875,-0.45 0,0 0.18375,0.26 0.44625,0.48375 0,0 -0.69875,0.0925 -1.6775,0.365 0.1025,0.165 0.16625,0.36 0.195,0.58375 0.80375,-0.1325 1.67875,-0.2075 2.575,-0.1675 0,0 0.80625,0.55375 3.2975,-0.12 -0.26875,-0.0975 -0.54625,-0.28375 -0.5275,-0.55875 0.0425,-0.54125 1.52375,-1.185 1.63125,-3.1725 0.0637,-1.15125 -0.67625,-2.82 -1.82125,-3.62625 0,0 0.42625,-0.90375 2.0325,-1.21 0,0 -1.76875,-1.63125 -4.35625,-0.32125 0,0 0.2425,-1.0725 1.25125,-1.76875 0,0 -0.2225,0.3425 -0.2025,0.76125 0,0 0.40875,-0.65375 1.00125,-0.9875 0,0 -0.2375,0.32125 -0.27375,0.78 0,0 0.445,-0.59 1.1775,-0.8675 0,0 -0.39,0.39625 -0.485,0.805 0,0 0.41875,-0.43875 0.99375,-0.5325 0,0 -0.28625,0.12375 -0.435,0.52375 0,0 0.875,-0.002 2.0175,0.7725 0.14625,0.0975 0.39375,0.31375 0.55125,0.495 0.37,0.4275 0.79125,1.29625 1.17125,2.2825 0,0 0.004,-0.1025 0.0488,-0.1825 0.44375,-0.90875 1.81375,-2.95875 4.09125,-3.5025 0,0 -1.69625,-1.11375 -5.20875,-0.3375 0,0 0.40125,-1.05 1.56125,-1.58125 0,0 -1.48125,-0.4 -4.2875,0.53125 0,0 -0.008,-0.68625 0.33625,-1.54 0.125,-0.31625 0.29875,-0.6575 0.54125,-0.9925 0.065,-0.09 0.13,-0.1775 0.205,-0.26625 0.0213,-0.0275 0.045,-0.055 0.0688,-0.0825 0,0 -0.0713,0.0212 -0.19875,0.0687 -0.13,0.0475 -0.325,0.12375 -0.55625,0.23125 -0.43625,0.19875 -1.0125,0.51125 -1.60375,0.9575 -0.71375,0.53625 -1.445,1.2675 -1.97375,2.2425"
         id="path11359"
         style="fill:#e82c2e;fill-opacity:1;fill-rule:nonzero;stroke:none" />
      <path
         d="m 512.07132,631.18654 c 0.195,-0.0225 0.39,-0.055 0.58625,-0.09 0.0725,-0.015 0.14125,-0.0288 0.2125,-0.0425 0.11375,-0.025 0.2425,-0.055 0.37375,-0.0975 0.08,-0.0288 0.16125,-0.06 0.24,-0.0987 -0.11,0.0125 -0.2175,0.0175 -0.32125,0.02 -0.15625,0 -0.31125,-0.005 -0.45875,-0.0175 -0.0812,-0.006 -0.195,-0.0213 -0.32125,-0.045 -0.26625,-0.045 -0.5825,-0.11625 -0.725,-0.18 -0.3875,-0.17375 -0.61125,-0.27125 -0.77375,-0.66125 -0.1175,-0.285 -0.145,-0.62625 -0.1325,-0.9825 0.01,-0.24 0.0337,-0.4875 0.0625,-0.73125 0.0162,-0.13625 0.0325,-0.27 0.05,-0.4025 0.0163,-0.15125 0.0325,-0.30125 0.0425,-0.445 0.0125,-0.185 0.0325,-0.375 0.06,-0.56125 l 0.25375,-0.1325 c 0.0212,-0.015 0.045,-0.0287 0.0662,-0.04 0.45875,-0.2575 0.7925,-0.56125 1.07,-0.95625 0.0388,-0.05 0.0738,-0.1025 0.1075,-0.155 0.23375,-0.34375 0.39625,-0.675 0.49875,-0.99 0.06,-0.18875 0.0962,-0.3675 0.1075,-0.52875 0.0113,-0.165 0,-0.31375 -0.0412,-0.44125 -0.0588,-0.1925 -0.1775,-0.3325 -0.35375,-0.40625 -0.0125,-0.004 -0.0213,-0.006 -0.03,-0.0113 -0.18125,-0.0625 -0.32875,-0.0662 -0.94,-0.0288 -0.007,0 -3.86375,0.39 -3.86375,0.39 0,0 0.50875,0.2825 0.535,0.2975 0.1825,0.0825 0.2075,0.215 0.155,0.41375 -0.0225,0.085 -2.395,5.67125 -2.395,5.67125 -0.28,0.63375 -0.5325,0.99125 -1.09875,1.53125 -0.0538,0.0475 -0.0962,0.0825 -0.14875,0.1325 l 2.87625,-0.31875 c -0.0187,-0.0425 -0.0312,-0.07 -0.04,-0.1125 -0.095,-0.33875 -0.0975,-0.58375 0.025,-0.945 0.205,-0.60875 0.92875,-2.2 0.92875,-2.2 0.003,0.5275 0.05,1.09625 0.07,1.705 0.02,0.46625 0.13375,0.93125 0.48625,1.1775 0.725,0.50625 1.86375,0.3875 2.83625,0.2825"
         id="path11363"
         style="fill:#e82c2e;fill-opacity:1;fill-rule:nonzero;stroke:none" />
      <path
         d="m 524.90407,626.67579 0.75625,-0.0875 c 0.0613,-0.12 0.30375,-0.74875 0.36375,-0.9275 0.1225,-0.3875 0.1875,-0.71125 0.19,-0.975 0.008,-0.555 -0.24,-0.84125 -0.73875,-0.8775 -0.0888,-0.006 -0.17375,-0.005 -0.26875,0.006 -0.34,0.045 -0.67875,0.18875 -1.01125,0.41875 -0.18,0.125 -0.35875,0.27625 -0.53625,0.45 -0.0913,0.095 -0.18125,0.19375 -0.2675,0.29625 l 0.3275,-0.79375 -0.72625,0.085 0.81375,-1.9675 -0.3125,0.0375 c -0.1875,0.41625 -0.47375,0.8625 -0.90125,1.35125 -0.2875,0.335 -0.6225,0.63125 -1.04875,0.89625 l -0.06,0.035 0.0362,-0.085 c 0,0 -0.30125,-0.13 -0.8225,-0.0825 -0.44375,0.0425 -0.75125,0.19875 -1.0875,0.49625 -0.0525,0.0475 -0.10625,0.1 -0.16,0.155 l -0.11,0.10875 c -0.36625,0.42 -0.60625,0.8275 -0.7225,1.19375 -0.13125,0.40875 -0.095,0.75625 0.0875,0.95 0.26375,0.28125 0.55125,0.32625 0.635,0.47875 0.0137,0.0475 0.0137,0.0825 -0.0175,0.17875 -0.10875,0.3475 -0.51375,0.7275 -1.13375,0.22125 -0.1375,-0.115 -0.225,-0.27125 -0.27125,-0.3725 0.0712,-0.125 0.1425,-0.2525 0.2125,-0.38625 0.165,-0.31875 0.3,-0.635 0.3925,-0.9225 0.20625,-0.6425 0.21125,-1.16125 0.0175,-1.48125 -0.1625,-0.27375 -0.47,-0.40625 -0.92125,-0.3525 -0.075,0.007 -0.14125,0.0237 -0.21625,0.0412 -0.27875,0.065 -0.5425,0.185 -0.79625,0.35375 -0.32625,0.21625 -0.64125,0.51125 -0.9475,0.89875 -0.3225,0.40375 -0.49625,0.66625 -0.73875,1.1625 0.04,-0.1025 0.0325,-0.11125 0.0663,-0.20625 0.26375,-0.82375 0.2025,-1.445 -0.19125,-1.71 -0.1725,-0.11625 -0.41125,-0.16375 -0.7125,-0.12625 -0.245,0.0312 -0.545,0.14375 -0.84875,0.31625 -0.405,0.23125 -0.81625,0.57125 -1.11,0.98 -0.185,0.255 -0.3425,0.5 -0.47375,0.725 -0.2925,0.4975 -0.455,0.8875 -0.51375,1.04625 -0.009,0.0238 -0.0163,0.0425 -0.0213,0.055 -0.0312,0.095 -0.055,0.19 -0.0763,0.28 -0.0612,0.25 -0.0925,0.48625 -0.09,0.6925 0.0113,0.5775 0.28375,0.95875 0.84625,0.96375 0.0562,0.003 0.11875,-0.002 0.18625,-0.01 0.0875,-0.01 0.185,-0.03 0.285,-0.0575 0.04,-0.015 0.0788,-0.0275 0.12125,-0.0425 0.0975,-0.0337 0.1925,-0.0712 0.2875,-0.11625 0.0137,-0.005 0.0262,-0.01 0.0375,-0.015 0.30125,-0.1525 0.57875,-0.3525 0.835,-0.60125 0.39,-0.3725 0.73375,-0.85375 1.04625,-1.46 0.0588,-0.115 0.0712,-0.12625 0.12125,-0.2375 -0.0375,0.1025 -0.0325,0.0975 -0.0625,0.19 -0.37625,1.17 -0.13,2.0425 0.86625,1.92625 0.085,-0.0125 0.18,-0.0312 0.2825,-0.0625 0.1525,-0.0425 0.30375,-0.1025 0.45,-0.17 0.60875,-0.31 1.12375,-0.81125 1.57625,-1.53 l -0.23375,1.23375 c 0,0 0.42625,0.1175 0.67875,0.12625 0.105,0.005 0.21125,0.002 0.31125,-0.0113 0.60875,-0.07 1.10125,-0.4125 1.55,-1.00625 0.0825,-0.1025 0.155,-0.205 0.21875,-0.30625 0,0 -0.10375,0.25875 -0.12375,0.32125 -0.15875,0.49125 -0.0575,0.82125 0.40625,0.7675 0.11,-0.0113 0.3575,-0.0813 0.48875,-0.14375 l 0.955,-1.16 c -0.0462,0.71625 0.26875,1.0825 1.00375,1.05875 0.0675,0 0.135,-0.008 0.21,-0.0137 0.43125,-0.0788 1.01,-0.32375 1.01,-0.32375 l 1.11,-1.4725 c -0.245,0.1825 -0.41625,0.28 -0.8125,0.4475 -0.19,0.0762 -0.3475,0.13125 -0.4825,0.16625 -0.0775,0.0225 -0.1525,0.035 -0.215,0.045 -0.26875,0.0312 -0.40625,-0.055 -0.4775,-0.26375 -0.0813,-0.2275 -0.0763,-0.4275 -0.0175,-0.6225 l 1.49625,-0.17625 z"
         id="path11367"
         style="fill:#e82c2e;fill-opacity:1;fill-rule:nonzero;stroke:none" />
      <path
         d="m 530.9082,623.37554 c -0.72125,-0.205 -1.42,0.15 -1.755,0.44625 -0.0662,0.06 -0.13625,0.13 -0.20625,0.1975 l 0.25625,-0.61625 c -0.0838,-0.015 -0.20125,-0.0175 -0.27375,-0.008 -0.005,0 -0.01,0 -0.0137,0.003 -0.2475,0.03 -0.51,0.175 -0.75125,0.40125 -0.0925,0.09 -0.1825,0.1875 -0.27,0.3 l 0.28875,-0.70375 c -0.0663,0.0375 -0.13125,0.0725 -0.195,0.10625 -0.3425,0.17375 -0.67,0.2775 -0.9825,0.31375 -0.10125,0.0137 -0.21125,0.0187 -0.31375,0.0112 -0.02,0 -0.045,0.003 -0.0662,0 0.0137,0.02 0.0237,0.04 0.0337,0.0625 0.0725,0.145 0.0725,0.3 -0.025,0.60625 -0.0475,0.1425 -1.23,3.00625 -1.2525,3.05125 -0.17625,0.39875 -0.2825,0.56625 -0.56125,0.83875 -0.04,0.0375 -0.0775,0.0788 -0.11875,0.10625 l 0.095,-0.009 0.40625,-0.05 0.71375,-0.0825 0.52375,-0.0625 c -0.02,-0.0213 -0.0312,-0.0575 -0.045,-0.0875 -0.0438,-0.15 -0.0388,-0.3025 0.0213,-0.51875 0.009,-0.035 0.0187,-0.07 0.03,-0.1075 l 0.6975,-1.6875 c 0.20875,-0.505 0.30375,-0.66375 0.515,-0.91125 0.18125,-0.1925 0.35,-0.3075 0.51,-0.3225 0.045,-0.008 0.085,-0.005 0.1275,0.005 0.0437,0.01 0.0862,0.03 0.12375,0.0562 -0.11625,0.1975 -0.20375,0.385 -0.26125,0.565 -0.1325,0.41 -0.1025,0.76625 0.0875,0.9525 0,0 0.15875,0.165 0.37125,0.2825 0.1025,0.055 0.20875,0.11125 0.2425,0.1425 0.0338,0.0388 0.0362,0.13375 0.005,0.23125 -0.0262,0.08 -0.16375,0.3775 -0.4775,0.44125 -0.055,0.0125 -0.2075,0 -0.3075,-0.03 -0.10125,-0.0312 -0.24,-0.0913 -0.34875,-0.19125 -0.2125,-0.2 -0.31375,-0.48 -0.31375,-0.48 l -0.28125,1.485 c 0,0 0.6675,0.15375 0.98875,0.115 0.60875,-0.07 1.10125,-0.41375 1.55,-1.005 0.3025,-0.3875 0.49375,-0.75375 0.59375,-1.0675 0.145,-0.445 0.095,-0.80125 -0.1325,-0.96125 -0.135,-0.1075 -0.55375,-0.30875 -0.66,-0.45625 -0.0925,-0.1325 0.0238,-0.3275 0.11625,-0.41875 0.1025,-0.095 0.2825,-0.16375 0.44875,-0.18 0.265,-0.0275 0.52375,0.1875 0.57625,0.335 l 0.445,-1.06625 -0.155,-0.0325 z"
         id="path11371"
         style="fill:#e82c2e;fill-opacity:1;fill-rule:nonzero;stroke:none" />
      <path
         d="m 526.1977,629.00604 c -0.25875,-0.0175 -0.52625,-0.02 -0.79125,-0.0125 -0.22875,0.005 -0.46125,0.0225 -0.6975,0.04 -0.1375,0.015 -0.275,0.03 -0.4125,0.0462 -0.34375,0.0438 -0.68875,0.0925 -1.0325,0.15 -0.2,0.0338 -0.4,0.0688 -0.59625,0.1025 -0.4525,0.0775 -0.9025,0.15875 -1.35,0.225 -1.005,0.155 -2.10625,0.34 -3.06875,0.29 -0.26875,-0.0138 -0.52375,-0.0563 -0.775,-0.11625 -0.1725,-0.0388 -0.47125,-0.12375 -0.69375,-0.18125 -0.47375,0.49125 -1.0575,0.91625 -1.71125,1.26 -0.34,0.1775 -0.69625,0.33125 -1.0675,0.46 -0.10625,0.0363 -0.21,0.0713 -0.3175,0.10125 -0.19125,0.06 -0.38375,0.11 -0.58375,0.1525 -0.64125,0.14375 -1.3075,0.205 -1.975,0.17375 -0.315,-0.0112 -0.61625,-0.0475 -0.90625,-0.0987 0.0375,0.025 0.08,0.0538 0.12375,0.0725 0.74625,0.37875 1.91,0.56375 3.41625,0.45625 0.22375,-0.015 0.45625,-0.0425 0.695,-0.07 0.12875,-0.0175 0.25625,-0.0337 0.39,-0.055 0.39625,-0.06 0.81125,-0.135 1.245,-0.2325 0.0388,-0.01 0.075,-0.02 0.11,-0.03 2.63875,-0.64125 4.35375,-1.29 5.8475,-1.785 0.67875,-0.225 1.3175,-0.4175 1.97375,-0.56375 0.10375,-0.0213 0.20875,-0.0425 0.31625,-0.0638 0.05,-0.01 0.0975,-0.0175 0.1475,-0.0263 0.2825,-0.0475 0.53375,-0.0837 0.76,-0.1075 0.87125,-0.1025 1.365,-0.06 1.96375,-0.005 0.1,0.01 -0.37625,-0.1375 -1.01,-0.1825"
         id="path11375"
         style="fill:#e82c2e;fill-opacity:1;fill-rule:nonzero;stroke:none" />
      <path
         d="m 515.09808,621.50417 c 0.3925,-0.2825 0.82,-0.61125 0.83875,-0.68625 -0.08,-0.0725 -0.12,-0.125 -0.12,-0.125 1.43125,-0.55375 1.53125,-2.1375 1.53125,-2.1375 0.0138,1.64125 -1.265,2.2625 -1.265,2.2625 0.04,0.06 0.1325,0.0925 0.1325,0.0925 -0.34875,0.25875 -0.65875,0.58375 -0.65875,0.58375 1.365,1.81625 2.54,1.67625 2.54,1.67625 -1.62625,0.28125 -2.99875,-1.66625 -2.99875,-1.66625"
         id="path11379"
         style="fill:#00305e;fill-opacity:1;fill-rule:nonzero;stroke:none" />
      <path
         d="m 519.34957,616.76054 c 0.76625,1.42875 0.30875,3.06875 0.30875,3.06875 0.22,-1.4725 -0.33625,-2.6125 -0.72,-3.195 -0.1825,-0.28 -0.3275,-0.4325 -0.3275,-0.4325 0.0825,0.2 0.1375,0.39625 0.17,0.57375 0.0788,0.3825 0.0675,0.66875 0.0675,0.66875 -0.055,-0.2125 -0.125,-0.39875 -0.195,-0.55625 -0.17875,-0.38625 -0.37125,-0.59375 -0.37125,-0.59375 0.1025,0.23625 0.17875,0.47375 0.2375,0.71625 0.5875,2.39625 -0.80375,4.865 -0.80375,4.865 0.81125,-1.6725 0.78,-3.51 0.6275,-4.56375 -0.006,-0.0425 -0.0162,-0.085 -0.0237,-0.125 -0.17,-0.9675 -0.60375,-1.335 -0.60375,-1.335 -0.43,0.1125 -0.99625,-0.3775 -0.99625,-0.3775 0,0 0.1625,0.0662 0.4525,-0.0525 0.28625,-0.11625 0.45625,-0.45 0.7275,-0.6825 0.42,-0.35875 1.595,-0.29375 1.595,-0.29375 -0.98375,0.185 -1.3775,1.1475 -1.3775,1.1475 0.1175,-0.002 0.23375,0.03 0.355,0.1 0.28625,0.15875 0.5825,0.51375 0.8775,1.0675"
         id="path11383"
         style="fill:#00305e;fill-opacity:1;fill-rule:nonzero;stroke:none" />
      <path
         d="m 516.43457,617.98042 c 0.075,-0.1375 0.1475,-0.1825 0.1475,-0.1825 0.105,0.1275 0.2,0.2075 0.2925,0.25375 0.25625,-0.0962 0.5325,-0.31125 0.4825,-0.7675 -0.0863,-0.76125 -0.32125,-1.30375 -0.61375,-1.69375 -0.5225,-0.53125 -1.215,-0.83875 -1.8375,-0.72 -0.0337,-0.09 -0.0687,-0.18125 -0.105,-0.26625 -3.42625,0.0425 -3.31125,2.46125 -3.31125,2.46125 0,0 0.525,-0.4125 1.46875,-0.6375 l 0.42,-0.51125 0.51625,0.2225 c 0,0 -0.095,-0.095 0.3575,-0.185 0.41875,-0.0825 1.0075,0.0238 1.215,0 0.20375,-0.0187 0.2875,-0.0712 0.38125,-0.0588 0.09,0.009 0.1125,0.05 0.215,0.17375 0.23625,0.2975 0.25375,0.575 0.25375,0.575 0,0 -0.58375,-0.4625 -0.72625,-0.4625 -0.145,0 -1.38625,0.1825 -2.78625,0.76125 0,0 0.66125,0.0775 0.78125,0.06 0.51375,-0.0625 1.14625,-0.24 1.78875,0.0125 0.72,0.285 0.9275,0.55625 0.98875,0.76 0.0537,0.1075 0.0712,0.205 0.0712,0.205"
         id="path11387"
         style="fill:#ffd74f;fill-opacity:1;fill-rule:nonzero;stroke:none" />
      <path
         d="m 515.3717,615.34104 c -0.1525,0.285 -0.81125,0.12125 -0.81125,0.12125 0.74375,0.0287 0.66875,-0.30875 0.4125,-0.34 0,0 0.48875,0.045 0.39875,0.21875"
         id="path11391"
         style="fill:#00305e;fill-opacity:1;fill-rule:nonzero;stroke:none" />
      <path
         d="m 517.85407,615.02942 c 0,0 -0.345,0.56875 -0.82,0.54875 0,0 0.16375,0.1175 0.385,0.1625 0.2,0.04 0.73,-0.1725 0.435,-0.71125"
         id="path11395"
         style="fill:#ffffff;fill-opacity:1;fill-rule:nonzero;stroke:none" />
      <path
         d="m 520.80008,626.96592 c 0.035,-0.2925 -0.035,-0.52375 -0.205,-0.64375 -0.135,-0.105 -0.22125,-0.1525 -0.29625,-0.195 0,0 -0.23375,-0.1075 -0.365,-0.25875 -0.04,-0.05 -0.0375,-0.1175 -0.009,-0.195 0.0238,-0.0825 0.0688,-0.155 0.12875,-0.225 0.1425,-0.15625 0.44625,-0.18125 0.44625,-0.18125 0.2,0.003 0.37375,0.08 0.505,0.23625 0.025,0.0287 0.0537,0.06 0.0738,0.1025 l 0.115,-0.28625 0.02,-0.04 0.3025,-0.035 -0.0575,0.135 -0.65875,1.58625 z"
         id="path11399"
         style="fill:#ffffff;fill-opacity:1;fill-rule:nonzero;stroke:none" />
      <path
         d="m 525.19682,626.93029 c -0.165,0.115 -0.31625,0.195 -0.62875,0.32625 -0.0512,0.0188 -0.0987,0.035 -0.14375,0.0538 -0.2,0.0738 -0.3575,0.12125 -0.4725,0.13375 -0.1775,0.0213 -0.2225,-0.0237 -0.26,-0.13375 -0.0263,-0.0738 -0.0412,-0.14 -0.045,-0.2 l 1.02125,-0.1175 0.52875,-0.0625 z"
         id="path11403"
         style="fill:#00305e;fill-opacity:1;fill-rule:nonzero;stroke:none" />
      <path
         d="m 522.3957,629.09404 c -0.27375,0.0475 -0.54875,0.095 -0.8225,0.1375 0.09,-0.12 0.38,-0.50875 0.38,-0.50875 0.0113,0.02 0.0213,0.0412 0.0337,0.06 0.1,0.1425 0.2375,0.2425 0.40875,0.31125"
         id="path11407"
         style="fill:#00305e;fill-opacity:1;fill-rule:nonzero;stroke:none" />
      <path
         d="m 520.31758,629.42217 c -0.45625,0.0625 -0.91125,0.115 -1.3475,0.1325 0.33,-0.11 0.63625,-0.29875 0.92375,-0.57 0.0175,0.0875 0.045,0.16625 0.0913,0.2325 0.0562,0.0812 0.15875,0.1725 0.3325,0.205"
         id="path11411"
         style="fill:#00305e;fill-opacity:1;fill-rule:nonzero;stroke:none" />
      <path
         d="m 513.72145,631.01054 0.63,-0.36875 c -0.16625,0.0187 -0.66,-0.0113 -1.05375,-0.0375 -0.1875,-0.015 -0.35125,-0.0287 -0.44375,-0.0362 -0.0213,0 -0.0413,-10e-4 -0.0525,-10e-4 -0.245,-0.02 -0.445,-0.065 -0.61375,-0.1375 0.0263,-0.005 0.05,-0.01 0.0763,-0.0175 0.1025,-0.0312 0.2125,-0.0725 0.32,-0.1175 0.06,-0.0225 0.1175,-0.0475 0.17875,-0.075 0.0338,-0.0175 0.065,-0.0362 0.1,-0.055 0.3075,-0.16625 0.5925,-0.37875 0.85875,-0.6375 0.17125,-0.165 0.3325,-0.3525 0.49,-0.55875 0.0137,0.28125 0.0812,0.52125 0.20625,0.70375 0.215,0.31125 0.57875,0.4475 1.0525,0.3925 0.1025,-0.0138 0.2125,-0.0362 0.32875,-0.0688 0.0575,-0.015 0.115,-0.0375 0.175,-0.0575 -0.34125,0.25875 -0.71625,0.48875 -1.1125,0.685 -0.34875,0.17125 -0.71125,0.31875 -1.0875,0.4375 -0.1,0.03 -0.2025,0.06 -0.305,0.0875 0.025,-0.0113 0.05,-0.0188 0.0725,-0.0325 l 0.18,-0.105 z"
         id="path11415"
         style="fill:#00305e;fill-opacity:1;fill-rule:nonzero;stroke:none" />
      <path
         d="m 526.83983,628.26667 c 0,0 -0.285,-0.28 -0.1325,-0.66125 l 0.35375,-0.86 0.1575,-0.38 -0.0412,0.20125 -0.3375,1.7 z"
         id="path11419"
         style="fill:#00305e;fill-opacity:1;fill-rule:nonzero;stroke:none" />
      <path
         d="m 527.89782,625.26104 c -0.0263,0.0775 -0.045,0.1575 -0.06,0.23 -0.085,0.42125 -0.0175,0.7775 0.1925,0.98 0,0.002 0.16,0.1525 0.16,0.1525 0.11375,0.0875 0.40375,0.2425 0.41125,0.24875 -0.008,0.0275 -0.05,0.145 -0.165,0.1625 -0.03,0.007 -0.0575,0.002 -0.10125,-0.003 0,0 -0.16625,-0.007 -0.3925,-0.17375 -0.1925,-0.14 -0.37375,-0.4775 -0.49,-0.7275 -0.0287,-0.0612 -0.0512,-0.11625 -0.0712,-0.16125 l 0.015,-0.035 c 0.195,-0.46625 0.26625,-0.58625 0.43875,-0.78875 0.045,-0.0512 0.105,-0.10625 0.1625,-0.14625 -0.0375,0.0875 -0.0725,0.17625 -0.1,0.26125"
         id="path11423"
         style="fill:#00305e;fill-opacity:1;fill-rule:nonzero;stroke:none" />
      <path
         d="m 520.2342,625.60579 c 0.015,-0.0125 0.30375,-0.1875 0.53875,0.12375 0.1075,0.1425 0.15,0.2875 0.15,0.2875 l -0.05,0.1175 c -0.195,-0.22625 -0.63875,-0.33625 -0.67625,-0.46375 -0.007,-0.0225 0.0113,-0.045 0.0375,-0.065"
         id="path11427"
         style="fill:#00305e;fill-opacity:1;fill-rule:nonzero;stroke:none" />
      <path
         d="m 510.8112,625.86029 c 0.205,-0.2975 0.28,-0.54625 0.3025,-0.61125 0.10375,-0.3275 0.0512,-0.54875 -0.195,-0.63625 -0.1225,-0.0412 -0.28375,-0.0525 -0.4975,-0.03 -0.195,0.0225 -0.2875,0.075 -0.2875,0.075 l -0.0787,0.1825 -0.0475,0.105 -0.45625,1.06 -0.06,0.1375 -0.075,0.17375 -0.23875,0.55125 c 0,0 0.27375,0 0.49625,-0.0963 0.015,-0.005 0.025,-0.01 0.035,-0.0175 0.09,-0.04 0.175,-0.0825 0.25625,-0.1275 0.36375,-0.21 0.61875,-0.46 0.79375,-0.695 0.0175,-0.0238 0.035,-0.0475 0.0525,-0.0713"
         id="path11431"
         style="fill:#ffffff;fill-opacity:1;fill-rule:nonzero;stroke:none" />
      <path
         d="m 509.8172,626.40954 c -0.12125,0.07 -0.21,0.1025 -0.21375,0.1025 l 0.70125,-1.62125 c 0.004,0 0.715,-0.1425 0.545,0.33875 -0.0362,0.1075 -0.095,0.22875 -0.1575,0.345 -0.0263,0.0488 -0.0525,0.0963 -0.0813,0.13875 -0.055,0.08 -0.11125,0.155 -0.1725,0.22 -0.21,0.23125 -0.45,0.38625 -0.62125,0.47625"
         id="path11435"
         style="fill:#00305e;fill-opacity:1;fill-rule:nonzero;stroke:none" />
      <path
         d="m 512.3352,628.00267 c -0.22625,0.81125 -0.1,1.19125 0.17125,1.16 0.13125,-0.025 0.31125,-0.14 0.495,-0.335 0.01,-0.006 0.0175,-0.0188 0.0275,-0.0312 0.195,-0.22 0.50625,-0.76375 0.7375,-1.47625 0.3075,-0.92875 0.22375,-1.305 -0.20625,-1.25375 -0.31875,0.0975 -0.74875,0.62875 -1.1225,1.6075 -0.04,0.11875 -0.0775,0.22625 -0.1025,0.32875"
         id="path11439"
         style="fill:#ffffff;fill-opacity:1;fill-rule:nonzero;stroke:none" />
      <path
         d="m 512.6967,627.70542 c 0.27625,-0.78625 0.67375,-1.27 0.84125,-1.345 0.0738,-0.005 0.0937,0.015 0.0975,0.025 0.0312,0.0475 0.0863,0.22875 -0.13,0.92375 -0.0575,0.175 -0.1125,0.32125 -0.1675,0.45125 -0.17,0.41625 -0.3175,0.68 -0.4725,0.85625 -0.0113,0.0113 -0.0187,0.0237 -0.0288,0.035 -0.135,0.14125 -0.245,0.20375 -0.2925,0.21875 -0.04,0.003 -0.05,-0.01 -0.055,-0.015 -0.0638,-0.0425 -0.0712,-0.22 0.0388,-0.62375 0.0412,-0.14625 0.095,-0.31875 0.16875,-0.52625"
         id="path11443"
         style="fill:#00305e;fill-opacity:1;fill-rule:nonzero;stroke:none" />
      <path
         d="m 516.04207,628.74692 c 0.13,-0.0238 0.31875,-0.1325 0.49625,-0.3325 0.4975,-0.57125 0.71125,-1.33625 0.76625,-1.50875 0.29,-0.93625 0.22125,-1.305 -0.2075,-1.255 -0.32,0.0975 -0.75,0.63125 -1.12375,1.61 -0.36625,1.1125 -0.235,1.52125 0.0688,1.48625"
         id="path11447"
         style="fill:#ffffff;fill-opacity:1;fill-rule:nonzero;stroke:none" />
      <path
         d="m 516.23245,627.28929 c 0.32875,-0.8625 0.67375,-1.2675 0.84125,-1.345 0.0738,-0.003 0.0937,0.0175 0.0975,0.025 0.0338,0.0475 0.0738,0.47875 -0.295,1.3775 -0.1825,0.43875 -0.34,0.715 -0.50375,0.88875 -0.135,0.14125 -0.245,0.20375 -0.2925,0.21875 -0.22375,0.0375 0.1525,-1.165 0.1525,-1.165"
         id="path11451"
         style="fill:#00305e;fill-opacity:1;fill-rule:nonzero;stroke:none" />
      <path
         d="m 525.02545,625.58929 c 0.2025,-0.62625 0.105,-0.91125 -0.17625,-0.875 -0.25625,0.0337 -0.595,0.34625 -0.83125,0.70125 -0.095,0.15625 -0.18625,0.31125 -0.2525,0.47625 l 1.1975,-0.1425 c 0.0225,-0.0525 0.045,-0.1075 0.0625,-0.16"
         id="path11455"
         style="fill:#ffffff;fill-opacity:1;fill-rule:nonzero;stroke:none" />
      <path
         d="m 524.79008,625.48229 -0.56875,0.0675 c 0.008,-0.01 0.0125,-0.0175 0.0175,-0.0275 0.20375,-0.30625 0.43625,-0.51125 0.55875,-0.51125 0.1,-0.002 0.075,0.18125 -0.008,0.47125"
         id="path11459"
         style="fill:#00305e;fill-opacity:1;fill-rule:nonzero;stroke:none" />
      <path
         d="m 522.26257,626.94454 c -0.0975,0.31125 -0.1575,0.58625 -0.1775,0.8275 0,0 -0.0987,0.0188 -0.1225,0.0138 -0.29125,0 -0.35625,-0.095 -0.24875,-0.435 l 0.68625,-1.66125 0.23625,-0.57625 0.44625,-0.035 c 0.1,0.002 0.145,0.0187 0.17875,0.06 -0.13375,0.165 -0.2525,0.3325 -0.365,0.50375 -0.285,0.4375 -0.50125,0.88375 -0.63375,1.3025"
         id="path11463"
         style="fill:#ffffff;fill-opacity:1;fill-rule:nonzero;stroke:none" />
    </g>
  </g>
</svg>
