<svg height="284.19928" viewBox="0 0 52 42" width="351.865775" xmlns="http://www.w3.org/2000/svg" xmlns:xlink="http://www.w3.org/1999/xlink"><path d="m10.766216 12.4225s1.098283-1.3556 3.255273-2.8298c.420514-.5616.892974-1.1058 1.407485-1.6178l.20531-.1929c.019789-.2301.029684-.4675.039578-.71-4.981855 2.1991-7.1561598 5.3505-7.1561598 5.3505 0 .6011.0296833 1.2021.0865764 1.7983.8286605-.3191 1.5880584-.611 2.1965674-.846-.019789-.324-.03463-.6431-.03463-.9523"/><path d="m25.86267 33.5273c-4.1433-1.7562-7.660776-4.1804-10.218491-7.3911-1.137862-1.4323-2.144622-3.2355-2.946072-5.1575-.341359-.1089-.685191-.2127-1.024076-.3067-.492249-.1361-.991918-.2548-1.491588-.3562.764346 1.7587 1.785948 3.4457 3.054911 5.0437 2.790235 3.51 6.644122 6.3621 11.190621 8.3063h-12.570897c.14347.2004.222626.4403.222626.7248h13.782966"/><path d="m34.067642 30.1978c.126154-.282.257256-.5639.385883-.836-.118733.0445-.803924.2671-1.548481.5046-1.884892 1.4495-4.039408 2.6641-6.38934 3.6584v.8658h13.34019c0-.2845.08163-.5244.225099-.7248h-12.130594c2.21883-.9498 4.269455-2.1149 6.117243-3.468"/><path d="m29.860028 5.2193-.106366.0717c-.324043.2276-.633244.4577-.925131.6877l-.093997.0792c8.486963.9375 12.877625 6.3646 12.877625 6.3646 0 1.6771-.32157 3.609-.875659 5.5483l1.588059.7742.408146.2029c.73961-2.1026 1.125494-4.2918 1.125494-6.5254 0 0-4.111144-5.9639-13.998171-7.2032"/><path d="m26.936218 7.7894c-.160785.1954-.304254.3883-.427935.5739-.175626.2671-.311675.5268-.405672.7717-.08905.235-.136049.4577-.148417.6605l-.002474.089.014842.1386c.366095.5961.630771 1.0661.781662 1.3357.190468.1781.410619.3562.665401.5269.484828.324 1.083442.6357 1.781001.9276l2.431561 1.0241 2.349931 1.0191 2.253461 1.0092 2.152043.987.556562.2647c.311675-1.3209.482355-2.6097.482355-3.7599 0 0-4.259561-5.2713-12.484321-5.5681" fill="#00a9d8"/><path d="m27.584304 30.0667s.413094-1.1774.724769-2.063c-.200363.0619-5.174797.8683-5.174797.8683s.922658-.9202 2.117412-2.115c-.304254-.0964-.610982-.1929-.907815-.2968-.94492-.3339-1.860157-.7074-2.716027-1.1106-.888026-.4131-1.736475-.8708-2.530505-1.3581-.690138-.4279-1.39017-.8261-2.072887-1.1823-.618403-.3241-1.244227-.6234-1.860156-.893.578825 1.1848 1.2467 2.2881 1.97889 3.2083 2.250987 2.8273 5.372685 4.9447 9.045999 6.461 1.988784-.8187 3.806889-1.823 5.419684-3.0103-.648086.2399-4.024567 1.4915-4.024567 1.4915" fill="#00a9d8"/><path id="a" d="m8.7551689 38.9569h-5.9935622c-1.3481186 0-2.6616067-.4081-2.6616067-1.2022h8.5611717v-1.0933h-6.0084039c-1.3505923 0-2.5527678-.4057-2.5527678-1.2195v-.9598c0-.9424 1.2021755-1.3332 2.5700831-1.3332h6.12219c1.5905329 0 2.6640799.371 2.6640799 1.2195h-8.4919101v1.0735h5.8080413c1.3481188 0 2.6838688.3537 2.6838688 1.1478v1.1452c0 .8336-1.093336 1.222-2.7011841 1.222"/><path d="m17.187713 38.947h-.150891v-1.3135h-3.284957v1.3135h-.180573c-.779188 0-1.442116-.277-1.442116-.6951v-1.9665c0-.3958.662928-.6852 1.45201-.6852h.170679v1.3382h3.294852v-1.3382h.140996c.885553 0 1.471799.2474 1.471799.7075v1.9442c0 .4799-.660455.6951-1.471799.6951"/><path d="m31.227935 38.9569-2.317774-2.0308h2.52061v-.6209h-3.292377v4.8384c0 .3314-.128628.5219-.415567.6431-.277045.1039-.662928.1361-1.048812.1361h-.158311v-6.3226h5.056063c.888027 0 1.474273.2474 1.474273.705v.6308c0 .4279-.502143.6753-1.402538.7074l1.550955 1.3135"/><path d="m38.752663 38.947c-.80145 0-1.036443-.1806-1.355539-.3315l-2.053098-1.2071v.8979c0 .4799-.695085.6407-1.474273.6407h-.148417v-3.3468h1.62269v1.4768l2.114938-1.4768h1.798316l-2.213883 1.5732 2.95102 1.7736"/><use height="45" transform="translate(40.401507)" width="54" xlink:href="#a"/><path d="m20.935235 36.3052h3.282483v.6209h-3.282483zm-.158311-.705c-.781662 0-1.466852.2251-1.466852.7371v2.6097h.096471c.405672 0 .823713-.0643 1.088389-.1806.301781-.1311.440303-.2894.440303-.6109v-.522h3.282483v3.5101c0 .3314.126155.5244.418041.6431.277044.1039.68519.1385 1.066127.1385h.160784v-6.325"/><path d="m24.55413 10.6266c-.076682-.3018-.103892-.606-.08905-.9103.022262-.3735.108839-.7445.244887-1.1106.136049-.3587.324043-.7099.549142-1.0563.222625-.3413.482354-.6728.76682-.9943.279518-.3142.583772-.6209.902868-.9153.314149-.2894.643139-.5664.977077-.8311.32899-.2597.662928-.5071.989445-.7372.643139-.4526 1.276384-.8509 1.827999-1.1799 1.068601-.6307 4.702337-.3933 4.702337-.3933l4.212561-2.4983c-1.167544.2078-2.22625.371-3.178591.5021-.959762.1311-1.810684.2202-2.555241.2845-1.508904.1311-2.584925.136-3.34185.0866-1.513851-.094-1.746371-.4032-1.746371-.4032l.67777 2.7308c-.836081.1534-1.625163.3216-2.367247.4997-.754451.1806-1.456957.3735-2.122359.5788-.675296.2078-1.303594.428-1.89726.6555-.603562.2326-1.162598.475-1.689478.7223l-.32899.1608c1.454484 1.6697 2.673975 3.5076 3.465531 4.8087"/><path d="m17.066506 8.482c-.207784.183-.400726.3661-.586246.5491-.610983.6061-1.103231 1.2047-1.499009 1.7637-.408146.5813-.714874 1.1181-.939973 1.5807-.447724.9103-.578825 1.5138-.58872 1.5707 2.270776-.9696 3.255274-3.1736 3.613948-5.4642"/><path d="m49.747869 24.3428c-.5343-.3067-1.199702-.6802-1.996205-1.1156-.784135-.4279-1.689477-.9128-2.720973-1.4471-.507091-.2622-1.043864-.5367-1.607848-.8237-.559036-.282-1.142809-.5739-1.758738-.8781-.606035-.2968-1.236806-.6036-1.892313-.9202-.65056-.3117-1.325857-.6283-2.023415-.9548-.687664-.3191-1.402538-.6481-2.137201-.982-.727242-.329-1.469326-.663-2.238619-1.0018-.756925-.334-1.536113-.6704-2.332616-1.0142-.786609-.3364-1.588059-.6753-2.414246-1.0192-.811345-.3364-1.486641-.6901-2.04073-1.0611-.457618-.3043-.826186-.616-1.12302-.9351-.645613-1.1873-4.46487-7.9699-8.719483-9.9464 0 0 .675297 3.6585.324044 6.2385-.361148 2.2906-1.343172 4.4946-3.613948 5.4642l-.002473.005-4.1952469 1.6177-8.6675365 3.3394.0074209.0371c5.6992023-1.5386 11.9351785-.334 13.5083955.0148l.343832.0841.032157.0074v-.0024c.173153.0395.353727.0791.541721.1138 1.080969.2152 2.134728.4304 3.166224.6456 1.046338.2176 2.070413.4329 3.064805.6505 1.009234.2202 1.988785.4379 2.943599.6531.883079.2003 1.734002.3982 2.565136.5912-.086577-.4453-.128628-.9252-.128628-1.4273v-.0173l.920184.329c.017315.4749.074208.9251.170679 1.3456-.237467-.0544-.474934-.1138-.712401-.1682.779188.1855 1.536114.3661 2.270776.5442-.225098-.0544-.450197-.1113-.680243-.1657-.098944-.3884-.170679-.8089-.20531-1.2517l.949867.3414c.049473.4056.128628.794.237467 1.1502l.093997.0223c.368569.089.727242.1805 1.085916.2696l-.279518-.0693c-.113786-.3265-.200363-.6827-.264677-1.0612l.982024.3538c.076682.3413.173153.6654.291887.9597l-.324044-.0816c.341359.0866.680244.1732 1.009234.2548.806398.2078 1.580638.4081 2.317775.6035.749504.1955 1.459431.3884 2.12978.5739l.32899.0891c2.849601.6679 8.21734 1.593 14.411265.9993 0 0-.529353-.3314-1.617743-.9548" fill="#00a9d8"/><path d="m35.435549 24.6545c-1.588059-.1855-.677769-.0124-1.682056-.71l3.977569.6976s-.707454.1979-2.295513.0124m1.518798-.3562-.326517-.0891c-.672822-.183-1.382749-.376-2.127306-.5714-.742084-.1954-1.513851-.3982-2.322722-.6035-.80145-.2029-1.635057-.4156-2.500822-.6259-.860817-.2102-1.748843-.4254-2.666554-.6431-.907815-.2152-1.845314-.4304-2.81497-.653-.850923-.1905-1.731529-.3859-2.626976-.5813-3.495214-.8089-5.229216-2.4984-5.229216-2.4984.175626.6061.450197 1.1206.754451 1.551-.682717-.1386-1.370381-.2771-2.072887-.4205l-.30178-.0594-.239941-.052-.029683-.0074h-.002474l-.343832-.0816c-1.573217-.3513-7.8091932-1.5534-13.5083955-.0148v.0024c.2770445-.0692.7124003-.1682 1.2739102-.2622 1.0290227-.1781 2.4760858-.3438 4.1977198-.3166.8657643.0148 1.8032633.0767 2.8001286.2103 1.001813.1335 2.0728869.3438 3.2033279.653.568931.1558 1.155177.3389 1.758738.5516.606035.2152 1.231859.4601 1.874998.7371.65056.2845 1.320909.6036 2.011047.9648.697559.366 1.419853.7742 2.164411 1.2343.759399.465 1.553428.893 2.377141 1.2788.838554.3933 1.699371.7421 2.582451 1.0538.892974.3141 1.803263.5887 2.723447.8287l.539247.1311-.707453.7074 1.640005-.4947c.442777.094.880606.183 1.325856.2597l.059367.0099-.375989 1.0686 2.152043-.7965c.316622.0421.630771.0792.944919.1138v1.5262l3.529845-1.2838c.190468.0074.373515.0099.56151.0149l-.563984 1.1922 1.852736-1.1873c.870711-.0049 1.709266-.0322 2.518137-.0792 1.402538-.0841 2.701184-.2152 3.863782-.3735l.450198-.0643c1.268963-.1855 2.364773-.3958 3.26022-.5936 1.768633-.3934 2.753131-.7347 2.753131-.7347-6.193925.5912-11.561664-.3315-14.411265-1.0018"/><g fill="#00a9d8"><path d="m31.623713 24.3403 1.046338.0866c-.474933-.2919-.888027-.846-1.177439-1.5683-.328991-.0841-.667876-.1657-1.00676-.2523.26715.7767.665401 1.3877 1.137861 1.734"/><path d="m28.776586 24.1004c-.47246-.4824-.848449-1.2467-1.051286-2.1669-.237466-.0544-.477407-.1113-.7124-.1682l-.249835-.0569c.183048.9697.546669 1.7835 1.021602 2.3104"/><path d="m29.686875 24.1771 1.00676.0841c-.47246-.3933-.863291-1.0513-1.110652-1.8775-.324043-.0792-.65056-.1583-.97955-.2375.225098.8757.610982 1.593 1.083442 2.0309"/></g><path d="m9.5849121 39.9545c-.351253 0-.535043.0065-.65625.0313-.1978889.0445-.2187504.1255-.21875.5312v.0625.1875c.0024736.2795.0570583.3691.25.4063.123681.0272.240023.0312.59375.0312.6184029 0 .7187499-.0608.7187499-.375v-.125h-.3749999v.0313.0312c-.002473.0865-.04469.125-.25.125h-.1875c-.210257 0-.309119-.0015-.34375-.0312-.039578-.0297-.03125-.1146-.03125-.3125l.03125-.25c.03463-.0323.098863-.0313.34375-.0313h.3125l.09375.125h.3749999v-.0312-.0313c0-.334-.070004-.375-.6562499-.375zm.9999999 0v1.25h.40625v-.3125h.59375c.136049.0024.15625.006.15625.2188v.0937h.375v-.125-.0937l-.1875-.25v-.0313c.155838-.0223.1875-.1128.1875-.375 0-.3092-.072312-.375-.40625-.375zm2.125 0c-.237466.0371-.278777.1451-.28125.625v.0625c0 .4032.029848.4867.25.5313.143469.0272.351996.0312.65625.0312.435356 0 .59845-.0146.6875-.0937.081629-.0717.09375-.1733.09375-.5938 0-.4106-.042217-.4916-.25-.5312-.121207-.0224-.349522-.0313-.65625-.0313-.264677 0-.388687-.0173-.5 0zm1.75 0v1.25h.375v-.9375h.03125l.65625.9375h.65625v-1.25h-.40625l.03125.9375h-.0625l-.625-.9375zm2.0625 0v.5625.1563c.004947.3264.030756.448.21875.5.131101.0371.217515.0312.6875.0312.576352 0 .680078-.0637.6875-.5312v-.1563-.5625h-.375v.5625l-.0625.3125c-.042051.0445-.122691.0625-.375.0625-.395777 0-.40625-.0125-.40625-.25v-.6875zm1.9375 0v1.25h1.25v-.3125h-.875v-.9375zm1.5 0v1.25h1.28125v-.3125h-.875v-.9375zm2.03125 0-.65625 1.25h.4375l.09375-.2187h.8125l.125.2187h.40625l-.625-1.25zm7.4375 0c-.215204.0223-.28125.1153-.28125.375 0 .2647.070746.3651.375.375h.3125l.25.0313.1875.0937-.21875.0938h-.1875-.15625c-.202837-.0025-.216277-.0252-.21875-.1563h-.34375v.0625c0 .3216.07561.375.71875.375.5343 0 .600924-.0236.6875-.125l.09375-.2812-.09375-.2813c-.076682-.0767-.143554-.0764-.59375-.0937-.239941-.0049-.320581-.0214-.375-.0313l-.09375-.0937c0-.0841.027126-.0625.34375-.0625h.03125.15625l.21875.125h.34375v-.0625c0-.2993-.098781-.3438-.6875-.3438-.197889 0-.35991-.0074-.46875 0zm1.53125 0v.5625.1563c.004947.3314.062005.4479.25.5.133575.0396.186264.0312.65625.0312.576352 0 .677606-.0637.6875-.5312v-.1563-.5625h-.375v.5625l-.0625.3125c-.042051.047-.09144.0625-.34375.0625-.398251 0-.435026-.015-.4375-.25v-.6875zm1.8125 0v.3125h.5625v.9375h.375v-.9375h.5625v-.3125zm1.75 0v1.25h.40625v-.4375h.84375v.4375h.40625v-1.25h-.40625v.4375h-.84375v-.4375zm2 0v1.25h1.375v-.3125h-1v-.1875h.9375v-.2812h-.9375v-.1875h1v-.2813zm1.71875 0v1.25h.375v-.3125h.625c.138523.0025.15625.0036.15625.2188v.0937h.375v-.125-.0937l-.1875-.25v-.0313c.155838-.0222.187499-.1103.1875-.375 0-.3092-.074784-.375-.40625-.375h-.21875zm1.84375 0v1.25h1.28125v-.3125h-.875v-.9375zm2.03125 0-.65625 1.25h.4375l.09375-.2187h.8125l.125.2187h.40625l-.625-1.25zm1.4375 0v1.25h.375v-.9375h.03125l.65625.9375h.65625v-1.25h-.40625l.03125.9375h-.0625l-.625-.9375zm2.0625 0v1.25h.90625c.425462 0 .533479-.0334.625-.125.086577-.0841.093749-.2048.09375-.5312 0-.2622-.038424-.4135-.125-.5l-.15625-.0625c-.111312-.0224-.101086-.0313-.4375-.0313zm-23.375.2813h.0625l.25.4687h-.5625zm20.125 0h.0625l.25.4687h-.5625zm-31.375.0312h.5l.25.0313.03125.125-.1875.1562h-.09375-.5zm1.9375 0h.34375c.252309 0 .405343-.0009.4375.0313l.03125.2187c0 .3315-.01006.3726-.25.375h-.21875-.0625c-.390831 0-.40625-.0141-.40625-.2812v-.0313c.007421-.2424.011213-.2977.125-.3125zm25.6875 0h.53125l.21875.0313.03125.125-.15625.1562h-.09375-.53125zm7.375 0h.53125c.215205 0 .275395-.0034.3125.0313l.03125.25c0 .3091.007505.3437-.34375.3437h-.53125z"/></svg>